<?xml version="1.0" encoding="utf-8"?>
<!-- Generator: Adobe Illustrator 25.2.0, SVG Export Plug-In . SVG Version: 6.00 Build 0)  -->
<svg version="1.1" id="Capa_1" xmlns="http://www.w3.org/2000/svg" xmlns:xlink="http://www.w3.org/1999/xlink" x="0px" y="0px"
	 viewBox="0 0 40 40" style="enable-background:new 0 0 40 40;" xml:space="preserve">
<style type="text/css">
	.st0{fill:#C6C6C6;}
</style>
<path class="st0" d="M20,21.9L20,21.9c-3.8,0-6.9-3.1-6.9-6.9v0c0-3.8,3.1-6.9,6.9-6.9h0c3.8,0,6.9,3.1,6.9,6.9v0
	C26.9,18.8,23.8,21.9,20,21.9z"/>
<path class="st0" d="M28.5,53.8h-17c-3.7,0-6.7-3-6.7-6.7v-8.5c0-8.3,6.8-15.2,15.2-15.2h0c8.3,0,15.2,6.8,15.2,15.2v8.5
	C35.2,50.8,32.2,53.8,28.5,53.8z"/>
</svg>
