<?xml version="1.0" encoding="utf-8"?>
<!-- Generator: Adobe Illustrator 25.2.0, SVG Export Plug-In . SVG Version: 6.00 Build 0)  -->
<svg version="1.1" id="Capa_1" xmlns="http://www.w3.org/2000/svg" xmlns:xlink="http://www.w3.org/1999/xlink" x="0px" y="0px"
	 viewBox="0 0 67 67" style="enable-background:new 0 0 67 67;" xml:space="preserve">
<style type="text/css">
	.st0{fill:#FF9999;stroke:#000000;stroke-width:2;stroke-linecap:round;stroke-linejoin:bevel;}
	.st1{fill:none;stroke:#000000;stroke-width:2;stroke-linecap:round;stroke-linejoin:bevel;stroke-miterlimit:3.5826;}
	.st2{stroke:#000000;}
</style>
<g transform="translate(-122 -7.8769)">
	<text transform="matrix(1 0 0 1 11.542 51.5312)" style="font-family:'Arial-ItalicMT'; font-size:18px;"> </text>
	<g transform="translate(24.246 -2.3731)">
		<circle class="st0" cx="131.2" cy="43.8" r="32.5"/>
		<circle class="st1" cx="131.2" cy="43.7" r="29.1"/>
		<path class="st2" d="M118.4,49l2.3-0.8v-1.7l24.5-0.3c0,3-0.1,5.5-0.4,7.3c-0.3,1.9-0.7,3.2-1.2,4c-0.5,0.8-1.5,1.1-2.8,0.9
			c-1.4-0.2-2.9-0.4-4.7-0.7l-0.2,0.8c3.5,0.7,5.4,1.8,5.6,3.3c1.9-0.5,3.2-1.4,3.9-2.5c0.7-1.1,1.2-2.6,1.5-4.5
			c0.3-1.8,0.4-4.5,0.5-7.9l1.7-1.1l-3-2.5l-1.4,2l-11.4,0.2v-5.2h12l-2.7-2.7l-1.9,1.9h-7.5v-5.2h12L143,32l-1.7,1.7h-7.8v-5.3
			h13.8l-2.8-2.8l-2,2h-21.2l-2.8-1.4c0.1,3.2,0.2,6.8,0.2,10.7C118.5,40.8,118.5,44.9,118.4,49L118.4,49z M117.9,50
			c-0.7,2.7-1.7,4.5-2.9,5.5s-1.6,1.7-1.2,2.4c0.4,0.7,1.1,0.8,2.1,0.5c1-0.4,1.7-1.2,2.2-2.4c0.5-1.2,0.7-3.2,0.5-5.9L117.9,50z
			 M122.1,50.1c1.1,2.4,1.7,4.2,1.8,5.5c0.1,1.3,0.4,1.8,1.2,1.6c0.7-0.3,1.2-0.8,1.3-1.6c0.2-0.8,0-1.6-0.5-2.6
			c-0.5-0.9-1.6-2.1-3.3-3.4L122.1,50.1z M136.5,48.9c1.5,1.7,2.3,3.2,2.7,4.5c0.3,1.3,0.8,1.9,1.3,1.7c0.6-0.2,1-0.6,1.2-1.2
			c0.3-0.7,0.1-1.5-0.5-2.3c-0.6-0.9-2-1.9-4.3-3L136.5,48.9z M120.7,28.4h10.6v5.3h-10.6L120.7,28.4z M120.7,34.5h10.6v5.2h-10.6
			L120.7,34.5z M120.7,40.4h10.6v5.2l-10.6,0.2L120.7,40.4z M129.1,49.3c1.1,1.5,1.9,3,2.2,4.5c0.3,1.6,0.8,2.2,1.5,2
			c0.7-0.2,1.1-0.7,1.2-1.3c0.2-0.7,0-1.5-0.5-2.3c-0.5-0.9-1.8-2-3.9-3.4L129.1,49.3z"/>
	</g>
</g>
</svg>
