<?xml version="1.0" encoding="utf-8"?>
<!-- Generator: Adobe Illustrator 25.2.0, SVG Export Plug-In . SVG Version: 6.00 Build 0)  -->
<svg version="1.1" id="Capa_1" xmlns="http://www.w3.org/2000/svg" xmlns:xlink="http://www.w3.org/1999/xlink" x="0px" y="0px"
	 viewBox="0 0 67 67" style="enable-background:new 0 0 67 67;" xml:space="preserve">
<style type="text/css">
	.st0{fill:#FF9999;stroke:#000000;stroke-width:2;stroke-linecap:round;stroke-linejoin:bevel;}
	.st1{fill:none;stroke:#000000;stroke-width:2;stroke-linecap:round;stroke-linejoin:bevel;stroke-miterlimit:3.5826;}
	.st2{stroke:#000000;}
</style>
<g transform="translate(-169.46 -8.2304)">
	<text transform="matrix(1 0 0 1 11.542 51.5312)" style="font-family:'Arial-ItalicMT'; font-size:18px;"> </text>
	<g transform="translate(71.71 -2.0196)">
		<circle class="st0" cx="131.2" cy="43.8" r="32.5"/>
		<circle class="st1" cx="131.2" cy="43.7" r="29.1"/>
		<path class="st2" d="M133.1,39.1h4.7v7.7h-4.7V39.1z M136.9,26.9l-3.1-1.7c-0.4,2.1-1.2,4.6-2.3,7.7c-1.1,3-2.4,5.9-3.8,8.6
			l0.5,0.5c1-1.2,2.1-2.7,3.1-4.4v20c0,1.9,1.2,2.8,3.6,2.8h9.4c1.2,0,2.3-0.1,3-0.3c0.8-0.2,1.5-0.9,2.1-2c-0.9-0.3-1.5-1-1.8-2
			c-0.3-1-0.4-2.4-0.4-4.1h-0.6c0,1.8-0.1,3.3-0.4,4.7c-0.3,1.4-0.9,2-2,2h-8.6c-1.8,0-2.7-0.7-2.7-2v-9.1h4.8v1.4l2-0.9
			c-0.1-1.6-0.2-4.3-0.2-8.3l1.2-0.9l-1.9-1.9l-1.4,1.4H133l-1.4-1.2l2.3-4.7h10.6v16.2c0,0.6-0.1,1-0.4,1.2
			c-0.3,0.2-2.2,0.1-5.7-0.3v0.6c1.6,0.4,2.6,0.8,3.2,1.2c0.6,0.4,1,1.1,1.3,2c1.6-0.5,2.6-1.1,3-1.8c0.4-0.7,0.6-1.5,0.6-2.6V33.3
			l1.4-0.9l-2.2-2.2l-1.4,1.4h-10.2C135.5,28.9,136.3,27.3,136.9,26.9L136.9,26.9z M119.4,39.4h5.3v13.4h-5.3V39.4z M117.3,59.1
			l2-0.9v-4.5h5.3v2.8l2-1.2c-0.1-2.2-0.2-7.2-0.2-15.2l1.4-0.8l-2-2l-1.4,1.4h-5.2c0.8-2.7,1.6-5.8,2.3-9.4h7.3l-2.5-2.5l-1.7,1.7
			h-11.7l1.2,1.2c0.9-0.3,2-0.5,3.1-0.5h2c-0.7,4.2-1.6,7.8-2.7,10.9c-1,3.1-2.5,6.1-4.4,9.1l0.3,0.3c1.4-1.2,2.9-3.3,4.7-6.2
			C117.5,52,117.4,57.3,117.3,59.1L117.3,59.1z"/>
	</g>
</g>
</svg>
