<?xml version="1.0" encoding="utf-8"?>
<!-- Generator: Adobe Illustrator 25.2.0, SVG Export Plug-In . SVG Version: 6.00 Build 0)  -->
<svg version="1.1" id="Capa_1" xmlns="http://www.w3.org/2000/svg" xmlns:xlink="http://www.w3.org/1999/xlink" x="0px" y="0px"
	 viewBox="0 0 67 67" style="enable-background:new 0 0 67 67;" xml:space="preserve">
<style type="text/css">
	.st0{fill:#FF9999;stroke:#000000;stroke-width:2;stroke-linecap:round;stroke-linejoin:bevel;}
	.st1{fill:none;stroke:#CC0000;stroke-width:2;stroke-linecap:round;stroke-linejoin:bevel;stroke-miterlimit:3.5826;}
	.st2{fill:#CC0000;stroke:#CC0000;}
</style>
<g transform="translate(-31.46 -8.2304)">
	<text transform="matrix(1 0 0 1 11.542 51.5312)" style="font-family:'Arial-ItalicMT'; font-size:18px;"> </text>
	<g transform="translate(9.7104 -2.0196)">
		<circle class="st0" cx="55.2" cy="43.8" r="32.5"/>
		<circle class="st1" cx="55.2" cy="43.7" r="29.1"/>
		<path class="st2" d="M59.9,48.6v0.6c3.4,0.7,5.1,1.9,5,3.4c0.9-0.2,1.9-0.8,2.9-1.6c1-0.9,1.5-2.4,1.6-4.6
			c0.1-2.2,0.2-6.9,0.3-14.1l1.2-1.1l-2.8-2.2l-1.1,1.7H56.7c0.7-2.1,1.2-3.4,1.6-3.9l1.1-0.8l-3.6-1.7c-0.2,1.9-0.8,4.5-1.9,7.7
			c-1,3.3-2.6,6.6-4.5,10.1l0.5,0.3c1.1-1.1,2.3-2.7,3.6-4.7v18.8c0,2.1,1.1,3.1,3.3,3.1h12.5c2.2,0,3.6-0.8,4.4-2.3
			c-0.7-0.2-1.2-0.7-1.6-1.5c-0.3-0.8-0.4-2.3-0.3-4.5h-0.8c-0.1,1.6-0.3,3-0.5,4.4c-0.2,1.4-0.7,2-1.6,2H57.3
			c-1.1,0-1.8-0.6-1.9-1.9v-9.4h5.9v1.1l2.2-0.9v-7.7l1.4-0.9l-2.7-2.3l-1.4,1.7h-5.3L54,36.6c0.9-1.8,1.7-3.4,2.3-5h11.1
			c0,9.5-0.1,14.7-0.4,15.7c-0.3,1-0.8,1.5-1.6,1.6C64.6,48.9,62.8,48.8,59.9,48.6L59.9,48.6z M55.4,38.3h5.9v7.5h-5.9V38.3z
			 M43.7,24.7c0.1,5.9,0.2,11.1,0.2,15.5c0,4.4-0.4,8.2-1.3,11.2c-0.9,3-2.7,6.1-5.4,9.2l0.3,0.5c4.4-3.5,7.1-7.8,8.1-12.8
			c1.9,1.9,3.1,3.5,3.7,4.8c0.6,1.3,1,2,1.4,2.1c0.4,0.1,0.7-0.4,0.9-1.5c0.3-1.1-0.1-2.1-0.9-3c-0.9-0.9-2.5-2-4.9-3.1
			c0.2-3.4,0.3-6.3,0.3-8.6c1.5-1.4,2.6-2.5,3.5-3.4c0.9-0.9,1.7-1.4,2.4-1.6l-2.2-2.7c-0.6,1.8-1.9,3.9-3.8,6.4V27.5l1.2-1.2
			L43.7,24.7z M40.6,35h-0.6c-0.4,2.4-1,4.1-1.8,5.2c-0.8,1.1-0.9,1.8-0.5,2.1c0.5,0.3,1.1,0.3,1.8,0.1c0.7-0.3,1.2-0.9,1.4-2
			C41.1,39.4,41,37.6,40.6,35L40.6,35z"/>
	</g>
</g>
</svg>
