<?xml version="1.0" encoding="utf-8"?>
<!-- Generator: Adobe Illustrator 25.2.0, SVG Export Plug-In . SVG Version: 6.00 Build 0)  -->
<svg version="1.1" id="Capa_1" xmlns="http://www.w3.org/2000/svg" xmlns:xlink="http://www.w3.org/1999/xlink" x="0px" y="0px"
	 viewBox="0 0 67 67" style="enable-background:new 0 0 67 67;" xml:space="preserve">
<style type="text/css">
	.st0{font-family:'Arial-ItalicMT';}
	.st1{font-size:18px;}
	.st2{fill:#FF9999;stroke:#000000;stroke-width:2;stroke-linecap:round;stroke-linejoin:bevel;}
	.st3{fill:none;stroke:#CC0000;stroke-width:2;stroke-linecap:round;stroke-linejoin:bevel;stroke-miterlimit:3.5826;}
	.st4{fill:#CC0000;stroke:#CC0000;}
</style>
<g transform="translate(-2.0625 -10.25)">
	<text transform="matrix(1 0 0 1 11.542 51.5312)" class="st0 st1"> </text>
	<g transform="translate(-19.687)">
		<circle class="st2" cx="55.2" cy="43.8" r="32.5"/>
		<circle class="st3" cx="55.2" cy="43.7" r="29.1"/>
		<path class="st4" d="M58.4,47.2h10v8.9h-10V47.2z M56.2,60.8l2.2-0.9v-3h10v3.6l2.3-1.1c-0.1-2.5-0.2-12-0.2-28.6l1.4-1.1
			l-2.2-2.2L68,29.2h-9.5l-2.3-1.6c0.1,2.4,0.2,7.8,0.2,16.3C56.3,52.3,56.3,57.9,56.2,60.8L56.2,60.8z M58.4,30h10v8h-10V30z
			 M58.4,38.7h10v7.7h-10V38.7z M45.5,35.1h-7.8l1.2,1.2c0.9-0.3,2-0.5,3.1-0.5h3.1c-1,5.2-3.9,11-8.4,17.3l0.5,0.5
			c3.4-3.2,6.2-7,8.3-11.4c0,5.9-0.1,12.1-0.2,18.6l2.3-1.1c-0.1-2.6-0.2-9.1-0.2-19.5c1.5,0.9,2.5,2.3,3,4c0.6,1.7,1.2,2,1.9,0.8
			c0.7-1.2,0.6-2.2-0.3-3c-0.9-0.8-2.4-1.6-4.6-2.4v-3.8h8l-2.7-2.5L51,35.1h-3.4v-7.7l1.4-1.1L45.4,25C45.5,27.6,45.5,31,45.5,35.1
			L45.5,35.1z"/>
	</g>
</g>
</svg>
