<?xml version="1.0" encoding="utf-8"?>
<!-- Generator: Adobe Illustrator 25.2.0, SVG Export Plug-In . SVG Version: 6.00 Build 0)  -->
<svg version="1.1" id="Capa_1" xmlns="http://www.w3.org/2000/svg" xmlns:xlink="http://www.w3.org/1999/xlink" x="0px" y="0px"
	 viewBox="0 0 67 67" style="enable-background:new 0 0 67 67;" xml:space="preserve">
<style type="text/css">
	.st0{fill:#FF9999;stroke:#000000;stroke-width:2;stroke-linecap:round;stroke-linejoin:bevel;}
	.st1{fill:none;stroke:#000000;stroke-width:2;stroke-linecap:round;stroke-linejoin:bevel;stroke-miterlimit:3.5826;}
	.st2{stroke:#000000;}
</style>
<g transform="translate(-140.06 -10.25)">
	<g transform="translate(42.313)">
		<circle class="st0" cx="131.2" cy="43.8" r="32.5"/>
		<circle class="st1" cx="131.2" cy="43.7" r="29.1"/>
		<path class="st2" d="M137.6,46.5c0.4,2.3,1.4,4.3,3,6.1c1.6,1.8,3.8,3.2,6.6,4.4c0.3-1,1.4-1.7,3.3-1.9v-0.5
			c-2.8-0.3-5.3-1.1-7.6-2.5c-2.2-1.4-3.8-3.3-4.8-5.9c3.8-1.7,6.2-2.5,7.3-2.5l-2.2-2.7c-0.5,0.6-1.6,1.5-3.1,2.6
			c-1.6,1.1-3.2,2.1-5,2.9c-1.4-1.5-3.3-2.8-5.8-3.9c1-1.1,1.8-2.2,2.3-3.1h10.3v1.1l2.2-0.8c-0.1-1.5-0.2-3-0.2-4.7l1.4-1.1l-2.5-2
			l-1.4,1.6h-8.1c2-1.8,3.5-2.9,4.5-3.4c1-0.5,1.9-0.8,2.7-0.9l-2.8-2.7l-1.7,1.9h-9.2c1-1,2-1.6,2.8-1.7l-3.1-2.2
			c-0.6,1.5-2.1,3.3-4.5,5.6c-2.3,2.3-5.1,4.4-8.4,6.2L114,37c2.4-0.7,4.5-1.7,6.4-3c0,2.8-0.1,5.4-0.2,7.7l2.2-0.8v-1.4h6.9
			c-2.3,3.9-7,7.1-14.1,9.7l0.2,0.5c5.1-1.1,9.6-3.3,13.6-6.4c0.6,0.3,1.1,0.7,1.6,1.1c-2.7,3.3-7.2,6.2-13.4,8.6l0.2,0.5
			c5.8-1.4,10.7-3.9,14.7-7.7c0.4,0.3,0.9,0.8,1.4,1.6c-4,5-10.4,8.7-19.2,11.1V59c8.3-1.4,15.1-4.6,20.3-9.8
			c0.4,1.1,0.6,2.3,0.6,3.6c0,1.2-0.2,2.3-0.7,3.2c-0.5,0.9-1,1.5-1.7,1.8s-2.8,0.3-6.3-0.2v0.6c2.9,0.7,4.5,1.8,4.7,3.1
			c2.1-0.5,3.6-1.4,4.7-2.7c1-1.2,1.7-2.8,1.9-4.6c0.2-1.8-0.4-4.1-1.9-6.8C136.1,47.1,136.7,46.8,137.6,46.5L137.6,46.5z
			 M132.4,33.5h-9.7l-0.8-0.8c1.4-1.1,2.8-2.3,4.2-3.6h9.7L132.4,33.5z M122.4,34.3h8.8c-0.3,1.7-0.8,3.1-1.4,4.4h-7.3L122.4,34.3z
			 M133.5,34.3h8.6v4.4h-10C132.7,37.2,133.2,35.8,133.5,34.3z"/>
	</g>
</g>
</svg>
