<?xml version="1.0" encoding="utf-8"?>
<!-- Generator: Adobe Illustrator 25.2.0, SVG Export Plug-In . SVG Version: 6.00 Build 0)  -->
<svg version="1.1" id="Capa_1" xmlns="http://www.w3.org/2000/svg" xmlns:xlink="http://www.w3.org/1999/xlink" x="0px" y="0px"
	 viewBox="0 0 67 67" style="enable-background:new 0 0 67 67;" xml:space="preserve">
<style type="text/css">
	.st0{fill:#FF9999;stroke:#000000;stroke-width:2;stroke-linecap:round;stroke-linejoin:bevel;}
	.st1{fill:none;stroke:#000000;stroke-width:2;stroke-linecap:round;stroke-linejoin:bevel;stroke-miterlimit:3.5826;}
	.st2{stroke:#000000;}
</style>
<g transform="translate(-113.44 -9.75)">
	<text transform="matrix(1 0 0 1 11.542 51.5312)" style="font-family:'Arial-ItalicMT'; font-size:18px;"> </text>
	<g transform="translate(15.688 -.5)">
		<g>
			<circle class="st0" cx="131.2" cy="43.8" r="32.5"/>
			<circle class="st1" cx="131.2" cy="43.7" r="29.1"/>
		</g>
		<path class="st2" d="M124.1,37.3h-5.3v-6.6l0.9-1.1l-3.1-1.2c0.1,1.5,0.2,4.3,0.2,8.6l-0.9,0.8l2,1.7l0.9-1.4h5.3v6.6h-9.2
			l1.2,1.2c0.9-0.3,1.8-0.5,2.7-0.5c0.1,3.6-0.1,6.5-0.6,8.5c-0.5,2-1.9,4.3-4.1,7l0.3,0.5c3-2.4,4.9-4.7,5.5-6.8
			c0.7-2.1,1-5.2,1-9.1h3.1c0,9-0.1,14.4-0.2,16.2l2.3-1.1c-0.1-1.8-0.2-3-0.2-3.7c0-0.7,0-10.2,0-28.5l1.4-1.2l-3.6-1.6
			C124,27.4,124.1,31.3,124.1,37.3L124.1,37.3z M138.7,28.4l1.2-0.6l-3-2.2c-1.2,3-2.7,5.5-4.5,7.5c-1.7,2-3.5,3.6-5.4,5l0.3,0.5
			c1.8-0.9,3.4-2,4.8-3.2c1.5-1.2,2.9-2.6,4.4-4.1h8.9c-2,3.2-4.5,6.1-7.5,8.6c-3,2.5-6.9,4.4-11.6,5.8l0.2,0.5
			c4.5-0.7,8.3-2.2,11.5-4.4c3.2-2.2,5.6-4.3,7.2-6.3c1.6-2,3-3.2,4.1-3.4l-2.5-3l-1.6,1.4h-8.3C137.7,29.8,138.2,29.1,138.7,28.4
			L138.7,28.4z M142.5,46.3h-15.6l1.2,1.2c0.9-0.3,2-0.5,3.1-0.5h11.2v9.5c0,0.8-0.4,1.3-1.3,1.3c-0.9,0.1-2.9-0.1-6-0.5v0.8
			c3.6,0.8,5.5,2.1,5.6,3.8c2.6-0.7,3.9-2.3,3.8-4.7V47.1h6.4l-2.5-2.7l-1.9,1.9h-2V43l1.2-1.1l-3.4-1.6
			C142.4,41.7,142.5,43.7,142.5,46.3L142.5,46.3z M131.2,48.7l-0.5,0.3c1.1,2.1,1.8,3.9,2.1,5.5c0.3,1.6,0.7,2,1.4,1.4
			c0.7-0.6,1-1.3,1.1-2c0.1-0.7-0.2-1.5-0.8-2.2C134,50.9,132.9,49.9,131.2,48.7L131.2,48.7z M135.2,32.9l-0.5,0.3
			c1.5,1.5,2.4,2.7,2.8,3.8c0.4,1,0.9,1.3,1.3,0.9c0.5-0.5,0.7-1.1,0.7-1.8c0-0.7-0.3-1.3-0.9-1.6C138,34,136.8,33.5,135.2,32.9
			L135.2,32.9z M131.6,35.9l-0.5,0.3c1.1,1.2,1.9,2.4,2.3,3.5c0.4,1.1,0.8,1.4,1.2,0.9c0.5-0.5,0.7-1,0.8-1.6
			c0.1-0.6-0.2-1.2-0.9-1.6C133.9,36.9,132.9,36.4,131.6,35.9L131.6,35.9z"/>
	</g>
</g>
</svg>
