<?xml version="1.0" encoding="utf-8"?>
<!-- Generator: Adobe Illustrator 25.2.0, SVG Export Plug-In . SVG Version: 6.00 Build 0)  -->
<svg version="1.1" id="Capa_1" xmlns="http://www.w3.org/2000/svg" xmlns:xlink="http://www.w3.org/1999/xlink" x="0px" y="0px"
	 viewBox="0 0 67 67" style="enable-background:new 0 0 67 67;" xml:space="preserve">
<style type="text/css">
	.st0{fill:#FF9999;stroke:#000000;stroke-width:2;stroke-linecap:round;stroke-linejoin:bevel;}
	.st1{fill:none;stroke:#000000;stroke-width:2;stroke-linecap:round;stroke-linejoin:bevel;stroke-miterlimit:3.5826;}
	.st2{stroke:#000000;}
</style>
<g transform="translate(-148.69 -10.75)">
	<g transform="translate(50.938 .5)">
		<circle class="st0" cx="131.2" cy="43.8" r="32.5"/>
		<circle class="st1" cx="131.2" cy="43.7" r="29.1"/>
		<path class="st2" d="M129.8,31v9.2h-16.4l1.2,1.2c0.9-0.3,2-0.5,3.1-0.5h12v16.4h-13.6l1.2,1.2c0.9-0.3,2-0.5,3.1-0.5h25.8
			l-3.1-3.1l-2.2,2.3h-8.9V41h16.9l-3-3.1l-2.3,2.3h-11.6V28.7l1.2-1.1l-3.8-1.7C129.8,28,129.8,29.8,129.8,31L129.8,31z"/>
	</g>
</g>
</svg>
