<?xml version="1.0" encoding="utf-8"?>
<!-- Generator: Adobe Illustrator 25.2.0, SVG Export Plug-In . SVG Version: 6.00 Build 0)  -->
<svg version="1.1" id="Capa_1" xmlns="http://www.w3.org/2000/svg" xmlns:xlink="http://www.w3.org/1999/xlink" x="0px" y="0px"
	 viewBox="0 0 67 67" style="enable-background:new 0 0 67 67;" xml:space="preserve">
<style type="text/css">
	.st0{fill:#FF9999;stroke:#000000;stroke-width:2;stroke-linecap:round;stroke-linejoin:bevel;}
	.st1{fill:none;stroke:#000000;stroke-width:2;stroke-linecap:round;stroke-linejoin:bevel;stroke-miterlimit:3.5826;}
	.st2{stroke:#000000;}
</style>
<g transform="translate(-137.11 -6.4627)">
	<g transform="translate(39.36 -3.7873)">
		<circle class="st0" cx="131.2" cy="43.8" r="32.5"/>
		<circle class="st1" cx="131.2" cy="43.7" r="29.1"/>
		<path class="st2" d="M123.6,31.1c-0.3,1.7-1.1,3.9-2.4,6.6s-3,5.3-5.2,7.6l0.5,0.3c2.5-1.7,4.9-4.5,7.3-8.6
			c1.7,1.8,2.7,3.4,3.2,4.8c0.5,1.4,1,1.6,1.6,0.5c0.6-1.1,0.6-2,0-2.7c-0.6-0.7-2.1-1.8-4.5-3.1c0.5-0.9,0.9-1.6,1.2-2.1
			c0.3-0.5,0.8-0.9,1.6-1.3L123.6,31.1z M139.5,33.1l-3.1-2c-0.6,2.2-1.6,4.4-2.9,6.7c-1.3,2.3-3.2,4.7-5.7,7.3l0.5,0.3
			c0.6-0.4,1.2-0.9,1.9-1.4v3.8h-16.9l1.2,1.2c0.9-0.3,2-0.5,3.1-0.5h12.5V57c0,0.6-0.1,2-0.2,4.2l2.5-0.9c-0.1-2-0.2-3.3-0.2-3.9
			v-7.8h16.9l-2.8-3.1l-2.3,2.3h-11.7v-1.6l1.4-1.1l-3.3-1.4c2.2-2.1,4.1-4.2,5.6-6.2c1.4,1.2,2.4,2.4,3.3,3.6
			c0.8,1.1,1.5,2.2,1.9,3.1c0.4,0.9,1,0.8,1.6-0.3c0.7-1.1,0.4-2.2-0.7-3.3c-1.1-1-3.1-2.3-5.8-3.8c0.4-0.6,0.9-1.3,1.3-2
			C138.2,34.1,138.8,33.6,139.5,33.1L139.5,33.1z M128.9,24.5l-0.5,0.5c1.2,1.7,1.9,3.3,2,4.8H115l1.2,1.2c0.9-0.3,2-0.5,3.1-0.5
			h26.9l-3-3.1l-2.3,2.3h-9.4c0.9-0.8,1.2-1.7,0.9-2.5C132.2,26.5,131,25.6,128.9,24.5L128.9,24.5z"/>
	</g>
</g>
</svg>
