<?xml version="1.0" encoding="utf-8"?>
<!-- Generator: Adobe Illustrator 25.2.0, SVG Export Plug-In . SVG Version: 6.00 Build 0)  -->
<svg version="1.1" id="Capa_1" xmlns="http://www.w3.org/2000/svg" xmlns:xlink="http://www.w3.org/1999/xlink" x="0px" y="0px"
	 viewBox="0 0 67 67" style="enable-background:new 0 0 67 67;" xml:space="preserve">
<style type="text/css">
	.st0{font-family:'Arial-ItalicMT';}
	.st1{font-size:18px;}
	.st2{fill:#FF9999;stroke:#000000;stroke-width:2;stroke-linecap:round;stroke-linejoin:bevel;}
	.st3{fill:none;stroke:#CC0000;stroke-width:2;stroke-linecap:round;stroke-linejoin:bevel;stroke-miterlimit:3.5826;}
	.st4{fill:#CC0000;stroke:#CC0000;}
</style>
<g transform="translate(.88978 -6.4627)">
	<text transform="matrix(1 0 0 1 11.542 51.5312)" class="st0 st1"> </text>
	<g transform="translate(-22.64 -3.7873)">
		<circle class="st2" cx="55.2" cy="43.8" r="32.5"/>
		<circle class="st3" cx="55.2" cy="43.7" r="29.1"/>
		<path class="st4" d="M45.5,46.7H37l1.2,1.2c0.9-0.3,2-0.5,3.1-0.5h32l-2.8-2.8l-2,2h-7.2V37h9.2l-2.8-2.8l-2,2H47.7v-6.9
			c3-0.2,6.5-0.5,10.3-0.9c3.9-0.4,6.7-0.6,8.4-0.7l-2.3-3c-1.8,0.9-4,1.7-6.6,2.3c-2.7,0.6-5.9,1.1-9.6,1.5L45.3,27
			c0.1,3.2,0.2,6.2,0.2,9.1L45.5,46.7z M49.9,49.2c-0.8,1.1-2.2,2.5-4.1,4.1c-1.9,1.6-4.8,3.6-8.7,5.9l0.2,0.6c4.5-2,9-4.5,13.6-7.5
			l1.9-0.2L49.9,49.2z M58.6,49.2l-0.3,0.6c2.2,1.5,4,2.8,5.4,4.1c1.4,1.2,2.7,2.7,4,4.3c1.2,1.6,2.1,1.4,2.7-0.7
			C70.8,55.4,66.9,52.7,58.6,49.2L58.6,49.2z M47.7,37h11.6v9.7H47.7V37z"/>
	</g>
</g>
</svg>
