<?xml version="1.0" encoding="utf-8"?>
<!-- Generator: Adobe Illustrator 25.2.0, SVG Export Plug-In . SVG Version: 6.00 Build 0)  -->
<svg version="1.1" id="Capa_1" xmlns="http://www.w3.org/2000/svg" xmlns:xlink="http://www.w3.org/1999/xlink" x="0px" y="0px"
	 viewBox="0 0 67 67" style="enable-background:new 0 0 67 67;" xml:space="preserve">
<style type="text/css">
	.st0{font-family:'Arial-ItalicMT';}
	.st1{font-size:18px;}
	.st2{fill:#FF9999;stroke:#000000;stroke-width:2;stroke-linecap:round;stroke-linejoin:bevel;}
	.st3{fill:none;stroke:#CC0000;stroke-width:2;stroke-linecap:round;stroke-linejoin:bevel;stroke-miterlimit:3.5826;}
	.st4{fill:#CC0000;stroke:#CC0000;}
</style>
<g transform="translate(16.004 -7.8769)">
	<text transform="matrix(1 0 0 1 11.542 51.5312)" class="st0 st1"> </text>
	<g transform="translate(-37.754 -2.3731)">
		<circle class="st2" cx="55.2" cy="43.8" r="32.5"/>
		<circle class="st3" cx="55.2" cy="43.7" r="29.1"/>
		<path class="st4" d="M49.9,32.6V44c0,1.2-0.1,2.9-0.2,5l2.2-0.5v-0.8l16.9-0.3c-0.8,6-1.4,9.5-1.8,10.3c-0.4,0.8-0.9,1.2-1.6,1.2
			c-0.7-0.1-2.5-0.4-5.3-1v0.6c1.7,0.6,2.8,1.1,3.3,1.6c0.5,0.4,0.9,1.1,1.3,2c1.8-0.4,3-1.2,3.8-2.3c0.8-1.1,1.6-5,2.4-11.6
			l1.4-0.9l-2.5-2.2l-1.4,1.6l-7.7,0.2v-5.5h9.1l-2.8-2.7L65,40.5h-4.4v-5.3h9.2l-2.7-2.7l-1.9,1.9h-4.7v-5.2h10.2l-2.8-3l-2.2,2.2
			H52.1l-2.3-1.2C49.8,29.5,49.9,31.2,49.9,32.6L49.9,32.6z M48.6,51c-1,2.6-2,4.3-2.9,5.1c-0.9,0.8-1.1,1.4-0.8,1.7
			c0.4,0.4,1,0.5,1.8,0.3c0.8-0.2,1.4-0.8,1.8-1.8c0.4-1,0.6-2.8,0.7-5.2L48.6,51z M51.9,51.2c0.7,2.6,1.1,4.5,1.1,5.7
			c0,1.2,0.4,1.6,1.1,1.2c0.7-0.4,1.1-1,1.2-1.9c0.1-0.9-0.8-2.7-2.8-5.4L51.9,51.2z M56.4,50.5c1.2,2.5,2,4.3,2.1,5.5
			c0.2,1.1,0.6,1.4,1.3,0.9c0.7-0.6,1-1.4,0.8-2.4c-0.2-1-1.5-2.4-3.9-4.2L56.4,50.5z M61.7,49.6c1.2,2.4,2,4.2,2.3,5.4
			c0.3,1.2,0.7,1.4,1.4,0.6c0.7-0.8,0.8-1.6,0.5-2.4c-0.4-0.8-1.6-2.1-3.7-3.9L61.7,49.6z M51.9,29.3h6.7v5.2h-6.7V29.3z M51.9,35.2
			h6.7v5.3h-6.7V35.2z M51.9,41.3h6.7v5.5L51.9,47V41.3z M43.6,55.5V37.9l1.2-0.6L43.2,36c1.8-3.8,3-6.2,3.6-7.5l1.6-0.9l-3.4-2.2
			c-0.8,3-2,6.3-3.4,9.8c-1.5,3.5-3.2,6.7-5.2,9.6l0.5,0.3c2-2.2,3.6-4.3,4.8-6.2v14.8c0,2.3-0.1,5-0.2,8.1l2.3-1.2
			C43.7,58.9,43.6,57.2,43.6,55.5L43.6,55.5z"/>
	</g>
</g>
</svg>
