<?xml version="1.0" encoding="utf-8"?>
<!-- Generator: Adobe Illustrator 25.2.0, SVG Export Plug-In . SVG Version: 6.00 Build 0)  -->
<svg version="1.1" id="Capa_1" xmlns="http://www.w3.org/2000/svg" xmlns:xlink="http://www.w3.org/1999/xlink" x="0px" y="0px"
	 viewBox="0 0 67 67" style="enable-background:new 0 0 67 67;" xml:space="preserve">
<style type="text/css">
	.st0{fill:#FF9999;stroke:#FF9999;stroke-width:2;stroke-linecap:round;stroke-linejoin:bevel;}
	.st1{stroke:#000000;}
</style>
<g transform="translate(-78.687 -11.518)">
	<text transform="matrix(1 0 0 1 11.542 51.5312)" style="font-family:'Arial-ItalicMT'; font-size:18px;"> </text>
	<g transform="translate(-19.063 1.2678)">
		<g>
			<circle class="st0" cx="131.2" cy="43.8" r="32.5"/>
		</g>
		<path class="st1" d="M120.8,36.7h8.9v5.2h-8.9C120.8,41.9,120.8,36.7,120.8,36.7z M131.7,36.7h9.2v5.2h-9.2V36.7z M120.8,42.7h8.9
			v4.7h-8.9C120.8,47.4,120.8,42.7,120.8,42.7z M131.7,42.7h9.2v4.7h-9.2V42.7z M118.7,42.6c0,3.6-0.1,6.3-0.2,8.2l2.2-1.1v-1.6h8.9
			v5.2h-17l1.2,1.2c0.9-0.3,2-0.5,3.1-0.5h12.7c0,3.8-0.1,6.5-0.2,8.1l2.3-0.8c-0.1-2.6-0.2-5.1-0.2-7.3h18.1l-3.3-3.1l-2.5,2.3
			h-12.3V48h9.2v2l2.2-0.9c-0.1-1.8-0.2-5.7-0.2-11.7l1.6-0.9l-2.3-2.3l-1.7,1.7h-8.8v-4.1h15.9l-2.8-2.8l-2.2,2h-10.9v-3l1.9-1.4
			l-4.1-1.2c0.1,2,0.2,3.9,0.2,5.8h-15l1.2,1.2c0.9-0.3,2-0.5,3.1-0.5h10.6V36h-8.6l-2.5-1.4C118.7,36.3,118.7,39,118.7,42.6
			L118.7,42.6z"/>
	</g>
</g>
</svg>
