<?xml version="1.0" encoding="utf-8"?>
<!-- Generator: Adobe Illustrator 25.2.0, SVG Export Plug-In . SVG Version: 6.00 Build 0)  -->
<svg version="1.1" id="Capa_1" xmlns="http://www.w3.org/2000/svg" xmlns:xlink="http://www.w3.org/1999/xlink" x="0px" y="0px"
	 viewBox="0 0 67 67" style="enable-background:new 0 0 67 67;" xml:space="preserve">
<style type="text/css">
	.st0{fill:#FF9999;stroke:#000000;stroke-width:2;stroke-linecap:round;stroke-linejoin:bevel;}
	.st1{fill:none;stroke:#000000;stroke-width:2;stroke-linecap:round;stroke-linejoin:bevel;stroke-miterlimit:3.5826;}
	.st2{fill:#FFCC99;stroke:#000000;stroke-width:2;stroke-linecap:round;stroke-linejoin:round;}
</style>
<g transform="translate(-206.11 -6.4627)">
	<g transform="translate(30.418)">
		<g>
			<circle class="st0" cx="209.2" cy="40" r="32.5"/>
			<circle class="st1" cx="209.2" cy="40" r="29.1"/>
		</g>
		<path class="st2" d="M225.6,59.4c-1.1-4.8-4.3-8.8-8.6-11.1c2.7-2.3,4.5-5.7,4.5-9.5c0-5.4-3.5-10-8.4-11.6
			c0.4-0.7,0.6-1.4,0.6-2.2c0-2.5-2-4.5-4.5-4.5s-4.5,2-4.5,4.5c0,0.8,0.3,1.5,0.6,2.2c-4.9,1.6-8.4,6.2-8.4,11.6
			c0,3.8,1.7,7.2,4.5,9.5c-4.3,2.2-7.4,6.3-8.6,11.1H225.6z"/>
	</g>
</g>
</svg>
