<?xml version="1.0" encoding="utf-8"?>
<!-- Generator: Adobe Illustrator 25.2.0, SVG Export Plug-In . SVG Version: 6.00 Build 0)  -->
<svg version="1.1" id="Capa_1" xmlns="http://www.w3.org/2000/svg" xmlns:xlink="http://www.w3.org/1999/xlink" x="0px" y="0px"
	 viewBox="0 0 1200 1200" style="enable-background:new 0 0 1200 1200;" xml:space="preserve">
<style type="text/css">
	.st0{fill:none;stroke:#000000;stroke-width:7;}
	.st1{stroke:#000000;stroke-width:0.75;}
	.st2{stroke:#000000;stroke-width:7;}
	.st3{fill:none;stroke:#000000;stroke-width:4;}
</style>
<g>
	<rect x="173.7" y="136" class="st0" width="832.2" height="929"/>
	<rect x="188.3" y="150" class="st0" width="800" height="900"/>
</g>
<g transform="scale(0.267)">
	<g transform="translate(0,-2097) rotate(180)">
		<path d="M-706.4-2231.2c10-9,20-12,41-13h14v-8v-7h-20c-11,0-20,0-21-1c-3-2-3-4-3-91c0-55,0-87,1-89c2-5,4-5,25-6h19v-8v-7h-58
			h-58v7v8h18c10,0,20,0,22,1c6,2,5-5,6,111v106h5C-711.4-2228.2-710.4-2229.2-706.4-2231.2"/>
		<path d="M-1065.4-2230c33-7,52-31,51-64c-1-16-6-23-17-24c-10-1-16,5-16,13c0,6,3,10,9,13c8,4,8,3,7,11c0,6,0,7-3,12
			c-4,8-10,12-18,16s-17,6-28,6c-15,0-25-4-35-14c-4-4-6-7-8-12c-5-14-3-27,4-42c6-11,13-19,38-37c29-22,47-41,57-58
			c7-13,13-35,13-47v-4h-70h-69v2c0,1-1,14-2,27c-1,14-2,27-2,28c0,2,0,2,6,2c4,0,7,0,7,0c0-2,6-28,7-30c2-5,4-5,55-5h47v3
			c-1,5-5,15-9,22c-2,3-9,11-16,18c-11,12-15,14-39,30c-36,25-47,36-54,56c-2,7-2,10-2,21s0,13,2,20c8,19,21,30,42,36
			C-1096.4-2228-1076.4-2227-1065.4-2230"/>
		<path d="M-1439.5-2228.6c13-3,27-10,34-18c8-10,12-23,10-34c-1-3-2-8-3-9c-2-6-11-11-17-11c-3,0-10,4-11,7c-1,1-2,5-2,7
			c0,6,3,10,10,13c5,2,5,2,5,7c0,9-8,17-20,21c-9,2-30,2-37-1c-16-6-23-18-22-41c1-10,1-12,3-17c7-15,24-24,43-24h5v-8v-8h-11
			c-6-1-13-2-16-2c-13-4-23-12-27-22c-4-12-5-32-1-46c3-11,14-23,27-28c7-3,22-4,31-2c16,3,30,15,30,27c0,3-1,3-5,6c-3,2-7,5-8,7
			c-5,10,6,21,18,19c9-2,14-9,15-21c1-19-11-37-31-47c-12-6-26-8-41-7c-21,2-36,9-48,21c-13,13-18,26-18,45c0,12,2,19,6,29
			c4,9,16,20,26,26l8,4l-6,3c-30,19-37,60-15,85c9,9,21,15,36,18C-1462.5-2227.6-1448.5-2227.6-1439.5-2228.6"/>
		<path d="M-1805.4-2310.2l53-83v-6v-7h-50h-49v-16c0-12,1-17,2-19c3-4,8-5,20-5h11v-8v-7h-43h-43v7v8h10c12,1,15,2,17,7
			c1,1,1,9,1,18v15h-17h-17v7v8h17h17v81v82h9h8L-1805.4-2310.2 M-1851.4-2330.2v-61h40h41l-40,61c-22,34-40,62-41,62
			C-1851.4-2268.2-1851.4-2296.2-1851.4-2330.2"/>
		<path d="M-2147.3-2228.8c0,0,1-28,2-62l1-61h-8h-9l-3,6c-4,7-10,13-19,17c-5,3-7,3-16,4c-21,1-34-6-42-22c-5-11-8-30-6-46
			c2-19,6-28,16-38s18-13,34-13c20,0,33,6,37,15c2,5,1,7-3,12c-5,6-6,10-3,15c2,5,6,8,10,8c6,1,9,0,12-3c12-10,8-35-8-50
			c-6-5-17-10-25-13c-10-2-34-2-44,1c-26,7-43,24-51,51c-3,12-4,32-2,44c6,27,24,48,48,55c8,2,25,2,35,0c9-2,18-7,26-14l6-5v38
			l-1,37h-53h-52l-3,12l-3,12h62C-2175.3-2228.8-2147.3-2228.8-2147.3-2228.8"/>
		<path d="M-2573.4-2228.8c12-3,20-8,31-18c10-10,14-18,20-36c7-22,11-61,8-96c-1-16-3-24-7-36c-5-13-9-19-19-29c-12-13-24-17-43-17
			c-18,0-31,5-44,16c-17,14-27,37-27,63c0,23,6,39,19,52c12,11,26,16,45,16c16,0,29-4,43-13c3-2,6-4,6-4c1,0-1,25-4,36
			c-6,33-18,49-40,51c-7,1-18,0-24-3c-5-2-13-10-13-12c0-1,2-4,3-7c7-9,8-16,2-21c-3-4-6-5-11-5s-9,2-12,6c-6,6-7,18-2,29
			s19,22,33,26C-2600.4-2227.8-2582.4-2227.8-2573.4-2228.8 M-2602.4-2333.8c-19-7-27-27-24-58c2-22,7-35,17-44c7-7,14-9,26-9
			c8,0,10,0,15,2c6,3,12,9,17,17c7,12,9,27,11,57v18l-7,5c-9,7-21,13-29,14C-2583.4-2330.8-2597.4-2331.8-2602.4-2333.8"/>
		<path d="M-2882.4-2229.2c0-1,1-14,2-30c1-15,2-29,2-30v-3h-7h-8v5c0,11-2,24-4,28c-3,7-2,7-59,7h-50l4-4c11-12,31-42,42-64
			c18-36,27-74,27-113c0-15-1-20-5-25c-3-2-5-3-8-3c-7,0-11,2-13,7c-2,4-2,6-3,35c-1,24-1,35-3,44c-4,25-9,44-19,63
			c-10,20-19,32-38,52l-8,9v11v11l74,1C-2897.4-2228.2-2882.4-2228.2-2882.4-2229.2"/>
		<path d="M-3313.7-2230c24-5,43-21,48-42c0-3,1-9,1-15c0-9,0-12-2-17c-5-12-15-23-27-30l-6-3l7-4c20-11,30-23,34-42
			c7-28-6-57-33-70c-11-5-18-7-33-8c-16,0-27,1-39,6c-29,12-45,38-41,67c4,23,13,36,36,48l8,5l-8,3c-9,5-19,15-23,23
			c-8,15-8,34-1,50c4,8,15,18,25,23C-3352.7-2229-3330.7-2226-3313.7-2230 M-3346.7-2246c-15-5-24-16-25-34c0-9,2-20,5-27
			c1-2,4-6,7-9c5-5,15-11,19-11c6,0,34,15,42,23s10,12,9,23c0,8,0,10-2,15c-4,8-9,13-16,17c-8,4-11,5-23,5
			C-3337.7-2244-3341.7-2245-3346.7-2246 M-3334.7-2351c-16-7-22-10-28-16c-10-9-15-20-15-34c0-26,16-43,44-45c20-1,37,8,44,24
			c8,17,7,42-1,55c-7,11-24,23-30,21C-3321.7-2346-3328.7-2349-3334.7-2351"/>
		<path d="M-3689-2229.1c20-5,36-18,44-35c8-15,8-20,8-42c1-20,0-24-7-38c-5-12-21-24-37-28c-10-2-28-1-38,2c-8,3-17,9-25,15l-5,3
			v-8c2-15,5-35,8-44c5-18,13-32,23-36c19-10,50-3,50,11c0,2-1,4-5,8c-5,6-6,11-3,16c6,9,15,10,23,5c7-4,9-9,8-19c0-7,0-9-3-15
			c-9-20-34-30-61-26c-16,3-25,8-37,20c-11,12-16,20-21,37c-10,32-12,93-3,125c6,24,21,40,44,48
			C-3718-2227.1-3698-2226.1-3689-2229.1 M-3724-2247.1c-3-2-8-5-10-7c-10-11-13-24-16-66v-14l8-6c29-23,60-22,73,2c5,9,6,20,6,37
			c-1,13-1,17-3,24c-5,15-9,22-18,28c-7,5-11,6-23,6C-3717-2244.1-3718-2244.1-3724-2247.1"/>
	</g>
	<g transform="translate(0,2097)">
		<path d="M3774.1,2144.1c-1,1-25,4-57,7c-19,2-45,5-58,7s-31,4-40,4c-9,1-17,2-18,3c-7,4,0,13,13,20c8,4,10,4,20,1
			c34-11,66-15,131-16c45,0,45,0,47-5s-3-11-16-17c-6-3-8-4-15-4C3778.1,2144.1,3774.1,2144.1,3774.1,2144.1"/>
		<path d="M3350.1,2107.1c-11,3-36,7-53,9c-28,4-29,4-29,9s7,10,18,12c8,1,25,0,59-4c39-6,47-8,48-14c0-5-2-7-10-11c-7-3-8-4-16-4
			S3356.1,2105.1,3350.1,2107.1 M3418.1,2202.1c-1,1-32,4-72,8c-33,2-117,10-127,11c-5,0-6,1-8,2c-1,3,0,6,3,10c4,3,14,9,18,11
			c6,2,9,1,21-1c26-7,51-9,101-12c32-2,40-2,65-1l29,1l2-2c3-3,3-8,0-11s-11-9-17-12C3428.1,2203.1,3419.1,2201.1,3418.1,2202.1"/>
		<path d="M2995.1,2087.1c-17,6-59,13-100,17c-7,1-10,1-11,3c-2,2-2,2-1,5c2,4,7,7,14,8c10,1,33-1,62-4c42-6,59-10,62-13
			c2-2,1-7-2-10C3014.1,2089.1,3001.1,2085.1,2995.1,2087.1 M2984.1,2159.1c-12,3-37,7-63,9c-24,3-26,4-26,9c0,3,3,5,10,7
			c11,4,17,3,50,0c47-6,58-8,58-12c1-5-2-7-9-11C2996.1,2157.1,2993.1,2157.1,2984.1,2159.1 M3035.1,2220.1c-5,1-33,5-42,5
			c-4,1-19,2-35,4c-16,1-38,3-49,4s-28,2-37,3c-33,2-34,2-34,7c0,4,5,8,13,12c10,5,15,5,33,1c35-7,80-10,141-11h46l2-2
			c4-5,2-9-10-17C3053.1,2219.1,3047.1,2218.1,3035.1,2220.1"/>
		<path d="M2651.1,2104.1c-10,2-41,6-104,11c-48,5-45,5-54,3c-7-2-9-2-12-1c-5,2-4,5,1,14c2,4,5,9,5,13c1,4,3,22,5,42
			c3,38,5,54,8,58c1,3,5,6,7,6c3,0,7-4,8-8c0-3,0-3,5-3c2,0,10-1,17-1c33-4,88-7,89-5c1,0,3,5,6,10c6,10,9,13,15,11c8-2,15-14,20-31
			c1-5,4-25,7-43c6-45,6-42,12-52c2-4,1-8-5-14c-8-7-15-11-21-11C2657.1,2103.1,2653.1,2104.1,2651.1,2104.1 M2654.1,2124.1
			c3,4-4,68-11,89l-1,5l-4-2c-5-2-14-3-27-1c-29,3-95,9-95,8c0-2-8-88-7-88c0-1,35-3,36-3c0,1,0,5,0,9c0,17-6,35-17,48
			c-6,7-7,10-5,12s5,1,11-2c11-6,24-21,27-34c6-18,8-29,8-33v-4h5c3,0,7,0,8-1c2,0,2,0,2,7c0,4-1,15-1,24c-1,18-1,21,4,27
			c4,5,10,8,19,10c14,2,33,1,37-4c4-4,1-12-6-14c-4-2-5-2-12-1c-14,2-21,1-23-4c-1-5,2-35,6-41c0-2,1-4,0-4c0-2,1-2,6-2
			c4,0,11-1,18-1C2650.1,2123.1,2653.1,2123.1,2654.1,2124.1"/>
		<path d="M2247.1,2084.1c-6,2-21,4-37,6c-9,0-24,2-35,3c-11,2-26,4-34,5c-8,0-15,2-16,2c-1,1-2,2-2,4c0,3,3,6,11,10c6,3,7,3,33-1
			c11-2,16-2,16-2c3,5-5,50-9,51c-1,1-10,2-21,3c-16,1-19,2-20,3c-2,3,1,7,6,11c5,3,9,3,22,1c5-1,9-1,10-1c1,1-16,57-18,59
			c0,1-11,2-23,2c-13,1-27,2-32,3c-7,0-8,0-10,3c-3,4,2,9,14,15c8,4,11,4,20,2c30-7,120-13,183-11c16,0,18,0,20-1c4-3,4-7,0-11
			c-1-2-6-5-11-7l-8-4h-12c-6,0-19,0-29,1c-9,1-18,2-20,2h-3l7-21c8-23,10-28,16-35c1-2,3-5,3-7c0-5-11-13-22-16c-5-2-5-2-11,0
			c-8,2-34,7-35,6c0-1,7-22,11-32c4-8,4-11,1-16l-2-3h2c4-1,17-2,41-3s27-2,28-6C2282.1,2090.1,2260.1,2081.1,2247.1,2084.1
			 M2235.1,2174.1c1,3-4,23-11,43c-3,8-6,16-7,16c-1,1-40,4-41,3c0,0,2-10,6-22c4-13,9-26,10-30l2-8l13-1c7-1,14-2,15-2
			C2229.1,2172.1,2234.1,2172.1,2235.1,2174.1"/>
		<path d="M1804.1,2084.1c-1,1-1,3-1,4c0,5,12,33,17,41c2,3,3,4,3,5c0,0-10,1-22,2c-12,2-29,4-38,5c-9,2-21,3-26,3c-5,1-11,2-12,2
			c-5,2-5,8,0,12c4,3,18,10,21,10c1,0,6-1,10-2c35-11,74-16,146-17c35,0,37,0,40-2c5-5,1-12-12-19c-11-5-14-5-25-4c-7,2-53,7-58,7
			c-1,0-2-1-2-9c0-11-2-18-10-26C1825.1,2086.1,1807.1,2079.1,1804.1,2084.1 M1784.1,2183.1c-2,0-3,2-3,3c-3,11-4,15-7,21
			c-5,9-22,32-34,45c-9,9-11,11-11,14c0,2,1,3,2,4c3,1,7-1,19-8c15-10,25-19,36-31c5-6,14-15,19-20c12-12,12-14,1-22
			C1797.1,2183.1,1788.1,2180.1,1784.1,2183.1 M1848.1,2188.1c-3,2-2,5,3,12c3,3,9,11,13,19c19,30,31,46,37,50c5,3,10,2,13-2
			c7-11,0-36-16-51c-11-11-32-25-43-29C1850.1,2186.1,1851.1,2186.1,1848.1,2188.1"/>
		<path d="M1429.1,2083.1c-6,1-7,6-4,11c1,3,2,7,2,33c0,17,0,30,0,30c-1,0-13,2-27,5c-15,3-31,6-37,6c-11,2-15,4-15,7
			c0,4,14,12,22,14c3,0,10-2,29-6c14-4,26-7,27-7s1,2,1,9c-2,23,3,47,12,56c10,11,29,16,56,15c21-1,47-6,54-9c8-5,6-14-5-20
			c-8-3-11-4-23,0c-14,4-32,7-45,7c-16,0-21-2-25-10c-3-5-4-25-3-41l1-11l22-4c26-3,45-5,71-7c19-1,23-2,26-5c3-5-4-12-18-18
			c-9-4-12-4-30,1c-13,3-70,14-71,14c0,0,1-9,2-20c1-18,2-22,5-34c1-4,1-4-1-7c-1-1-4-4-6-5
			C1444.1,2085.1,1432.1,2082.1,1429.1,2083.1"/>
		<path d="M1044.1,2094.1c-4,2-4,3-4,7c1,2,4,4,14,7c13,3,16,8,48,68c17,31,31,53,36,59c8,7,11,8,38,8s31,0,32-3c3-5,1-7-18-16
			c-23-12-40-23-51-34s-15-16-27-36c-30-50-33-53-42-58C1063.1,2093.1,1049.1,2092.1,1044.1,2094.1 M1028.1,2145.1c0,1-1,5-2,8
			c-2,15-10,29-27,49c-9,10-26,26-35,32c-5,4-6,7-5,10c4,4,11,1,30-11c16-11,34-28,47-45c5-6,11-13,14-16c5-6,6-7,6-10
			c0-5-4-9-12-14C1037.1,2144.1,1030.1,2143.1,1028.1,2145.1"/>
		<path d="M675.1,2066.1c-1,3-1,4,0,13c2,8,2,13,1,21c-1,14-6,41-7,43c-2,2-36,10-49,12c-11,1-15,3-15,6c0,4,11,12,19,13
			c3,0,8-1,22-6c9-3,17-5,18-5c1,1-7,23-13,35c-11,24-34,52-52,66c-9,6-10,10-4,12c6,3,34-14,50-30s31-45,40-76l5-15l14-5
			c15-5,19-6,19-4c0,1-2,7-4,15c-8,26-13,48-13,61c0,34,19,53,54,57c19,2,45-2,57-8c2-1,5-4,8-6c5-6,5-9,2-14c-7-9-8-14-10-30
			c0-5-1-9-1-10c-1-2-6-3-8-1c0,1-2,8-4,15s-5,15-6,18c-4,8-18,12-36,10c-5-1-12-2-16-3c-12-4-17-13-17-27s7-41,17-63c2-7,5-11,9-15
			c3-3,5-6,5-8c0-5-13-14-23-15c-4,0-6,0-14,4c-11,4-28,10-29,9c0-1,7-38,10-44c0-3,2-5,2-7c1-1,2-3,1-4c-1-6-15-15-25-16
			C678.1,2064.1,677.1,2064.1,675.1,2066.1"/>
	</g>
</g>
<g transform="scale(0.333)">
	<g transform="translate(-736,0) rotate(-90)">
		<path class="st1" d="M-1681.5,1783.2c-2-2-4-2-9,0c-3,1-7,1-17,1l-14,1l-3-14c-2-15-2-17-5-18c-2,0-2,0,1-4c1-2,3-5,3-7
			c1-4,1-5-2-15c0-2,0-2,10-1c5,0,12,1,15,2l6,2l4-3c3-4,6-12,6-17c0-1-1-3-2-5c-3-2-3-2-6-1c-6,2-10,3-24,3l-13,1l-2-8
			c-1-5-3-13-4-19c0-7-2-13-3-14c-3-5-8-1-10,9c-1,3-1,8,0,15c0,6,1,11,1,11c-1,0-19-13-23-17c-3-2-10-10-16-17s-12-13-13-13
			c-1-1-2,0-3,1c-2,2-2,2,0,8c5,13,14,26,25,37c4,3,6,6,5,6c0,0-4-1-8-2c-9-2-13-1-19,3c-8,5-8,10,2,15c5,2,6,2,19,2h14l-5,5
			c-6,6-7,9-7,13c0,5,4,8,9,8c9,0,15-7,17-20c1-6,2-6,4-6c3,0,3,0,6,16c1,8,3,12,6,12c2,1,2,1,0,5c-2,3-2,6-2,14c0,5-1,9-1,9
			c-1,0-10-6-18-11c-7-6-29-27-29-29s-4-3-6-2c-3,2-2,7,1,14c5,8,14,21,20,27l5,4l-6-1c-12-1-18,0-24,5c-1,1-2,2-2,2c-1,0-3-13-5-27
			c-4-24-6-37-11-73c-1-5-2-9-2-10c-3-5-11,0-13,8c-1,4-1,7,2,20c4,22,6,34,4,35c-1,1-8,2-25,2h-24l4-8c2-5,4-11,5-13l2-5l6,4
			c7,5,8,6,12,4c5-3,12-14,12-21c0-5-2-6-7-6c-9,2-26-5-40-16c-8-7-19-19-25-29c-4-6-7-8-11-7c-2,1-1,7,3,16c7,16,17,30,31,41l9,7
			l-2,4c-2,3-11,18-20,35c-21,36-26,46-29,55c-4,11-2,24,5,50c5,17,6,19,9,20c3,0,5-3,5-13c3-29,11-69,20-91l3-9l7,1c15,1,15,1,15,4
			s2,17,5,36c1,6,4,9,8,7c3-1,6-5,7-10c0-2,1,0,7,11c4,7,8,15,9,19c3,8,4,10,8,10s10-6,15-16c4-8,4-9,4-17l-1-9l5,3c5,2,6,2,20,2h14
			l-9,9c-18,18-21,26-12,32c4,3,8,3,14,0c6-2,9-7,13-15c3-7,8-22,8-24s1-2,4-2l4,1l4,14c3,15,5,20,8,22s6,0,9-5c4-8,4-12,0-21
			c-2-4-3-9-3-9c0-2,13-2,21,1c2,0,6,1,6,1c3,0,7-5,9-12C-1678.5,1788.2-1678.5,1786.2-1681.5,1783.2 M-1815.5,1806.2c-1-1-5-3-9-6
			c-8-5-10-6-12-4c0,1-1,1-1,1c0-1-6-28-7-30c0-2,0-2,6-1c3,0,8,1,11,2c4,0,7,1,8,1c0-1,1,2,2,8c1,5,2,11,2,14
			C-1814.5,1799.2-1814.5,1806.2-1815.5,1806.2"/>
		<path class="st1" d="M-1694.1,1947.4c-2-1-3-1-6,0c-5,3-23,20-26,24c-3,6-3,12,1,16c3,3,5,4,12,3c8,0,13-4,15-12c3-7,6-21,6-26
			C-1692.1,1949.4-1692.1,1948.4-1694.1,1947.4 M-1715.1,2115.4c-3-13-8-44-15-95c-1-15-4-29-4-30c-1-2-2-2-4-2c-4,0-6,2-10,9
			c-3,7-3,9,0,25c3,15,10,63,10,64c-1,1-13,3-23,4c-8,1-21,1-49,1c-41-1-62-3-64-5c-2-1-1-4,0-14c3-14,2-16-2-17c-2,0-4,1-9,7
			c-6,8-13,15-19,19c-5,4-6,8-5,12c1,5,4,8,11,12c12,7,11,6,75,6c39,0,61,0,66,1c16,2,17,2,19,0c2,0,3-1,3-1s0,10,1,21
			c1,25,2,28,8,28c3,0,7-4,11-12S-1711.1,2132.4-1715.1,2115.4 M-1746.1,1928.4c0-1-2-2-3-2c-3,0-18,11-25,18c-8,10-10,16-5,21
			c3,3,3,3,9,3c12,0,17-5,22-21C-1744.1,1934.4-1744.1,1931.4-1746.1,1928.4 M-1763.1,2051.4c-2-5-9-38-8-41c1-6,0-13-1-15
			c-3-1-4-1-11,4c-5,4-7,4-24,7c-20,4-24,5-25,10c0,3,0,3,6,8c1,1,2,5,3,16c3,18,4,22,7,23c1,0,3-1,4-2c2-1,2-1,10,1c4,2,11,5,15,8
			c5,3,8,4,9,3c4-1,8-4,11-9C-1762.1,2058.4-1761.1,2054.4-1763.1,2051.4 M-1792.1,2044.4c-6-1-12-1-12-2c-1,0-4-17-3-18
			c0-1,23-3,23-3c1,1,4,15,4,19v4H-1792.1 M-1796.1,1975.4c-1-1-11-7-22-14c-22-13-26-16-34-26c-8-9-10-10-21-7c-19,6-25,12-17,19
			c1,1,6,3,12,6c6,2,16,6,23,9c30,13,53,22,57,22c3,0,5-2,5-5C-1793.1,1978.4-1794.1,1976.4-1796.1,1975.4"/>
	</g>
	<g transform="translate(736,0) rotate(90)">
		<path class="st1" d="M1685.5-1811c2,2,3,2,5,2c4-2,27-2,27-1c0,0,1,7,2,15c1,7,2,14,2,14c0,1-3,1-8,1c-5-1-8,0-9,0c-3,3-5,8-6,17
			c0,7,0,8,2,10c2,3,6,3,9,0s14-7,15-6c0,0,1,6,2,14c1,7,2,14,3,15c5,5,14-7,14-18c0-2-1-6-2-8c0-3-1-6-1-7c0,0,5-2,12-4
			c15-4,17-6,14-13c-1-1,0-2,2-3c3-1,3-3,6,16c1,8,1,12,1,14c-1,2-1,6-1,10c0,5,0,6,2,7c3,1,4,1,8-2c4-2,8-4,17-5c14-3,19-5,20-9
			c1-2,1-3-1-5c-1-2-2-5-2-11c-1-5-1-10-2-13c0-4,0-4,3-4h3l1,9c0,5,1,13,2,16c1,11,5,16,10,11c4-5,5-13,4-27l-1-7h3c2,1,3,1,4,1
			c0,1,5,42,6,55s1,14,6,14c4,0,13-13,13-20c0-1-1-5-2-8c-1-4-6-35-6-36c0,0,3,1,6,2c6,3,12,9,19,17c7,10,9,14,15,30c3,9,6,16,6,17
			c2,2,7,1,7-2c2-3-4-29-7-39c-5-12-9-19-17-28c-8-8-16-14-25-17l-6-2l-1-6c0-6-1-42,0-61c0-12,0-13-1-15c-4-4-11-2-16,7
			c-4,7-5,12-4,19s5,51,5,51c0,1-2,0-5,0h-4l-1-10c-1-11-4-24-5-26c-3-6-9-3-11,6c-2,7-2,13-1,22l2,6h-3c-2,0-2-1-2-4c-1-2-1-5-2-7
			c0-1-1-9-1-16c-1-15-1-17-4-18s-7,0-8,2s-9-4-12-8c-2-3-4-4-6-4c-5,0-7,1-12,9c-5,9-6,12-3,25c1,4,2,10,2,12c1,5,1,6-2,7
			c-4,2-4,2-6-9c0-7-1-10-4-11c-2-1-3-1-5,1c-3,2-4,2-11,0c-8-1-9-2-9-4c0-1,0-10-1-18c0-13-1-16-2-18c-4-4-9-2-13,5c-3,6-4,13-2,22
			c0,4,1,8,1,8c-1,0-4-1-8-3c-3-2-7-3-8-3c-4,0-13,12-14,20C1683.5-1814,1683.5-1813,1685.5-1811 M1714.5-1684c3,4,5,3,20-10
			c12-11,15-16,12-22c-2-4-6-6-14-6c-5,1-7,1-9,4c-4,4-7,9-9,18C1712.5-1690,1711.5-1686,1714.5-1684 M1735.5-1809c8,0,9,1,10,8
			c1,4,3,9,3,12c1,3,2,6,1,6c0,0-3,1-7,1l-6,1l-1-11C1732.5-1808,1733.5-1809,1735.5-1809 M1764.5-1664c2,3,3,3,12-3
			c9-5,18-13,21-17c3-7,0-15-8-16c-6-2-14,1-17,5s-10,23-10,27C1762.5-1667,1763.5-1665,1764.5-1664 M1782.5-1832c3,0,9,2,10,3
			c1,0,3,9,4,18l1,4h-8h-8v-3c-1-4-2-10-2-17C1779.5-1832,1779.5-1832,1782.5-1832 M1788.5-1785c2-1,5-1,8-1c4,0,4-1,6,10
			c1,4,1,8,1,11v4h-6c-4,0-7,0-7,0c-1-1-6-20-6-23C1784.5-1784,1786.5-1785,1788.5-1785 M1809.5-1704c1,1,9,5,17,9
			c19,10,32,19,39,27c10,10,14,11,30,4c10-5,14-9,11-14c-1-3-5-4-19-8c-6-2-20-7-31-12c-21-8-40-15-44-15
			C1807.5-1713,1805.5-1706,1809.5-1704 M1867.5-1803c3,3,5,2,11-6c2-3,11-13,19-22c18-18,22-24,23-30c0-6-1-9-6-11c-4-2-10-1-15,1
			c-8,4-14,11-22,27c-4,9-12,34-12,38C1865.5-1805,1866.5-1804,1867.5-1803"/>
		<path class="st1" d="M1685.7-1534.6c0,2,2,13,4,25c8,40,12,67,9,77c-1,7-1,13,1,14c2,3,4,2,8-1c10-6,12-6,43-11c12-2,22-4,24-5
			c6-3,8-9,3-12c-1-1-2-2-2-3c0-2,0-2,3-1c17,3,49,35,67,66c4,7,5,9,7,9s3-1,4-2c2-3,2-3,0-9c-3-8-10-25-15-33c-2-4-8-11-12-16
			c-4-6-7-10-7-10c0-1,3-1,5-3c4-1,7-2,18-2c12,0,14,1,22,3c10,4,20,10,28,16c3,3,7,6,8,6c2,0,4-2,4-4c0-3-5-12-11-18
			c-12-14-24-19-50-23c-6-1-13-3-15-4c-5-1-5-1-8,0c-3,2-7,11-8,17v4l-7-6c-4-4-11-10-15-14c-9-8-10-8-16-3c-2,2-3,3-3,3
			c-1,0-1-6-2-12c-1-11-1-12,2-15c4-8,10-13,33-31c24-19,38-32,40-39c3-5,2-18-1-32c-3-15-4-17-7-18c-4,0-6,2-11,16
			c-7,17-16,35-23,45c-3,4-12,15-20,24c-14,14-16,16-16,13c0-2,1-3,4-6c5-4,5-7,2-11s-10-6-36-14c-16-5-25-8-29-10c-10-6-14-4-20,9
			c-3,8-4,10-5,17C1684.7-1537.6,1684.7-1535.6,1685.7-1534.6 M1704.7-1534.6c0-1,5-1,9,0c7,0,8,1,7,2c-1,4-1,14,1,24l2,11h-2
			c-2,0-4,0-6-1c-3-1-5-1-6,0s-2,1-3,1c0-1-4-27-4-33C1702.7-1532.6,1702.7-1534.6,1704.7-1534.6 M1712.7-1473.6c1-1,5-1,8-2l6-1v3
			c2,7,3,27,3,28c-1,0-16,3-17,3c0-1-2-18-2-24C1710.7-1471.6,1710.7-1472.6,1712.7-1473.6 M1737.7-1531.6c1,0,5,1,8,2l7,1v11
			c1,6,1,13,1,16l1,6h-4c-2,0-5,0-7-1h-3l-2-17c-2-9-3-17-3-17C1735.7-1531.6,1736.7-1531.6,1737.7-1531.6 M1748.7-1477.6
			c3,0,6,0,7,0c1,1,2,5,3,14c1,16,2,14-8,16h-5v-3c1-2,0-8,0-14c-1-5-2-10-2-11C1743.7-1475.6,1745.7-1476.6,1748.7-1477.6
			 M1807.7-1508.6c1,1,2,1,5,1c2-1,24-1,50-2c48-1,54-1,56-5c1-1,1-3,1-4c-1-3-8-6-20-9c-9-1-41-3-59-3c-6,0-13-1-17-2
			c-8-2-10-1-15,8C1805.7-1517.6,1804.7-1511.6,1807.7-1508.6"/>
	</g>
</g>
<path d="M142.6,846.4c0,0.1-0.1,0.7-0.1,1.4c0,0.8,0,1.6-0.2,2.3c-0.5,2.3-0.6,2.6-0.5,2.8c0.1,0.1,0,0.2-0.1,0.2
	c-0.3,0.2-0.5,0.7-0.1,1c0.2,0.1,0.3,0.5,0.5,1.2c0.2,1.6,0.2,1.7,0.6,1.9c0.2,0.2,0.3,0.2,0.5,0.1c0.2-0.1,0.3-0.2,0.5-0.3
	c0.1-0.1,0.3-0.2,1.6-0.2c0.8-0.1,1.5-0.2,1.6-0.2c0.3-0.1,0.2-0.6,0-0.8s-0.2-0.2,0-0.7c0-0.2,0.2-0.7,0.5-0.9
	c0.5-0.7,0.5-0.9,0.1-1.2c-0.3-0.3-1.4-0.8-1.7-0.8c-0.2,0-0.6,0.1-0.8,0.3c-0.6,0.2-1.6,0.6-1.9,0.6c-0.2,0-0.1-0.2,0.2-0.7
	c0.1-0.2,0.3-0.7,0.5-0.9c0.2-0.5,0.3-0.5,0.6-0.5c0.2,0.1,0.9,0,1.6,0c1.4-0.2,1.6-0.2,1.6-0.1c0,0.1,0.1,0.5,0.3,0.9l0.2,0.6v2.8
	c-0.1,1.7-0.2,3.3-0.3,4c-0.2,1.9-0.2,2-0.1,2.6c0.2,0.7,0.8,1.4,1.1,1.4s0.7-0.5,0.7-0.7s0-0.3,0.1-0.3c0.1-0.1-0.1,0.9-0.5,1.7
	c-0.2,0.3-0.6,1.1-0.9,1.7l-0.7,1.1l-0.5-0.2c-0.8-0.5-1.5-0.5-2.6-0.2l-0.9,0.2V866c0-0.2,0-0.5,0.1-0.5c0,0,0.7-0.1,1.4-0.1
	c1.5-0.2,1.9-0.5,1.9-1c0-0.2-0.1-0.3-0.5-0.5c-0.7-0.5-1.4-0.6-1.9-0.3c-0.8,0.2-1,0.1-1-0.1c0-0.3,0-0.3,0.3-0.3
	c1,0,2.7-0.3,2.9-0.6c0.8-0.7-0.8-1.7-2.3-1.2c-0.9,0.2-1,0.2-1-0.2c0-0.5,0-0.5,1.4-0.7c0.9,0,1.8-0.2,2.1-0.5c0.5-0.2,0.5-0.7,0-1
	c-0.7-0.3-1.5-0.5-2.1-0.3c-1.2,0.3-1.2,0.3-1.2,0.1c0-0.9-1.7-2.1-2.6-1.9c-0.2,0-0.3,0-0.5-0.2c0-0.3,0.2-1.1,0.7-1.7
	c0.3-0.5,0.2-0.8-0.5-1.2c-0.2-0.2-0.6-0.3-0.7-0.3c-0.1,0-0.1-0.1,0.1-0.3c0.1-0.3,0.1-0.6,0-2.4c-0.1-1.7-0.1-2-0.3-2.3
	c-0.3-0.2-1.2-0.6-1.8-0.6s-0.8,0.1-0.9,0.5c-0.1,0.2,0,0.5,0.2,0.9c0.2,0.3,0.3,0.7,0.2,0.7c0,0-0.8,0.3-1.7,0.6
	c-1.8,0.5-2,0.6-2,0.9c0,0.2,0.7,0.9,1.1,1c0.7,0.3,1,0.2,2-0.2c0.5-0.2,1-0.5,1.1-0.5c0.2-0.1,0.3-0.1,0.5,0.6
	c0.1,0.3,0.3,0.7,0.5,0.9c0.1,0.2,0.1,0.2-0.1,0.3c-0.7,0.3-1.5,0.6-2.5,0.7c-0.7,0-1.2,0.1-1.4,0.1c-0.3,0.2-0.2,0.8,0.1,1
	c0.2,0.2,0.3,0.5,0.6,1.2c0.3,1.4,0.6,1.8,1.1,1.8c0.2,0,0.3-0.1,0.3-0.3c0.2-0.5,0.5-0.2,0.5,0.3c-0.1,1.4-1.9,3.7-4.2,5.5
	c-1,0.8-1.1,1-0.8,1.4c0.3,0.1,0.3,0.1,0.9-0.1c0.7-0.2,1.6-0.8,2.4-1.4c0.3-0.2,0.6-0.5,0.7-0.5c0.2,0.3,0,4.4-0.3,5.8l-0.2,0.8
	l0.2,0.8c0.2,0.9,0.7,1.5,1,1.6c0.2,0.1,0.3,0,0.6-0.2c0.5-0.3,0.7-1.2,0.7-2.4V869l0.7-0.1c1.9-0.3,5.5-0.8,6.7-0.8
	c0.2,0,0.2,0-0.1,0.5c-0.3,0.2-0.9,0.7-1.4,1c-0.6,0.3-0.9,0.8-0.9,0.8c0,0.3,0.2,0.6,0.6,0.6c0.5,0,1.7-0.6,2.5-1.1
	c1.7-1,3.2-2.8,4.2-5c0.3-0.7,0.7-1.4,0.8-1.7c0.2-0.3,0.3-0.6,0.2-0.8c-0.1-0.3-0.1-0.5,0.1-0.3c0.3,0.1,0.3,1.2,0.2,4.3
	c-0.1,3.3-0.1,3.6,0.5,4.5c0.7,1.1,1.7,1.6,3.7,1.7c1.6,0,2.7-0.1,3.6-0.6c0.7-0.3,1.6-1.1,1.9-1.6c0.1-0.3,0.1-0.3-0.3-1.5
	c-0.5-0.8-0.6-1.4-0.7-1.9c-0.1-1.1-0.3-1.5-0.7-1.5c-0.5,0-0.6,0.2-0.6,0.9c-0.2,1.4-0.5,2.6-0.7,2.9c-0.3,0.6-0.8,0.7-2,0.8
	c-1.6,0-2.1,0-2.5-0.5l-0.3-0.3v-1.9c0.1-2.4,0.3-3.7,0.7-4.5c0.3-0.6,0.3-0.6,0.5-0.3c0.2,0.5,0.7,0.7,1,0.5
	c0.3-0.1,0.7-0.7,0.9-1.2c0.1-0.5,0.1-1.1,0.1-4.3c0-4,0-4.6,0.5-5.5c0.2-0.6,0.2-0.6,0.1-0.9c-0.3-0.3-1.5-1.1-2-1.2
	c-0.2,0-0.7,0-1.2,0.2c-0.5,0.1-1.7,0.3-2.7,0.6c-1.9,0.3-2,0.3-2.7,0.1c-0.6-0.1-0.7-0.2-0.7-0.5s-0.2-0.6-0.9-0.9
	c-0.6-0.3-1.4-0.3-2-0.1c-0.3,0.1-0.7,0.2-0.7,0.2c-0.1,0,0.1-0.7,0.5-1.1c0.1-0.2,0.2-0.5,0.2-0.5c0-0.3-0.7-1-1.1-1.2
	C143.6,846.3,142.9,846.2,142.6,846.4 M154.6,851.8c0.1,0.1,0.1,0.6,0.1,1l0.1,0.9h-0.9c-0.5,0-1.5,0.1-2.5,0.2
	c-0.9,0.2-1.6,0.3-1.7,0.3c0,0,0-0.5,0.1-1v-1h0.5c0.2,0,0.9-0.1,1.6-0.2C153.1,851.7,154.6,851.6,154.6,851.8 M144.8,854.7
	c0,0.2,0,0.6-0.1,0.6c0,0-0.2,0.1-0.6,0.1l-0.5,0.1v-0.6c0-0.7,0-0.7,0.5-0.8C144.8,854,144.9,854,144.8,854.7 M138.9,855.3
	c-0.1,0.2-0.2,0.5-0.2,0.6c-0.1,0.1-1.2,0.3-1.4,0.3c0-0.1,0-0.3-0.1-0.6v-0.5l0.7-0.1C138.9,854.8,138.9,854.8,138.9,855.3
	 M154.8,856.1v0.8l-0.5-0.1c-0.6-0.1-0.6-0.1-2.6,0.2c-1,0.1-1.9,0.2-2,0.2s-0.1-0.2-0.1-0.7l0.1-0.6l2.4-0.5
	c1.4-0.1,2.5-0.3,2.6-0.3C154.8,855.2,154.8,855.4,154.8,856.1 M140.5,857.5c0,0.1,0.2,0.5,0.3,1l0.5,0.8l-0.6,0.1
	c-0.2,0-0.7,0-0.8,0.1c-0.2,0-0.2,0-0.1-0.2c0.2-0.3,0-0.8-0.6-1.4l-0.5-0.5h0.5C140,857.4,140.5,857.4,140.5,857.5 M154.7,859.3
	c0,0.5,0,0.9-0.1,0.9c0,0-0.2,0-0.5-0.1c-0.2,0-1,0-2.4,0.1c-1.1,0.1-2,0.2-2.1,0.2s-0.1-0.1-0.1-0.8c0-0.8,0-0.9,0.2-0.8
	c0.2,0,1.2-0.1,2.4-0.2c1.1-0.1,2.3-0.2,2.4-0.2h0.3L154.7,859.3 M139.8,861.1c0.3,0,0.8,0,1-0.1l0.5-0.1v0.5c0,0.2-0.1,0.5-0.1,0.5
	c-0.1,0.1-0.8,0.1-1.6,0.2c-1.1,0.1-1.4,0.1-1.5,0c-0.3-0.2-0.2-0.2,0.1-0.7c0.3-0.3,0.3-0.5,0.7-0.3
	C139,861.1,139.5,861.1,139.8,861.1 M154.8,862.1c-0.1,0-0.1-0.1-0.1-0.2c-0.1-0.1-0.1-0.1,0,0C154.8,861.9,154.8,862,154.8,862.1
	 M141.3,863.8c0,0.3,0,0.3-1,0.5c-1.7,0.2-1.7,0.2-1.7-0.2c0-0.2,0.1-0.3,0.9-0.3c0.5-0.1,0.9-0.1,0.9-0.1c0.1-0.1,0.3-0.1,0.6-0.1
	C141.3,863.5,141.3,863.5,141.3,863.8 M141.3,866.7c-0.1,0-2.5,0.5-2.7,0.5c-0.1,0-0.1-0.2-0.1-0.6V866l1.4-0.1l1.5-0.2v0.5
	C141.3,866.4,141.3,866.6,141.3,866.7"/>
<path d="M152.9,876.3c-0.3,0.1-0.6,0.3-0.6,0.7c0,0.1,0.1,0.5,0.3,0.8c0.2,0.6,0.2,0.9,0.3,2.5c0.1,0.9,0.1,1.8,0,1.8
	c-0.1,0.1-3.2,0.7-3.6,0.7c-0.1,0-0.1-0.1-0.1-0.6c0.1-0.3,0.2-1,0.3-1.4c0.3-1,0.2-1.2-0.6-1.6c-1-0.6-2.3-0.8-2.6-0.6
	s-0.3,0.5,0,1.2c0.2,0.6,0.2,1,0.3,2v1.4l-1,0.1c-0.6,0.1-1.1,0.2-1.2,0.2c-0.3,0.2-0.3,0.6,0,0.9c0.3,0.3,1.5,0.8,1.9,0.8h0.3v4.4
	v4.4h-0.3c-0.2,0.1-1.1,0.2-2.1,0.2c-1.6,0.1-1.9,0.2-2.1,0.3c-0.2,0.3-0.2,0.3-0.1,0.7c0.2,0.3,1.2,0.9,2,1.1
	c0.5,0.1,0.7,0.1,1.7-0.2c1.6-0.5,1.6-0.5,1.5,0.1c-0.1,1-0.5,1.6-2.7,3.8c-1.1,1.1-2,2.1-2,2.3c0,0.3,0.5,0.3,1,0.1
	c1.4-0.5,3.6-2,5.2-3.4c0.5-0.5,1.1-1,1.4-1.2c0.5-0.3,0.5-0.5,0.5-0.7c-0.1-0.5-0.7-0.9-1.4-1.2c-0.3-0.2-0.6-0.3-0.5-0.3
	c0,0,1-0.1,2-0.2c2.7-0.3,5-0.5,7.6-0.3c2.6,0.1,2.8,0.1,2.9-0.6c0-0.3-0.5-0.9-1.4-1.5c-0.9-0.5-1.2-0.5-2.4-0.2
	c-0.6,0.1-1.4,0.2-1.7,0.2l-0.7,0.1v-0.8c0-0.5,0.1-2.5,0.1-4.5c0.1-2.1,0.2-3.8,0.2-4s0.1-0.2,1-0.2c1.5,0,2.4-0.1,2.5-0.3
	c0.3-0.5-0.1-1.1-1-1.6c-0.7-0.5-1.6-0.5-2.1-0.3l-0.2,0.1v-1.1c0.1-0.7,0.2-1.5,0.2-1.8c0.3-0.8,0.2-1-0.1-1.4
	c-0.6-0.5-1.1-0.8-1.9-0.9c-0.3-0.1-0.7-0.2-0.7-0.2S153,876.2,152.9,876.3 M138.8,878.3c-0.3,0.3-0.3,0.5,0,1.2
	c0.5,0.9,0.6,1.9,0.6,4v1.8l-0.6,0.1c-0.6,0.1-3.2,0.6-4,0.7c-1.2,0.1-1.2,1,0.1,1.4c0.8,0.2,1.7,0.2,2.8,0.1c0.6-0.1,1-0.2,1-0.1
	c0.1,0-0.5,1.2-1.1,2.6c-1.2,2.5-2.5,4.4-4,6.1c-0.7,0.8-0.8,1-0.7,1.2c0.6,1,3.7-1.7,5.6-4.7l0.5-0.7l-0.1,1
	c-0.1,2.6-0.3,4.5-0.6,5.3c-0.3,1.1-0.2,1.9,0.3,3.1c0.3,0.7,0.5,0.9,0.7,0.9c0.3,0.1,0.5,0.1,0.7-0.2c0.2-0.2,0.6-0.7,0.7-1.1
	c0.2-0.6,0.2-0.7,0.3-4.6c0-2.3,0-4.4,0.1-4.9v-0.7l0.5,0.7c0.5,0.8,1,1.2,1.5,1.2c0.1,0,0.3-0.1,0.6-0.3s0.3-0.5,0.3-0.9
	c0-0.7-0.3-1.4-0.8-1.7c-0.3-0.3-1.7-1-1.9-1c-0.1,0-0.1-0.2-0.1-0.9l0.1-0.8l1.2-0.5c1.7-0.5,1.8-0.5,1.9-0.8
	c0.2-0.3-0.1-0.8-0.9-1.1c-0.7-0.2-1.2-0.3-1.8,0c-0.2,0-0.3,0.1-0.5,0.1c0-0.1,0.2-3.4,0.3-4c0.3-1,0.2-1.4-0.1-1.7
	c-0.6-0.5-1.7-1-2.1-1C139.2,878,139,878.2,138.8,878.3 M153,885.3c0,0.7,0,1.1,0,1.1s-0.2,0-0.5-0.1c-0.2-0.1-0.7,0-1.7,0.2
	c-0.7,0.2-1.4,0.3-1.5,0.3c-0.2,0-0.2-0.1-0.2-1v-1.1l1.7-0.2c1-0.2,1.8-0.3,1.9-0.3C153,884.1,153,884.3,153,885.3 M153,888.9v0.9
	h-0.7c-0.5,0-1.4,0.1-1.9,0.2c-0.7,0.1-1.4,0.2-1.4,0.2s0-0.5,0-0.9v-0.9h0.3c0.1,0.1,1,0,1.8-0.1c0.8-0.2,1.6-0.3,1.7-0.3
	C153,888,153,888.2,153,888.9 M152.9,892.5v1.1l-1.8,0.1c-0.9,0.1-1.8,0.1-1.9,0.2c-0.2,0-0.2-0.1-0.2-1v-1.1h0.6
	c0.3,0,1.1-0.1,1.8-0.1C153.1,891.4,152.9,891.4,152.9,892.5 M152.2,896.5c-0.1,0.2,0,0.5,0.9,1.5c0.5,0.5,1.1,1.2,1.6,1.9
	c1.1,1.6,1.7,2.1,2.1,2.5c0.6,0.5,1.1,0.5,1.5,0c0.2-0.2,0.2-0.3,0.2-1.1c0-1.1-0.2-1.7-1.1-2.6C156,897.1,152.6,895.8,152.2,896.5"
	/>
<path d="M154.8,910.1c-1.8,0.3-5.4,0.8-10.4,1.4c-7,0.9-7.2,0.9-7.5,1.1c-0.3,0.3,0,1,0.9,1.4c0.9,0.3,1.8,0.5,3.2,0.1
	c0.7-0.1,2.1-0.3,3.3-0.5c1-0.2,2.1-0.3,2.4-0.5h0.3l-0.1,0.6c-0.3,1.1-1.7,3.3-3.1,5.1c-1,1.1-3.5,3.6-4.6,4.6
	c-0.6,0.5-1.7,1.4-2.6,1.9c-0.8,0.7-1.5,1.2-1.6,1.4c0,0.3,0.2,0.6,0.6,0.6c0.8,0,3.5-1.5,5.8-3.1c1.4-1.1,4.1-3.6,5-4.9l0.7-0.8
	v0.6c0.1,0.7-0.1,6.1-0.2,7.5c-0.1,0.6-0.2,1.6-0.5,2.3c-0.3,1.5-0.3,1.9,0.2,3.2c0.6,1.2,1.2,1.7,1.8,1.1c0.6-0.7,0.7-2.3,0.9-8.2
	c0-1.8,0.1-3.4,0.1-3.5c0.1-0.2,0.1-0.2,1,0.5c0.5,0.3,1.7,1.2,2.6,2c3.1,2.7,4,3.3,4.9,3.3c0.3,0,0.6-0.1,0.8-0.3
	c0.3-0.3,0.3-0.3,0.3-1c0-0.9-0.5-1.9-1.2-2.6c-1.5-1.4-4.4-2.6-7.9-3.4l-0.3-0.1V919c0.1-0.9,0-1.4-0.6-2c-0.3-0.2-0.5-0.5-0.3-0.6
	c0-0.1,0.3-0.7,0.8-1.1c0.8-1.1,0.8-1.5,0.6-1.9l-0.2-0.3h0.5c0.6-0.1,3.6-0.3,5.9-0.5c1.9,0,2.4-0.1,2.7-0.5c0.1-0.3,0.1-0.3,0-0.7
	c-0.3-0.6-1.7-1.4-2.7-1.5C155.8,909.9,155.2,910,154.8,910.1"/>
<path d="M138.3,939.5c-0.1,0-0.2,0.2-0.2,0.3c0,0.5,1.1,2.9,1.5,3.5c0.1,0.2,0.2,0.3,0.2,0.5c-0.1,0-4.2,0.8-5.3,0.9
	c-0.6,0-1.1,0.1-1.2,0.2c-0.5,0.3,0,1,1.1,1.6c0.8,0.3,1.5,0.5,1.9,0.2c1-0.5,4.5-1.2,7-1.6c0.9-0.1,1.7-0.2,1.7-0.3
	c0.1,0,0.2-0.1,0.2-0.3c0.1-0.3,0-0.7-0.8-1c-0.6-0.2-0.7-0.2-1.5-0.2l-1,0.1l0.1-0.8c0-0.9-0.1-1.2-0.8-1.9
	c-0.6-0.5-2.3-1.4-2.5-1.4C138.7,939.3,138.4,939.4,138.3,939.5 M153.9,939.9c-1,0.2-4.5,0.9-6.8,1.2c-1.8,0.3-2.1,0.5-2.1,0.9
	c0,0.2,0.5,0.7,1.1,0.9c0.8,0.3,1.5,0.3,2.4,0.1c0.3-0.1,0.7-0.2,0.7-0.2c0.1,0,0.1,0.7-0.1,1.9L149,946l-1.5,0.1
	c-0.8,0.1-1.6,0.3-1.8,0.3c-0.9,0.2-0.6,1,0.5,1.2c0.5,0.2,0.8,0.2,1.4,0.1c1.2-0.2,1.1-0.3,0.8,1.2c-0.2,0.8-0.3,1.4-0.5,1.5
	c0,0-0.9,0.1-1.9,0.2c-1,0.1-2,0.3-2.3,0.3c-0.3,0.2-0.5,0.2-0.5,0s-0.7-0.6-1.4-0.7c-0.6-0.1-0.9-0.1-1.4,0.1c-0.3,0-1.2,0.2-2,0.5
	c-1.8,0.3-2,0.3-2,0.7c0,0.6,1.1,1.2,2,1.1c0.8-0.1,4.4-0.9,4.5-1s0.2,0,0.3,0.1c0.3,0.5,2,1.1,2.6,1c0.3-0.2,3.3-0.6,5.5-0.8
	c2.6-0.2,5.7-0.5,7.2-0.5c0.7,0,1.4,0,1.6-0.1c0.9-0.2,0.8-0.9-0.2-1.6c-0.9-0.7-1.2-0.8-2.8-0.6c-0.7,0.1-1.4,0.2-1.5,0.2
	c-0.1-0.1,0.6-1.7,1-2.5c0.5-0.7,0.5-0.9-0.1-1.4c-0.5-0.5-1.8-1.1-2.1-1.1c-0.1,0-0.5,0.1-0.7,0.2c-0.6,0.2-2,0.6-2.3,0.6
	c-0.1-0.1,0.1-1,0.6-1.8c0.2-0.5,0.2-0.5,0.1-0.8c-0.1-0.2-0.2-0.3-0.2-0.5c0.1,0,2.5-0.3,3.8-0.5c1.2,0,1.5-0.1,1.7-0.3
	s0.2-0.2,0.1-0.6c-0.3-0.7-1.7-1.4-2.6-1.4C154.8,939.6,154.3,939.7,153.9,939.9 M153.8,947.1c0,0.1-0.1,0.8-0.3,1.5
	c-0.2,1.1-0.3,1.4-0.5,1.4c-0.6,0.1-2.7,0.3-2.8,0.3c0-0.1,0.7-2.9,0.8-3.1c0.1-0.1,1.7-0.3,2.3-0.3
	C153.7,946.9,153.8,946.9,153.8,947.1 M140.5,947.4c-0.8,0.3-2.8,0.8-3.2,0.8c-0.2,0-0.5,0.1-0.6,0.2c-0.6,0.5,0.1,1.1,1.2,1.4
	c0.7,0,4.7-0.9,5.1-1.2c0.3-0.3,0.2-0.7-0.3-1C142,947.2,141.3,947.2,140.5,947.4 M140.6,953.6c-0.5,0.2-1.4,0.5-2,0.7
	c-1,0.2-1.2,0.2-1.9,0.1c-0.5-0.1-0.7-0.1-0.9,0.1c-0.3,0.2-0.5,0.5-0.2,0.7c0.1,0.1,0.3,0.5,0.5,0.7s0.3,0.8,0.6,1.9
	c0.5,2,0.6,2.3,0.9,2.6s0.7,0.3,1-0.1c0.2-0.2,0.3-0.3,1.6-0.5c0.8-0.1,1.7-0.2,1.9-0.2c0.5,0,0.6-0.1,0.8-0.2
	c0.3-0.3,0.3-0.5-0.1-0.8l-0.2-0.3l0.3-1c0.2-0.7,0.6-1.4,0.8-1.7c0.5-0.7,0.5-1,0-1.4c-0.6-0.5-1.6-0.9-1.9-0.9
	C141.4,953.3,141,953.4,140.6,953.6 M154.3,953.6c-0.2,0.1-1.7,0.3-3.3,0.5l-2.9,0.5l-0.7-0.2c-1-0.3-1.8-0.2-1.8,0.3
	c0,0.1,0.1,0.5,0.3,0.7c0.3,0.5,0.3,0.7,0.7,3.1c0.2,1.5,0.3,2.7,0.5,2.8c0.1,0.2,0.7,0.7,0.9,0.7c0.1,0,0.3-0.1,0.5-0.2
	c0.2-0.3,0.5-0.3,2.5-0.5c1.1-0.1,2.6-0.2,3.3-0.3c1.5,0,1.7-0.1,1.8-0.3s0.1-0.3-0.1-0.7l-0.2-0.5l0.5-1c0.2-0.5,0.6-1.2,0.9-1.7
	c0.7-0.9,0.8-1.1,0.6-1.5c-0.2-0.5-1.4-1.2-1.9-1.5C155.1,953.5,154.7,953.5,154.3,953.6 M140.7,956.8c-0.1,0.7-0.2,1.1-0.2,1.2
	c-0.1,0-1.8,0.3-1.8,0.3c0-0.1-0.3-2.5-0.3-2.6c0,0,0.6-0.1,1.2-0.2c0.9-0.1,1.2-0.1,1.2,0S140.7,956.2,140.7,956.8 M153.9,956
	c0,0.5-0.5,2.7-0.5,2.8c-0.1,0-2.8,0.5-4,0.6h-0.8v-1.5c-0.1-0.8-0.1-1.5-0.2-1.6c0-0.1,0.1-0.2,0.8-0.2c0.3-0.1,1.1-0.2,1.7-0.3
	c0.9-0.1,1.5-0.2,2.4-0.2h0.6V956"/>
<path d="M146,967c-0.2,0.2-0.2,0.2-0.1,1.1c0.1,0.9,0.1,2.4-0.1,2.8c0,0.3,0,0.3-3.3,0.7c-4.5,0.6-4.6,0.6-4.6,1
	c0,0.6,0.7,1.1,1.8,1.4c0.5,0.1,0.8,0.1,1.7-0.1c2-0.3,4-0.7,4.1-0.7c0,0.1-0.3,2.1-0.5,2.3c-0.1,0-0.6,0.1-1,0.2
	c-0.9,0.1-1,0.1-1.7-0.1c-1-0.2-1.4-0.3-1.7,0c-0.3,0.2-0.3,0.6,0,1.4c0.2,0.6,0.2,1,0.3,4.1c0.1,1.9,0.1,4.1,0.1,5v1.5h-0.5
	c-0.2,0.1-1.5,0.1-2.7,0.2c-1.4,0.1-2.6,0.1-2.8,0.2c-0.5,0-0.7,0.3-0.3,0.9c0.1,0.3,0.3,0.5,0.9,0.8c1.1,0.6,1.6,0.6,3.7,0.1
	c2.1-0.5,3.1-0.6,2.8-0.3c-0.1,0.1-0.3,0.3-0.5,0.7c-0.5,0.9-2.5,2.7-4.6,4.1c-0.7,0.5-0.9,0.6-0.9,0.8c0,0.6,0.2,0.6,1,0.5
	c1.8-0.6,4.2-1.6,6.1-2.8c0.6-0.5,1.2-0.8,1.5-0.9c0.1-0.1,0.3-0.3,0.5-0.5c0.1-0.3,0.1-0.5-0.1-0.7c-0.2-0.3-1.7-1.1-2.3-1.2h-0.5
	l0.6-0.1c2-0.2,5.8-0.5,10.5-0.6c5.8-0.1,5.9-0.1,6-0.8c0-0.2-0.1-0.3-0.6-0.8c-0.6-0.6-1.7-1.1-2.5-1.2c-0.3,0-1.1,0.1-2.1,0.2
	c-0.9,0.2-1.7,0.3-1.7,0.2c0,0,0.1-1.9,0.2-4.4c0.2-3.8,0.2-4.4,0.5-5.1c0.2-0.6,0.2-0.7,0.1-0.9c-0.3-0.5-0.9-0.9-1.8-1.2
	s-1.1-0.5-1.8-0.1c-0.7,0.2-2.3,0.6-2.4,0.6c0-0.1,0.5-1.9,0.6-2s2-0.3,4.4-0.5c3.1-0.1,3.6-0.2,3.8-0.5c0.6-0.5-0.1-1.2-1.2-1.8
	c-0.8-0.3-1.4-0.3-4,0.1c-1.1,0.2-2.1,0.3-2.3,0.3c-0.3,0-0.2-0.2,0.2-1.2c0.2-0.6,0.3-0.9,0.3-1.1c-0.1-0.3-0.7-0.8-1.6-1.1
	C146.8,966.9,146.2,966.8,146,967 M150,976.6c0.1,0.2,0.1,1.1,0,1.1c0,0-0.3,0-0.7-0.1c-0.6-0.1-0.8-0.1-1.5,0.1
	c-1,0.2-4,0.8-4.2,0.8c-0.1,0-0.2-0.8,0-1c0,0,0.8-0.2,1.8-0.3c1-0.2,2.1-0.5,2.6-0.5C149.1,976.5,149.7,976.5,150,976.6
	 M150.1,980.1v0.7l-0.3-0.1c-0.6-0.1-1.6,0-3.5,0.3c-1,0.2-2.1,0.5-2.4,0.5h-0.5v-0.6v-0.6h0.7c0.3,0,1.4-0.1,2.1-0.2
	c0.8-0.2,1.9-0.5,2.4-0.5c0.6-0.1,1.1-0.2,1.1-0.2c0-0.1,0.1-0.1,0.2-0.1S150.1,979.5,150.1,980.1 M150.1,982.9v0.6l-0.6-0.1
	c-0.3,0-1.1,0.1-2.4,0.3c-1.5,0.2-3.4,0.6-3.7,0.6c0,0,0-0.2,0-0.6v-0.5h0.8c1,0,5.3-0.7,5.9-0.9
	C150.1,982.3,150.1,982.6,150.1,982.9 M150.1,985.8c0,0.5,0,0.7-0.1,0.7s-1.6,0.1-3.3,0.3c-1.7,0.1-3.2,0.2-3.3,0.2
	s-0.1-0.2-0.1-0.5v-0.6h1.1c0.6-0.1,2-0.3,3.3-0.6c1.2-0.1,2.3-0.3,2.3-0.3C150.1,985.2,150.1,985.5,150.1,985.8 M148.8,989
	c-0.1,0.2,0.1,0.8,0.9,1.4c0.2,0.2,1.1,1.1,2,2.1c1.5,1.7,2.3,2.4,2.8,2.4c0.7,0,1.2-1.1,1-2c-0.3-1.2-1-2-2.8-2.8
	C150.5,988.9,149.1,988.6,148.8,989"/>
<path d="M151.7,999.4c-0.8,0.3-4.6,1.1-6.3,1.5c-0.8,0.1-2.1,0.3-3.2,0.3c-0.9,0.1-1.8,0.3-1.9,0.3c-0.2,0.2-0.1,0.7,0.1,0.9
	c0.6,0.5,1.5,0.7,2.6,0.6c0.7,0,0.9,0,1,0.1s0.1,0.7,0.1,1.4v1.2h-0.3c-0.3,0.1-6.1,0.8-7.7,1c-1.1,0.1-1.4,0.2-1.4,0.7
	c0,0.3,0.9,1.1,1.6,1.2c0.8,0.3,1.1,0.2,2.6-0.1s4.7-1,4.9-0.9c0,0.1-0.5,2.4-0.7,2.8l-0.2,0.3l-2.3,0.3c-1.9,0.3-2.4,0.3-2.5,0.6
	c-0.2,0.2-0.2,0.2-0.1,0.6c0.2,0.3,1.4,0.8,2.1,0.8c0.2,0,0.8-0.1,1.2-0.1c0.5-0.1,0.8-0.2,0.8-0.1c0.1,0-0.5,1.2-1.1,2.3
	c-1.7,2.6-3.2,4-6.2,5.8c-1.6,1-1.8,1.2-1.4,1.6c0.3,0.3,3.1-0.6,4.9-1.6c1.1-0.7,2.3-1.7,3.3-2.8c0.3-0.5,0.7-0.8,0.7-0.8
	s0.1,0.5,0.1,0.9c0.1,0.3,0.3,1.5,0.3,2.5c0.3,2.4,0.6,3.2,1.2,3.6c0.3,0.2,0.8,0,0.9-0.6c0.1-0.5,0.2-0.5,0.6-0.5
	c0.6,0,8.7-0.7,9.2-0.8c0.3,0,0.5-0.1,0.5-0.3s-0.1-0.5-0.2-0.7l-0.3-0.3l0.6-1.7c0.5-1.4,0.7-1.9,1-2.5c0.3-0.3,0.6-0.8,0.6-0.9
	c0-0.2-0.7-0.9-1.6-1.5c-1-0.7-1.1-0.7-3.3-0.2c-4.3,1-8.2,1.6-8.2,1.1c0-0.1,0.1-0.3,0.3-0.6c0.1-0.3,0.5-1,0.7-1.5l0.5-1l0.8-0.1
	c1-0.1,4.9-0.5,6.4-0.6c1.1,0,1.5-0.1,1.5-0.7c0-0.1-0.1-0.3-0.3-0.6l-0.3-0.2l0.5-1.8l0.5-1.7l1.1-0.1c0.6,0,2,0,3.2,0
	c1.7,0.1,2,0.1,2.4,0c0.2-0.1,0.3-0.3,0.3-0.3c0.1-0.7-0.3-1.1-1.2-1.6c-0.7-0.3-0.8-0.3-1.7-0.3c-0.6,0-1.5,0-2.1,0.1
	c-1,0.1-1.2,0.1-1.2,0c0-0.3,0.6-1.8,0.9-2.4c0.6-0.7,0.6-1,0-1.6c-0.5-0.5-2.1-1.2-2.7-1.4C152.5,999.2,152,999.3,151.7,999.4
	 M151.9,1001.9c0,0.1-0.3,2.9-0.5,3.1c0,0-4.4,0.5-4.5,0.5c0-0.1,0.1-0.5,0.2-0.9c0.2-0.5,0.3-0.9,0.3-1s-0.2-0.5-0.3-0.7l-0.5-0.3
	l0.8-0.1C150.3,1001.7,151.8,1001.6,151.9,1001.9 M151.1,1007c0,0-0.6,2.8-0.6,2.9c-0.1,0-4.9,0.7-5,0.6c0,0,0.8-3.1,0.9-3.2
	c0,0,1-0.1,2.3-0.2c1.2-0.1,2.3-0.2,2.3-0.2C151.1,1006.9,151.1,1006.9,151.1,1007 M152.3,1016.2c0.3,0,0.2,0.7-0.1,2.6
	c-0.2,1.4-0.3,1.6-0.5,1.7c-0.6,0.2-6.7,1-6.8,0.9c0-0.1-0.3-4.1-0.3-4.2c0.1,0,4.6-0.8,5.8-0.9
	C151.9,1016.1,152.1,1016.1,152.3,1016.2"/>
<path d="M149.5,1030.3c-2.1,0.6-4.9,0.9-8.8,1.4c-0.8,0-1.1,0.2-1.1,0.5s0.7,0.9,1.2,1.2c0.8,0.3,1,0.5,1.9,0.2
	c0.8-0.2,5.6-1.1,6.7-1.2c0.7,0,0.8,0,0.8,0.1c0,0.3-3.2,4.1-3.4,4.1c-0.3-0.2-1.1-0.2-1.4-0.1c-0.3,0.2-0.3,0.5,0.1,1.2
	c0.6,0.7,0.7,1.1,0.8,2.3v0.9h-0.6c-1.4,0.2-9,0.8-9.8,0.8c-2.3,0-2.7,0.5-1.6,1.5c0.6,0.6,1.5,1,2.1,1c0.1,0,0.7-0.1,1.2-0.2
	c2-0.5,6.2-1,8-1h0.7v2.7c-0.1,3.8-0.5,5.8-1.1,5.9c-0.1,0-0.7-0.1-1.2-0.2c-0.7-0.2-1-0.2-1.2-0.1c-0.5,0.2-0.3,0.6,0.9,1.9
	c0.7,0.7,1.4,1.5,1.6,1.7c0.6,0.7,0.9,0.8,1.5,0.6c0.3-0.2,0.9-1,1.2-1.8c0.7-1.5,1-5.3,0.8-8.8c0-1,0-1.9,0-1.9s2.5-0.1,5.4-0.1
	c5.3,0,5.4-0.1,5.8-0.3c0.1-0.1,0.3-0.2,0.3-0.3c0.1-0.7-0.8-1.4-2.1-1.8c-1-0.3-1.4-0.5-3.1-0.1c-0.8,0.1-2.4,0.3-3.4,0.3
	c-1.1,0.1-2.4,0.2-2.6,0.3h-0.6v-0.6c0-0.7-0.1-1.9-0.2-2.4c-0.1-0.2,0-0.5,1.6-1.6c2.1-1.7,2.6-2,3.6-2.6s1.4-0.9,1.2-1.4
	s-0.5-0.8-1.2-1.2c-0.9-0.7-1.8-1-2.4-1C150.9,1029.9,150.2,1030,149.5,1030.3"/>
<path d="M1026.9,847.3l-0.2,0.3l0.1,0.6c0.2,0.5,0.2,0.9,0.3,2.6v2.1l-0.6,0.1c-0.2,0-1,0.2-1.6,0.3c-1.6,0.2-1.8,0.3-1.8,0.7
	c0,0.2,0.1,0.5,0.5,0.6c0.7,0.5,1.4,0.6,2.5,0.5c0.5-0.1,0.9-0.2,1-0.2c0.1,0,0.1,0.3,0.1,1.1c0,1.1,0,1.1-0.2,1.1
	c-0.6,0.2-5.5,1-6.4,1.1c-0.6,0.1-1.2,0.2-1.4,0.3c-0.6,0.3-0.1,1,1,1.6c0.3,0.1,0.7,0.2,0.9,0.2s1-0.2,1.8-0.5c1.5-0.5,4-1,4.1-0.9
	c0.1,0.1,0.2,2.3,0.2,3.6v1.2l-0.7-0.3c-0.3-0.2-0.7-0.3-0.7-0.5c-0.1,0,0-0.2,0.2-0.5c0.5-0.6,0.5-0.9-0.1-1.4
	c-0.9-0.8-2.1-1.2-2.5-0.9c-0.1,0.1-0.2,0.6-0.2,1c-0.3,2-1.5,4.3-3.3,6.4c-0.3,0.3-0.8,0.9-0.9,1c-0.1,0.3-0.1,0.3,0.1,0.6
	c0.3,0.3,0.6,0.2,1.7-0.6c1.2-0.9,2.4-2,3.2-3.3c0.3-0.6,0.8-1.1,0.8-1.1c0.1-0.1,1.6,0.8,3.4,2c3.7,2.5,6.1,4,8.1,4.9
	c2.3,1.1,2.8,1.1,6.6,0.6c4.1-0.8,4.2-0.8,4.2-1.4c0-0.5-0.5-0.6-2.8-0.8c-3.7-0.6-6.4-1.1-8.7-1.9c-1.2-0.5-3.8-1.6-5.3-2.4
	c-1.2-0.6-1.1-0.3-0.9-2c0-0.7,0-0.8,0.2-0.8c0.1,0.1,2.8-0.3,3.3-0.6c0.5-0.1,0.7-0.6,0.5-0.9c-0.3-0.5-1-0.8-1.6-0.8
	c-0.2,0-0.8,0.1-1.2,0.3c-0.6,0.1-0.9,0.2-1,0.2c0-0.1,0-0.5,0.1-1c0.2-0.8,0.2-0.8,0-1.1c-0.1-0.2-0.2-0.3-0.1-0.3
	c0.2,0,4.3-0.6,4.5-0.7c0.3-0.1,0.3-0.8-0.1-1.1c-0.7-0.5-2.1-0.6-3.5-0.2c-0.5,0.1-0.9,0.2-0.9,0.2c-0.1,0,0-2.3,0-2.4
	c0.1,0,0.7-0.1,1.5-0.2c1.6-0.3,2.3-0.6,2.4-0.9c0.1-0.5-0.3-0.9-1.1-1.1c-0.8-0.2-1.1-0.2-1.8,0c-0.3,0.1-0.7,0.2-0.7,0.2
	c-0.2,0-0.1-2.1,0.2-3.2c0.1-0.6,0.1-0.8,0-1c-0.1-0.3-1.4-0.9-2.1-1C1027.2,847.1,1027.1,847.1,1026.9,847.3 M1039.7,851.6
	c-0.5,0.2-1,0.5-1.9,0.7l-1.4,0.3l-0.7-0.3c-1.5-0.6-2.1-0.1-1.7,1c0.2,0.6,0.2,0.9,0.2,5c0,3.6,0,4.4,0.2,5c0.3,1.1,1.1,2,2.6,2.6
	c0.9,0.3,3.2,0.5,4.5,0.2c2-0.5,3.4-1.2,3.6-2.1c0-0.3-0.1-0.6-0.3-1.2c-0.1-0.3-0.5-1.1-0.6-1.6c-0.3-1.1-0.3-1.2-0.7-1.2
	c-0.5,0-0.6,0.2-0.7,1.2c-0.2,1.4-0.6,2-1.5,2.5c-0.6,0.2-0.7,0.2-1.9,0.2c-2.9,0-3.5-0.6-3.4-3.5c0.1-0.9,0.1-1.6,0.1-1.6
	c0.1,0,1.9-0.2,3.8-0.5c1-0.1,1.4-0.2,1.5-0.3c0.1-0.2,0.1-0.3-0.1-0.7c-0.1-0.3-0.1-0.5,0.2-1.5c0.5-1.4,0.7-1.9,1.1-2.4
	c0.5-0.7,0.1-1.2-1-1.8C1040.8,851,1040.4,851,1039.7,851.6 M1039.7,854c0,0.3-0.1,1-0.2,1.6l-0.1,1l-1.5,0.2
	c-0.8,0.1-1.5,0.2-1.5,0.2c0-0.1,0.2-1.9,0.3-2.4l0.1-0.6l0.9-0.2c1.1-0.3,1.4-0.5,1.7-0.5h0.3V854"/>
<path d="M1034.7,877.3c-1.2,1.5-5,3.4-7.8,4.1c-1.2,0.3-1.5,0.3-1.6,0.7c-0.1,0.2-0.1,0.2,0.1,0.5c0.2,0.2,0.3,0.2,1.2,0.2
	c1.5-0.1,2.9-0.5,4.1-0.7l0.9-0.3l0.1,0.5c0.3,1.5,0.5,2.4,0.1,2.4c-0.3,0.1-5,0.8-5.4,0.8c-0.9,0-1.4,0.5-1,1.1
	c0.6,0.7,1.7,0.8,4.9,0.5c1-0.1,1.8-0.2,1.9-0.2c0,0.1,0.1,0.7,0.1,1.4c0,0.9,0,1.1-0.1,1.1c-0.1,0-1.1,0.1-2.3,0.2
	c-2.9,0.3-6.9,0.7-7.6,0.7c-1.7,0-1.8,0.9-0.2,1.7c1,0.5,1.5,0.5,4,0c1.5-0.2,5.4-0.8,6.1-0.8c0.2,0,0.2,0,0.2,1.9
	c-0.2,3.3-0.6,6.4-0.8,6.7c-0.1,0-0.7-0.1-1.4-0.3c-0.7-0.1-1.4-0.2-1.4-0.2c-0.2,0.1-0.2,0.6-0.1,0.8c0.1,0.1,0.6,0.5,1,0.9
	c0.5,0.5,1,1,1.4,1.5c0.3,0.3,0.7,0.7,0.9,0.8c1,0.5,2-1.2,2.4-4c0.1-0.6,0.1-2.7,0.2-4.6v-3.6h0.9c0.5-0.1,2.5-0.1,4.5-0.2
	c4.4,0,4.6,0,4.9-0.5c0.1-0.2,0.1-0.2-0.1-0.7c-0.1-0.2-0.3-0.5-0.9-0.8c-1.1-0.6-1.7-0.6-3.3-0.3c-1.4,0.2-5.9,0.7-6,0.7
	c0,0,0-0.7-0.1-1.4v-1.4l0.9-0.1c2.9-0.5,4.6-0.9,4.7-1.4c0.1-0.6-1-1.4-2-1.4c-0.2,0-1.1,0.1-1.8,0.3c-2,0.5-1.9,0.6-1.9-1.1
	c-0.1-1-0.1-1.5-0.3-1.6c-0.1-0.2-0.1-0.2,0.5-0.5s2.3-0.9,2.8-1.1c0.1-0.1,0.3-0.2,0.5-0.3c0.3-0.6-0.6-1.6-1.8-2.1
	C1035.5,876.6,1035.2,876.7,1034.7,877.3"/>
<path d="M1028.7,907.4c-0.2,0.1-0.2,0.3-0.3,1.1c-0.1,1.1-0.2,1.5-1,3.1s-1.6,2.8-2.4,4c-0.3,0.5-0.7,0.9-0.7,1
	c-0.1,0.3,0.1,0.7,0.5,0.7c0.2,0,0.3,0,0.5,0.5c0.2,0.5,0.6,1.7,0.6,2.1c0,0.3,0,0.3-1.4,0.5c-1.2,0.1-1.2,0.2-1.4,0.5
	c-0.2,0.5,0,0.7,0.9,1.1c0.6,0.3,0.9,0.3,1.5,0.3h0.7l0.1,1.2c0.1,0.8,0.2,1.4,0.3,1.5c0,0.1-1.9,0.3-4.5,0.5
	c-1.2,0.1-1.5,0.1-1.7,0.3c-0.2,0.3,0.2,1,1.2,1.5c0.8,0.3,1.4,0.3,2.5,0.1c3.2-0.8,8-1.1,16.3-1.4c2.6-0.1,4.6-0.1,4.9-0.2
	c0.5-0.1,0.6-0.6,0.3-1c-0.2-0.3-1.7-1.1-2.4-1.2c-0.5,0-2.3,0.2-3.6,0.5h-0.3l0.3-1.7l0.2-1.7h0.5c0.2-0.1,0.8-0.1,1.4-0.1
	c1,0,1.6-0.2,1.7-0.7c0.1-0.6-1.4-1.6-2.5-1.8c-0.2,0-0.5,0-0.5,0c0-0.1,0.1-0.3,0.3-1.1c0.1-0.2,0-0.3-0.1-0.6
	c-0.6-0.7-2.1-1.4-2.7-1.1c-0.5,0.1-0.5,0.5-0.3,1.2c0.1,0.6,0.2,1,0.1,1.5v0.7l-0.8,0.1l-0.8,0.1V918c0.2-1.4,0.1-1.5,0-1.7
	c-0.2-0.2-1.5-0.6-2.1-0.6c-0.8,0-0.9,0.2-0.6,1.4c0.2,0.6,0.2,0.9,0.2,1.5v0.8h-0.8c-0.3,0.1-0.7,0.1-0.8,0.1c0-0.1,0-0.6,0-1.2
	c0-1.1-0.1-1.1-0.3-1.4c-0.3-0.3-1.7-0.6-2-0.5c-0.6,0.2-0.7,0.3-0.3,1.4c0.2,0.6,0.3,1.2,0.3,1.5l0.1,0.6h-0.5
	c-0.2,0.1-0.6,0.1-0.8,0.1h-0.3v-1.1c0-1.1,0-1.1-0.3-1.4c-0.1-0.2-0.5-0.3-0.8-0.5c-0.3-0.1-0.7-0.1-0.8-0.2c-0.2,0,0-0.2,0.6-0.7
	c0.3-0.3,0.9-0.8,1.1-1c0.3-0.5,0.3-0.5,0.9-0.3c0.7,0.1,0.9,0.1,4.2-0.6c1.2-0.2,3.1-0.6,4.2-0.7c2.3-0.2,2.8-0.3,2.9-0.7
	c0.3-0.6-0.1-1-1.4-1.5c-0.9-0.3-1.6-0.3-2.7,0c-2.1,0.7-6.3,1.7-6.6,1.6c0,0,0.3-0.9,1-1.8c1-1.8,1-1.8,0.9-2.1
	c-0.2-0.5-0.6-0.8-1.4-1.2C1029.2,907.2,1029,907.1,1028.7,907.4 M1037.4,921c0,0.2-0.1,1-0.1,1.7c-0.1,0.8-0.2,1.4-0.2,1.4
	c0,0.1-0.3,0.1-0.7,0.1l-0.6,0.1V923c0.1-0.7,0.1-1.4,0.1-1.7v-0.6h0.6c0.3,0,0.7-0.1,0.8-0.1C1037.5,920.6,1037.5,920.8,1037.4,921
	 M1033.5,924.4c0,0-0.3,0.1-0.8,0.1h-0.7v-0.9c0-0.5,0-1.1-0.1-1.6v-0.8l0.8-0.1h0.9v1.6C1033.6,923.6,1033.6,924.4,1033.5,924.4
	 M1030,923.1c0.1,0.8,0.1,1.5,0.1,1.5c0,0.1-0.5,0.1-0.8,0.1l-0.8,0.1l-0.1-0.8c-0.1-0.5-0.1-1.1-0.1-1.6l-0.1-0.7l0.6-0.1
	C1029.9,921.4,1029.9,921.3,1030,923.1 M1039.4,927.2c-0.3,0.1-0.3,0.6,0.3,1.7c1.5,2.3,2.1,3.2,2.7,3.5c0.5,0.2,0.6,0.2,0.9,0.1
	c0.9-0.6,1.1-2,0.2-3.2c-0.3-0.7-1.6-1.5-2.7-1.9C1039.9,927.1,1039.9,927.1,1039.4,927.2 M1034.4,927.3c-0.3,0.2-0.2,0.9,0.2,2.6
	c0.5,1.2,0.7,1.6,0.9,1.9c0.8,0.7,1.7,0.3,2-0.8c0.1-0.6,0.1-0.7-0.1-1.5C1036.9,928.3,1035.1,926.9,1034.4,927.3 M1028.9,927.7
	c-0.3,0.2-0.2,0.5,0.1,2.1c0.7,2.3,1.1,2.9,1.9,2.8c0.8-0.2,1.2-0.9,1.1-2c-0.1-1.2-0.9-2.3-2.1-2.9
	C1029.2,927.4,1029.1,927.3,1028.9,927.7 M1024.6,927.7c0,0-0.3,0.3-0.5,0.8c-0.2,0.3-0.8,1.1-1.1,1.6c-0.9,1.1-0.9,1.4-0.7,2.1
	c0,0.3,0.2,0.8,0.5,0.9c0.3,0.3,0.5,0.3,0.8,0.3c0.8-0.2,1.6-1.1,2-2.7c0.2-1.1,0.1-2.4-0.5-2.8
	C1024.9,927.5,1024.8,927.5,1024.6,927.7"/>
<path d="M1040.4,941.7c-1.1,0.2-3.7,0.6-10.1,1.2l-6.2,0.6l-0.8-0.2c-1.4-0.3-2-0.2-2,0.3c0,0.1,0.2,0.6,0.3,1
	c0.7,1.2,0.9,2.5,1.5,9.3c0.1,2.7,0.3,5.2,0.5,5.3c0.2,1.2,0.6,1.7,1.2,1.7c0.3-0.1,0.8-0.7,0.8-1.1c0-0.2,0-0.2,0.5-0.2
	c0.7,0,3.7-0.2,7.9-0.5c2.1-0.1,3.7-0.2,3.7-0.1c0,0,0.3,0.7,0.6,1.4c0.6,1.6,0.9,1.8,1.6,1.6c0.8-0.2,1.5-1.4,2-3.1
	c0.3-1,0.8-3.7,1-5.1c0.1-2,0.8-7.1,1-7.7c0-0.5,0.2-1,0.5-1.4c0.2-0.3,0.3-0.7,0.3-0.8c0-0.3-0.3-0.8-1.1-1.4
	C1042.2,941.6,1041.6,941.3,1040.4,941.7 M1040.4,943.9c0.3,0.1,0.3,0.1,0.3,1.5c0,3.1-0.7,9.3-1.2,11.2l-0.2,0.8l-0.6-0.3
	c-0.8-0.3-1.8-0.3-4.4-0.1c-0.9,0.1-2.9,0.3-4.4,0.3c-1.5,0.1-3.1,0.2-3.5,0.3h-0.8l-0.1-2.1c-0.1-1.1-0.2-3.8-0.5-6.1
	c-0.2-2.1-0.3-4-0.3-4.1c0.2-0.1,11.1-1.2,13.3-1.4c0.9,0,1.7-0.1,1.9-0.1C1040.1,943.8,1040.3,943.8,1040.4,943.9 M1033.4,947.1
	c-0.6,0.1-1.7,0.3-2.4,0.5c-1.4,0.2-1.5,0.2-2.1,0c-0.9-0.2-1.2-0.2-1.5,0s-0.2,0.5,0.1,0.9c0.3,0.5,0.6,1.1,0.9,3.2
	c0.2,1.1,0.3,2,0.5,2.1c0.2,0.5,0.6,0.8,0.9,0.8c0.2,0,0.7-0.5,0.7-0.7c0-0.1,0.2-0.2,0.6-0.2c0.2,0,1.1-0.1,1.9-0.2
	c0.8,0,1.7-0.1,2-0.1c0.9,0,1.4-0.5,0.8-1c-0.2-0.3,0.5-2.5,1.1-3.3c0.6-0.7,0.2-1.2-0.9-1.8
	C1035.1,946.7,1034.7,946.7,1033.4,947.1 M1034,949c0,0.2-0.1,0.9-0.2,1.5c-0.1,0.6-0.2,1-0.2,1c0,0.1-2.9,0.5-3.1,0.3
	c-0.1,0-0.3-2.7-0.3-2.7c0.1-0.1,3.2-0.6,3.5-0.6h0.5L1034,949"/>
<path d="M1030.3,969.5c-0.3,0.1-0.6,0.3-0.6,0.7c0,0.1,0.1,0.6,0.3,1c0.2,0.7,0.3,1.1,0.5,1.7c0,0.8-0.1,5-0.2,5.1
	c0,0-5.4,0.7-6.7,0.9c-1.2,0.1-1.4,0.7-0.6,1.2c0.2,0.2,0.8,0.5,1.1,0.6l0.6,0.2l1.1-0.2c1.1-0.2,3.7-0.7,4-0.7c0,0,0,0.3-0.6,1.6
	c-1,2.7-2,4.3-4.3,6.6c-1.7,1.8-2.1,2.1-4.1,3.3c-0.7,0.5-1.2,0.9-1.4,1c0,0.1,0,0.3,0,0.5c0.1,0.2,0.1,0.2,0.6,0.2
	c1.1-0.2,4.3-1.7,5.9-2.8c1.2-0.8,2.4-2,3.5-3.5c1-1.5,1.6-2.4,2.1-4c0.2-0.7,0.6-1.2,0.6-1.2s0.5,0.8,1,1.8c2,3.6,4.7,7.7,5.6,8.4
	c0.8,0.5,1.2,0.6,2.8,0.7c1.6,0,4-0.2,4.4-0.5c0.3-0.2,0.6-0.6,0.5-0.8c0-0.1-0.8-0.6-1.7-1c-1.9-0.9-4-2.1-5.2-3.1
	c-1.4-1-3.7-3.6-5.1-5.5c-0.7-0.9-1.2-1.7-1.4-1.8c0-0.2,1.1-0.3,4.6-0.6c3.1-0.2,3.4-0.2,3.6-0.8c0.1-0.2,0.1-0.2-0.2-0.6
	c-0.3-0.5-1.1-0.8-1.9-1c-0.6-0.2-0.8-0.2-1.7,0c-0.8,0.2-4.1,0.7-4.4,0.7c-0.1,0-0.1-0.2-0.1-0.6c0.1-0.3,0.1-1.4,0.2-2.4
	c0.1-1,0.2-1.9,0.3-2.4s0.2-0.9,0.2-1.1c0-0.6-1-1.2-2.4-1.6C1030.6,969.3,1030.5,969.3,1030.3,969.5"/>
<path d="M1030.8,999.7c-0.5,0.2-0.6,0.6-0.2,1.5c0.5,0.9,0.6,1.8,0.6,4.1l0.1,1.9l-4.4,0.7c-2.4,0.3-4.5,0.7-4.6,0.8
	c-0.7,0.3-0.3,0.9,0.7,1.4s1.5,0.6,2.9,0.2c1.2-0.3,5.2-1,5.2-1c0.2,0.2-0.5,3.5-0.8,4.6l-0.2,0.6l-1.2-1c-1.7-1.4-1.8-1.4-3.3-1.4
	c-0.9,0-1.1,0-1.4,0.1c-0.2,0.3-0.3,0.7,0,0.9c0.1,0.1,0.6,0.3,1,0.5c0.5,0.2,1,0.5,1.4,0.7c0.7,0.3,1.7,1.2,2.1,1.8l0.3,0.5
	l-0.6,0.7c-1.2,1.7-4.2,3.7-7,4.9c-1.6,0.6-1.7,0.7-1.7,1.1c0.1,0.5,0.5,0.6,2.1,0.2c2.6-0.7,4.2-1.2,6.1-2.6
	c0.8-0.5,2.1-1.7,2.6-2.3l0.2-0.3l0.8,0.7c0.3,0.5,1.6,1.6,2.5,2.5c3.2,3.1,3.6,3.3,6.2,3.4c1.4,0,1.9,0,3.1-0.2
	c2.5-0.5,2.8-0.6,2.8-1.1c0-0.3-0.3-0.6-1.9-0.9c-1.7-0.5-3.4-1-5.3-1.9c-1.8-0.8-2.6-1.1-5.3-3.2l-1.6-1.1l0.3-0.7
	c0.7-1.2,1.4-4.1,1.6-5.9c0-0.9-0.5-0.8,3.8-1.1c3.4-0.2,3.7-0.3,3.7-0.8c0-0.6-0.9-1.4-2-1.8c-0.6-0.1-0.8-0.1-1.8,0.1
	c-0.9,0.2-3.5,0.7-3.6,0.7c0-0.1,0.2-3.8,0.5-4.4c0.2-1.2,0.2-1.4,0-1.7c-0.3-0.3-1-0.6-2-0.8
	C1031.6,999.6,1031.3,999.6,1030.8,999.7"/>
<path d="M1029.9,1029c-0.1,0-0.3,0.2-0.5,0.3c-0.1,0.2-0.1,0.3,0.1,0.9c0.3,0.9,0.6,2.5,0.6,4.2v1.6l-1.9,0.2
	c-1.1,0.1-2.1,0.2-2.4,0.3c-0.7,0-0.9,0.2-0.9,0.6c0,0.3,0.5,0.8,1.1,1c0.6,0.1,0.8,0.1,2.4,0c0.9,0,1.7-0.1,1.7-0.1
	c0,0.1-0.3,3.8-0.5,3.8c-0.1,0.1-3.5,0.6-5.7,0.7c-1.7,0.1-2.1,0.2-2.1,0.7c0,0.6,1.4,1.5,2.1,1.5c0.2,0,0.9-0.1,1.5-0.2
	c0.6,0,1.7-0.2,2.4-0.3c1-0.1,1.4-0.1,1.4-0.1c0,0.3-0.6,1.8-0.9,2.5c-1.5,2.8-3.7,5-7.8,7.1c-0.9,0.5-0.9,0.5-0.9,0.8
	c0.1,0.5,0.6,0.6,1.6,0.2c2.9-0.8,4.9-1.8,6.7-3.6c1.6-1.6,2.6-3.2,3.3-5.1c0.2-0.6,0.3-1,0.3-1c0.1,0,0.7,1,1.5,2.1
	c1.9,3.2,3.4,5.2,5.2,7.1c1,1,1.4,1.1,3.2,1.1c1.5,0,4.2-0.2,4.7-0.5c0.3-0.1,0.5-0.6,0.2-0.9c-0.1-0.1-0.7-0.3-1.1-0.6
	c-2.8-1.2-5.8-2.9-7.1-4.1c-1.5-1.1-3.4-3.2-4.9-5.1l-0.5-0.6h0.3c0.6-0.1,4.9-0.5,6.7-0.5c1.6-0.1,2-0.2,2.1-0.6
	c0.2-0.6-0.5-1.2-1.8-1.7c-0.9-0.2-1.1-0.2-2.5,0c-0.9,0.2-4.4,0.7-5,0.7c-0.3,0-0.3,0-0.3-0.2c0.1-0.1,0.1-1,0.2-1.9
	c0.1-0.9,0.1-1.7,0.2-1.7c0-0.1,0.8-0.2,1.8-0.3c0.9-0.2,2-0.5,2.5-0.6c1.7-0.3,1.7-1.1,0.2-1.8c-0.9-0.5-1.2-0.5-3.1,0
	c-0.8,0.2-1.4,0.3-1.5,0.3c-0.1-0.1,0.2-3.5,0.5-4.3c0.2-0.7,0.2-0.8,0.1-1c-0.2-0.5-0.7-0.6-1.6-0.9
	C1030.6,1029,1030.3,1028.9,1029.9,1029"/>
<path id="line_16_" class="st2" d="M590,549.5v-400"/>
<g>
	<path id="line_17_" class="st2" d="M490,549.5v-400"/>
</g>
<g>
	<path id="line_18_" class="st2" d="M390,549.5v-400"/>
</g>
<g>
	<path id="line_19_" class="st2" d="M290,549.5v-400"/>
</g>
<path id="line_20_" class="st2" d="M190,549.5h400"/>
<g>
	<path id="line_21_" class="st2" d="M190,449.5h400"/>
</g>
<g>
	<path id="line_22_" class="st2" d="M190,349.5h400"/>
</g>
<g>
	<path id="line_23_" class="st2" d="M190,249.5h400"/>
</g>
<path id="mark_24_" class="st0" d="M557,436.5h20v-20"/>
<path id="mark_25_" class="st0" d="M577,482.5v-20h-20"/>
<path id="mark_26_" class="st0" d="M357,436.5h20v-20"/>
<path id="mark_27_" class="st0" d="M377,482.5v-20h-20"/>
<path id="mark_28_" class="st0" d="M423,462.5h-20v20"/>
<path id="mark_29_" class="st0" d="M403,416.5v20h20"/>
<path id="mark_30_" class="st0" d="M257,336.5h20v-20"/>
<path id="mark_31_" class="st0" d="M277,382.5v-20h-20"/>
<path id="mark_32_" class="st0" d="M323,362.5h-20v20"/>
<path id="mark_33_" class="st0" d="M303,316.5v20h20"/>
<path id="mark_34_" class="st0" d="M221,462.5h-20v20"/>
<path id="diagonal_4_" class="st2" d="M590,249.5l-100,100"/>
<path id="diagonal_5_" class="st2" d="M590,249.5l-100-100"/>
<path id="line_24_" class="st2" d="M590,549.5v-400"/>
<g>
	<path id="line_25_" class="st2" d="M690,549.5v-400"/>
</g>
<g>
	<path id="line_26_" class="st2" d="M790,549.5v-400"/>
</g>
<g>
	<path id="line_27_" class="st2" d="M890,549.5v-400"/>
</g>
<path id="line_28_" class="st2" d="M990,549.5H590"/>
<g>
	<path id="line_29_" class="st2" d="M990,449.5H590"/>
</g>
<g>
	<path id="line_30_" class="st2" d="M990,349.5H590"/>
</g>
<g>
	<path id="line_31_" class="st2" d="M990,249.5H590"/>
</g>
<path id="mark_36_" class="st0" d="M623,436.5h-20v-20"/>
<path id="mark_37_" class="st0" d="M603,482.5v-20h20"/>
<path id="mark_38_" class="st0" d="M823,436.5h-20v-20"/>
<path id="mark_39_" class="st0" d="M803,482.5v-20h20"/>
<path id="mark_40_" class="st0" d="M757,462.5h20v20"/>
<path id="mark_41_" class="st0" d="M777,416.5v20h-20"/>
<path id="mark_42_" class="st0" d="M923,336.5h-20v-20"/>
<path id="mark_43_" class="st0" d="M903,382.5v-20h20"/>
<path id="mark_44_" class="st0" d="M857,362.5h20v20"/>
<path id="mark_45_" class="st0" d="M877,316.5v20h-20"/>
<path id="mark_46_" class="st0" d="M960,462.5h20v20"/>
<path id="mark_47_" class="st0" d="M980,416.5v20h-20"/>
<path id="diagonal_6_" class="st2" d="M590,249.5l100,100"/>
<path id="diagonal_7_" class="st2" d="M590,249.5l100-100"/>
<path d="M1037.4,352.6c0-0.1,0.1-0.7,0.1-1.4c0-0.8,0-1.6,0.2-2.3c0.5-2.3,0.6-2.6,0.5-2.8c-0.1-0.1,0-0.2,0.1-0.2
	c0.3-0.2,0.5-0.7,0.1-1c-0.2-0.1-0.3-0.5-0.5-1.2c-0.2-1.6-0.2-1.7-0.6-1.9c-0.2-0.2-0.3-0.2-0.5-0.1s-0.3,0.2-0.5,0.3
	c-0.1,0.1-0.3,0.2-1.6,0.2c-0.8,0.1-1.5,0.2-1.6,0.2c-0.3,0.1-0.2,0.6,0,0.8c0.2,0.2,0.2,0.2,0,0.7c0,0.2-0.2,0.7-0.5,0.9
	c-0.5,0.7-0.5,0.9-0.1,1.2c0.3,0.3,1.4,0.8,1.7,0.8c0.2,0,0.6-0.1,0.8-0.3c0.6-0.2,1.6-0.6,1.9-0.6c0.2,0,0.1,0.2-0.2,0.7
	c-0.1,0.2-0.3,0.7-0.5,0.9c-0.2,0.5-0.3,0.5-0.6,0.5c-0.2-0.1-0.9,0-1.6,0c-1.4,0.2-1.6,0.2-1.6,0.1s-0.1-0.5-0.3-0.9l-0.2-0.6v-2.8
	c0.1-1.7,0.2-3.3,0.3-4c0.2-1.9,0.2-2,0.1-2.6c-0.2-0.7-0.8-1.4-1.1-1.4s-0.7,0.5-0.7,0.7s0,0.3-0.1,0.3c-0.1,0.1,0.1-0.9,0.5-1.7
	c0.2-0.3,0.6-1.1,0.9-1.7l0.7-1.1l0.5,0.2c0.8,0.5,1.5,0.5,2.6,0.2l0.9-0.2v0.5c0,0.2,0,0.5-0.1,0.5c0,0-0.7,0.1-1.4,0.1
	c-1.5,0.2-1.9,0.5-1.9,1c0,0.2,0.1,0.3,0.5,0.5c0.7,0.5,1.4,0.6,1.9,0.3c0.8-0.2,1-0.1,1,0.1c0,0.3,0,0.3-0.3,0.3
	c-1,0-2.7,0.3-2.9,0.6c-0.8,0.7,0.8,1.7,2.3,1.2c0.9-0.2,1-0.2,1,0.2s0,0.5-1.4,0.7c-0.9,0-1.8,0.2-2.1,0.5c-0.5,0.2-0.5,0.7,0,1
	c0.7,0.3,1.5,0.5,2.1,0.3c1.2-0.3,1.2-0.3,1.2-0.1c0,0.9,1.7,2.1,2.6,1.9c0.2,0,0.3,0,0.5,0.2c0,0.3-0.2,1.1-0.7,1.7
	c-0.3,0.5-0.2,0.8,0.5,1.2c0.2,0.2,0.6,0.3,0.7,0.3s0.1,0.1-0.1,0.3c-0.1,0.3-0.1,0.6,0,2.4c0.1,1.7,0.1,2,0.3,2.3
	c0.3,0.2,1.2,0.6,1.8,0.6c0.6,0,0.8-0.1,0.9-0.5c0.1-0.2,0-0.5-0.2-0.9c-0.2-0.3-0.3-0.7-0.2-0.7c0,0,0.8-0.3,1.7-0.6
	c1.8-0.5,2-0.6,2-0.9c0-0.2-0.7-0.9-1.1-1c-0.7-0.3-1-0.2-2,0.2c-0.5,0.2-1,0.5-1.1,0.5c-0.2,0.1-0.3,0.1-0.5-0.6
	c-0.1-0.3-0.3-0.7-0.5-0.9c-0.1-0.2-0.1-0.2,0.1-0.3c0.7-0.3,1.5-0.6,2.5-0.7c0.7,0,1.2-0.1,1.4-0.1c0.3-0.2,0.2-0.8-0.1-1
	c-0.2-0.2-0.3-0.5-0.6-1.2c-0.3-1.4-0.6-1.8-1.1-1.8c-0.2,0-0.3,0.1-0.3,0.3c-0.2,0.5-0.5,0.2-0.5-0.3c0.1-1.4,1.9-3.7,4.2-5.5
	c1-0.8,1.1-1,0.8-1.4c-0.3-0.1-0.3-0.1-0.9,0.1c-0.7,0.2-1.6,0.8-2.4,1.4c-0.3,0.2-0.6,0.5-0.7,0.5c-0.2-0.3,0-4.4,0.3-5.8l0.2-0.8
	l-0.2-0.8c-0.2-0.9-0.7-1.5-1-1.6c-0.2-0.1-0.3,0-0.6,0.2c-0.5,0.3-0.7,1.2-0.7,2.4v0.7l-0.7,0.1c-1.9,0.3-5.5,0.8-6.7,0.8
	c-0.2,0-0.2,0,0.1-0.5c0.3-0.2,0.9-0.7,1.4-1c0.6-0.3,0.9-0.8,0.9-0.8c0-0.3-0.2-0.6-0.6-0.6c-0.5,0-1.7,0.6-2.5,1.1
	c-1.7,1-3.2,2.8-4.2,5c-0.3,0.7-0.7,1.4-0.8,1.7c-0.2,0.3-0.3,0.6-0.2,0.8c0.1,0.3,0.1,0.5-0.1,0.3c-0.3-0.1-0.3-1.2-0.2-4.3
	c0.1-3.3,0.1-3.6-0.5-4.5c-0.7-1.1-1.7-1.6-3.7-1.7c-1.6,0-2.7,0.1-3.6,0.6c-0.7,0.3-1.6,1.1-1.9,1.6c-0.1,0.3-0.1,0.3,0.3,1.5
	c0.5,0.8,0.6,1.4,0.7,1.9c0.1,1.1,0.3,1.5,0.7,1.5c0.5,0,0.6-0.2,0.6-0.9c0.2-1.4,0.5-2.6,0.7-2.9c0.3-0.6,0.8-0.7,2-0.8
	c1.6,0,2.1,0,2.5,0.5l0.3,0.3v1.9c-0.1,2.4-0.3,3.7-0.7,4.5c-0.3,0.6-0.3,0.6-0.5,0.3c-0.2-0.5-0.7-0.7-1-0.5
	c-0.3,0.1-0.7,0.7-0.9,1.2c-0.1,0.5-0.1,1.1-0.1,4.3c0,4,0,4.6-0.5,5.5c-0.2,0.6-0.2,0.6-0.1,0.9c0.3,0.3,1.5,1.1,2,1.2
	c0.2,0,0.7,0,1.2-0.2c0.5-0.1,1.7-0.3,2.7-0.6c1.9-0.3,2-0.3,2.7-0.1c0.6,0.1,0.7,0.2,0.7,0.5s0.2,0.6,0.9,0.9
	c0.6,0.3,1.4,0.3,2,0.1c0.3-0.1,0.7-0.2,0.7-0.2c0.1,0-0.1,0.7-0.5,1.1c-0.1,0.2-0.2,0.5-0.2,0.5c0,0.3,0.7,1,1.1,1.2
	C1036.4,352.7,1037.1,352.8,1037.4,352.6 M1025.4,347.2c-0.1-0.1-0.1-0.6-0.1-1l-0.1-0.9h0.9c0.5,0,1.5-0.1,2.5-0.2
	c0.9-0.2,1.6-0.3,1.7-0.3c0,0,0,0.5-0.1,1v1h-0.5c-0.2,0-0.9,0.1-1.6,0.2C1026.9,347.3,1025.4,347.4,1025.4,347.2 M1035.2,344.3
	c0-0.2,0-0.6,0.1-0.6c0,0,0.2-0.1,0.6-0.1l0.5-0.1v0.6c0,0.7,0,0.7-0.5,0.8C1035.2,345,1035.1,345,1035.2,344.3 M1041.1,343.7
	c0.1-0.2,0.2-0.5,0.2-0.6c0.1-0.1,1.2-0.3,1.4-0.3c0,0.1,0,0.3,0.1,0.6v0.5l-0.7,0.1C1041.1,344.2,1041.1,344.2,1041.1,343.7
	 M1025.2,342.9v-0.8l0.5,0.1c0.6,0.1,0.6,0.1,2.6-0.2c1-0.1,1.9-0.2,2-0.2c0.1,0,0.1,0.2,0.1,0.7l-0.1,0.6l-2.4,0.5
	c-1.4,0.1-2.5,0.3-2.6,0.3C1025.2,343.8,1025.2,343.6,1025.2,342.9 M1039.5,341.5c0-0.1-0.2-0.5-0.3-1l-0.5-0.8l0.6-0.1
	c0.2,0,0.7,0,0.8-0.1c0.2,0,0.2,0,0.1,0.2c-0.2,0.3,0,0.8,0.6,1.4l0.5,0.5h-0.5C1040,341.6,1039.5,341.6,1039.5,341.5 M1025.3,339.7
	c0-0.5,0-0.9,0.1-0.9c0,0,0.2,0,0.5,0.1c0.2,0,1,0,2.4-0.1c1.1-0.1,2-0.2,2.1-0.2c0.1,0,0.1,0.1,0.1,0.8c0,0.8,0,0.9-0.2,0.8
	c-0.2,0-1.2,0.1-2.4,0.2c-1.1,0.1-2.3,0.2-2.4,0.2h-0.3L1025.3,339.7 M1040.2,337.9c-0.3,0-0.8,0-1,0.1l-0.5,0.1v-0.5
	c0-0.2,0.1-0.5,0.1-0.5c0.1-0.1,0.8-0.1,1.6-0.2c1.1-0.1,1.4-0.1,1.5,0c0.3,0.2,0.2,0.2-0.1,0.7c-0.3,0.3-0.3,0.5-0.7,0.3
	C1041,337.9,1040.5,337.9,1040.2,337.9 M1025.2,336.9c0.1,0,0.1,0.1,0.1,0.2c0.1,0.1,0.1,0.1,0,0
	C1025.2,337.1,1025.2,337,1025.2,336.9 M1038.7,335.2c0-0.3,0-0.3,1-0.5c1.7-0.2,1.7-0.2,1.7,0.2c0,0.2-0.1,0.3-0.9,0.3
	c-0.5,0.1-0.9,0.1-0.9,0.1c-0.1,0.1-0.3,0.1-0.6,0.1C1038.7,335.5,1038.7,335.5,1038.7,335.2 M1038.7,332.3c0.1,0,2.5-0.5,2.7-0.5
	c0.1,0,0.1,0.2,0.1,0.6v0.6l-1.4,0.1l-1.5,0.2v-0.5C1038.7,332.6,1038.7,332.4,1038.7,332.3"/>
<path d="M1027.1,322.6c0.3-0.1,0.6-0.3,0.6-0.7c0-0.1-0.1-0.5-0.3-0.8c-0.2-0.6-0.2-0.9-0.3-2.5c-0.1-0.9-0.1-1.8,0-1.8
	c0.1-0.1,3.2-0.7,3.6-0.7c0.1,0,0.1,0.1,0.1,0.6c-0.1,0.3-0.2,1-0.3,1.4c-0.3,1-0.2,1.2,0.6,1.6c1,0.6,2.3,0.8,2.6,0.6
	c0.3-0.2,0.3-0.5,0-1.2c-0.2-0.6-0.2-1-0.3-2v-1.4l1-0.1c0.6-0.1,1.1-0.2,1.2-0.2c0.3-0.2,0.3-0.6,0-0.9c-0.3-0.3-1.5-0.8-1.9-0.8
	h-0.3v-4.4v-4.4h0.3c0.2-0.1,1.1-0.2,2.1-0.2c1.6-0.1,1.9-0.2,2.1-0.3c0.2-0.3,0.2-0.3,0.1-0.7c-0.2-0.3-1.2-0.9-2-1.1
	c-0.5-0.1-0.7-0.1-1.7,0.2c-1.6,0.5-1.6,0.5-1.5-0.1c0.1-1,0.5-1.6,2.7-3.8c1.1-1.1,2-2.1,2-2.3c0-0.3-0.5-0.3-1-0.1
	c-1.4,0.5-3.6,2-5.2,3.4c-0.5,0.5-1.1,1-1.4,1.2c-0.5,0.3-0.5,0.5-0.5,0.7c0.1,0.5,0.7,0.9,1.4,1.2c0.3,0.2,0.6,0.3,0.5,0.3
	c0,0-1,0.1-2,0.2c-2.7,0.3-5,0.5-7.6,0.3c-2.6-0.1-2.8-0.1-2.9,0.6c0,0.3,0.5,0.9,1.4,1.5c0.9,0.5,1.2,0.5,2.4,0.2
	c0.6-0.1,1.4-0.2,1.7-0.2l0.7-0.1v0.8c0,0.5-0.1,2.5-0.1,4.5c-0.1,2.1-0.2,3.8-0.2,4s-0.1,0.2-1,0.2c-1.5,0-2.4,0.1-2.5,0.3
	c-0.3,0.5,0.1,1.1,1,1.6c0.7,0.5,1.6,0.5,2.1,0.3l0.2-0.1v1.1c-0.1,0.7-0.2,1.5-0.2,1.8c-0.3,0.8-0.2,1,0.1,1.4
	c0.6,0.5,1.1,0.8,1.9,0.9c0.3,0.1,0.7,0.2,0.7,0.2S1027,322.8,1027.1,322.6 M1041.2,320.7c0.3-0.3,0.3-0.5,0-1.2
	c-0.5-0.9-0.6-1.9-0.6-4v-1.8l0.6-0.1c0.6-0.1,3.2-0.6,4-0.7c1.2-0.1,1.2-1-0.1-1.4c-0.8-0.2-1.7-0.2-2.8-0.1c-0.6,0.1-1,0.2-1,0.1
	c-0.1,0,0.5-1.2,1.1-2.6c1.2-2.5,2.5-4.4,4-6.1c0.7-0.8,0.8-1,0.7-1.2c-0.6-1-3.7,1.7-5.7,4.7l-0.5,0.7l0.1-1
	c0.1-2.6,0.3-4.5,0.6-5.3c0.3-1.1,0.2-1.9-0.3-3.1c-0.3-0.7-0.5-0.9-0.7-0.9c-0.3-0.1-0.5-0.1-0.7,0.2c-0.2,0.2-0.6,0.7-0.7,1.1
	c-0.2,0.6-0.2,0.7-0.3,4.6c0,2.3,0,4.4-0.1,4.9v0.7l-0.5-0.7c-0.5-0.8-1-1.2-1.5-1.2c-0.1,0-0.3,0.1-0.6,0.3
	c-0.3,0.2-0.3,0.5-0.3,0.9c0,0.7,0.3,1.4,0.8,1.7c0.3,0.3,1.7,1,1.9,1c0.1,0,0.1,0.2,0.1,0.9l-0.1,0.8l-1.2,0.5
	c-1.7,0.5-1.8,0.5-1.9,0.8c-0.2,0.3,0.1,0.8,0.9,1.1c0.7,0.2,1.2,0.3,1.8,0c0.2,0,0.3-0.1,0.5-0.1c0,0.1-0.2,3.4-0.3,4
	c-0.3,1-0.2,1.4,0.1,1.7c0.6,0.5,1.7,1,2.1,1C1040.8,321,1041,320.8,1041.2,320.7 M1027,313.7c0-0.7,0-1.1,0-1.1s0.2,0,0.5,0.1
	c0.2,0.1,0.7,0,1.7-0.2c0.7-0.2,1.4-0.3,1.5-0.3c0.2,0,0.2,0.1,0.2,1v1.1l-1.7,0.2c-1,0.2-1.8,0.3-1.9,0.3
	C1027,314.9,1027,314.7,1027,313.7 M1027,310.1v-0.9h0.7c0.5,0,1.4-0.1,1.9-0.2c0.7-0.1,1.4-0.2,1.4-0.2s0,0.5,0,0.9v0.9h-0.3
	c-0.1-0.1-1,0-1.8,0.1c-0.8,0.2-1.6,0.3-1.7,0.3S1027,310.8,1027,310.1 M1027.1,306.5v-1.1l1.8-0.1c0.9-0.1,1.8-0.1,1.9-0.2
	c0.2,0,0.2,0.1,0.2,1v1.1h-0.6c-0.3,0-1.1,0.1-1.8,0.1C1026.9,307.6,1027.1,307.6,1027.1,306.5 M1027.8,302.5c0.1-0.2,0-0.5-0.9-1.5
	c-0.5-0.5-1.1-1.2-1.6-1.9c-1.1-1.6-1.7-2.1-2.1-2.5c-0.6-0.5-1.1-0.5-1.5,0c-0.2,0.2-0.2,0.3-0.2,1.1c0,1.1,0.2,1.7,1.1,2.6
	C1024,301.9,1027.4,303.2,1027.8,302.5"/>
<path d="M1025.2,288.9c1.8-0.3,5.4-0.8,10.4-1.4c7-0.9,7.2-0.9,7.5-1.1c0.3-0.3,0-1-0.9-1.4c-0.9-0.3-1.8-0.5-3.2-0.1
	c-0.7,0.1-2.1,0.3-3.3,0.5c-1,0.2-2.1,0.3-2.4,0.5h-0.3l0.1-0.6c0.3-1.1,1.7-3.3,3.1-5.1c1-1.1,3.5-3.6,4.6-4.6
	c0.6-0.5,1.7-1.4,2.6-1.9c0.8-0.7,1.5-1.2,1.6-1.4c0-0.3-0.2-0.6-0.6-0.6c-0.8,0-3.5,1.5-5.8,3.1c-1.4,1.1-4.1,3.6-5,4.9l-0.7,0.8
	v-0.6c-0.1-0.7,0.1-6.1,0.2-7.5c0.1-0.6,0.2-1.6,0.5-2.3c0.3-1.5,0.3-1.9-0.2-3.2s-1.2-1.7-1.8-1.1c-0.6,0.7-0.7,2.3-0.9,8.2
	c0,1.8-0.1,3.4-0.1,3.5c-0.1,0.2-0.1,0.2-1-0.5c-0.5-0.3-1.7-1.2-2.6-2c-3.1-2.7-4-3.3-4.9-3.3c-0.3,0-0.6,0.1-0.8,0.3
	c-0.3,0.3-0.3,0.3-0.3,1c0,0.9,0.5,1.9,1.2,2.6c1.5,1.4,4.4,2.6,7.9,3.4l0.3,0.1v0.8c-0.1,0.9,0,1.4,0.6,2c0.3,0.2,0.5,0.5,0.3,0.6
	c0,0.1-0.3,0.7-0.8,1.1c-0.8,1.1-0.8,1.5-0.6,1.9l0.2,0.3h-0.5c-0.6,0.1-3.6,0.3-5.9,0.5c-1.9,0-2.4,0.1-2.7,0.5
	c-0.1,0.3-0.1,0.3,0,0.7c0.3,0.6,1.7,1.4,2.7,1.5C1024.2,289.1,1024.8,289,1025.2,288.9"/>
<path d="M1041.7,259.5c0.1,0,0.2-0.2,0.2-0.3c0-0.5-1.1-2.9-1.5-3.5c-0.1-0.2-0.2-0.3-0.2-0.5c0.1,0,4.2-0.8,5.3-0.9
	c0.6,0,1.1-0.1,1.2-0.2c0.5-0.3,0-1-1.1-1.6c-0.8-0.3-1.5-0.5-1.9-0.2c-1,0.5-4.5,1.2-7,1.6c-0.9,0.1-1.7,0.2-1.7,0.3
	c-0.1,0-0.2,0.1-0.2,0.3c-0.1,0.3,0,0.7,0.8,1c0.6,0.2,0.7,0.2,1.5,0.2l1-0.1l-0.1,0.8c0,0.9,0.1,1.2,0.8,1.9
	c0.6,0.5,2.3,1.4,2.5,1.4C1041.3,259.7,1041.6,259.6,1041.7,259.5 M1026.1,259.1c1-0.2,4.5-0.9,6.8-1.2c1.8-0.3,2.1-0.5,2.1-0.9
	c0-0.2-0.5-0.7-1.1-0.9c-0.8-0.3-1.5-0.3-2.4-0.1c-0.3,0.1-0.7,0.2-0.7,0.2c-0.1,0-0.1-0.7,0.1-1.9l0.1-1.2l1.5-0.1
	c0.8-0.1,1.6-0.3,1.8-0.3c0.9-0.2,0.6-1-0.5-1.2c-0.5-0.2-0.8-0.2-1.4-0.1c-1.2,0.2-1.1,0.3-0.8-1.2c0.2-0.8,0.3-1.4,0.5-1.5
	c0,0,0.9-0.1,1.9-0.2c1-0.1,2-0.3,2.3-0.3c0.3-0.2,0.5-0.2,0.5,0s0.7,0.6,1.4,0.7c0.6,0.1,0.9,0.1,1.4-0.1c0.3,0,1.2-0.2,2-0.5
	c1.8-0.3,2-0.3,2-0.7c0-0.6-1.1-1.2-2-1.1c-0.8,0.1-4.4,0.9-4.5,1s-0.2,0-0.3-0.1c-0.3-0.5-2-1.1-2.6-1c-0.3,0.2-3.3,0.6-5.5,0.8
	c-2.6,0.2-5.6,0.5-7.2,0.5c-0.7,0-1.4,0-1.6,0.1c-0.9,0.2-0.8,0.9,0.2,1.6c0.9,0.7,1.2,0.8,2.8,0.6c0.7-0.1,1.4-0.2,1.5-0.2
	c0.1,0.1-0.6,1.7-1,2.5c-0.5,0.7-0.5,0.9,0.1,1.4c0.5,0.5,1.8,1.1,2.1,1.1c0.1,0,0.5-0.1,0.7-0.2c0.6-0.2,2-0.6,2.3-0.6
	c0.1,0.1-0.1,1-0.6,1.8c-0.2,0.5-0.2,0.5-0.1,0.8c0.1,0.2,0.2,0.3,0.2,0.5c-0.1,0-2.5,0.3-3.8,0.5c-1.2,0-1.5,0.1-1.7,0.3
	s-0.2,0.2-0.1,0.6c0.3,0.7,1.7,1.4,2.6,1.4C1025.2,259.4,1025.7,259.3,1026.1,259.1 M1026.2,251.9c0-0.1,0.1-0.8,0.3-1.5
	c0.2-1.1,0.3-1.4,0.5-1.4c0.6-0.1,2.7-0.3,2.8-0.3c0,0.1-0.7,2.9-0.8,3.1c-0.1,0.1-1.7,0.3-2.3,0.3
	C1026.3,252.1,1026.2,252.1,1026.2,251.9 M1039.5,251.6c0.8-0.3,2.8-0.8,3.2-0.8c0.2,0,0.5-0.1,0.6-0.2c0.6-0.5-0.1-1.1-1.2-1.4
	c-0.7,0-4.7,0.9-5.1,1.2c-0.3,0.3-0.2,0.7,0.3,1C1038.1,251.8,1038.7,251.8,1039.5,251.6 M1039.4,245.4c0.5-0.2,1.4-0.5,2-0.7
	c1-0.2,1.2-0.2,1.9-0.1c0.5,0.1,0.7,0.1,0.9-0.1c0.3-0.2,0.5-0.5,0.2-0.7c-0.1-0.1-0.3-0.5-0.5-0.7s-0.3-0.8-0.6-1.9
	c-0.5-2-0.6-2.3-0.9-2.6s-0.7-0.3-1,0.1c-0.2,0.2-0.3,0.3-1.6,0.5c-0.8,0.1-1.7,0.2-1.9,0.2c-0.5,0-0.6,0.1-0.8,0.2
	c-0.3,0.3-0.3,0.5,0.1,0.8l0.2,0.3l-0.3,1c-0.2,0.7-0.6,1.4-0.8,1.7c-0.5,0.7-0.5,1,0,1.4c0.6,0.5,1.6,0.9,1.9,0.9
	C1038.6,245.7,1039,245.6,1039.4,245.4 M1025.7,245.4c0.2-0.1,1.7-0.3,3.3-0.5l2.9-0.5l0.7,0.2c1,0.3,1.8,0.2,1.8-0.3
	c0-0.1-0.1-0.5-0.3-0.7c-0.3-0.5-0.3-0.7-0.7-3.1c-0.2-1.5-0.3-2.7-0.5-2.8c-0.1-0.2-0.7-0.7-0.9-0.7c-0.1,0-0.3,0.1-0.5,0.2
	c-0.2,0.3-0.5,0.3-2.5,0.5c-1.1,0.1-2.6,0.2-3.3,0.3c-1.5,0-1.7,0.1-1.8,0.3s-0.1,0.3,0.1,0.7l0.2,0.5l-0.5,1
	c-0.2,0.5-0.6,1.2-0.9,1.7c-0.7,0.9-0.8,1.1-0.6,1.5c0.2,0.5,1.4,1.2,1.9,1.5C1024.6,245.5,1025.3,245.5,1025.7,245.4 M1039.3,242.2
	c0.1-0.7,0.2-1.1,0.2-1.2c0.1,0,1.8-0.3,1.8-0.3c0,0.1,0.3,2.5,0.3,2.6c0,0-0.6,0.1-1.2,0.2c-0.9,0.1-1.2,0.1-1.2,0
	C1039.2,243.3,1039.3,242.8,1039.3,242.2 M1026.1,243c0-0.5,0.5-2.7,0.5-2.8c0.1,0,2.8-0.5,4-0.6h0.8v1.5c0.1,0.8,0.1,1.5,0.2,1.6
	c0,0.1-0.1,0.2-0.8,0.2c-0.3,0.1-1.1,0.2-1.7,0.3c-0.9,0.1-1.5,0.2-2.4,0.2h-0.6V243"/>
<path d="M1034,232c0.2-0.2,0.2-0.2,0.1-1.1c-0.1-0.9-0.1-2.4,0.1-2.8c0-0.3,0-0.3,3.3-0.7c4.5-0.6,4.6-0.6,4.6-1
	c0-0.6-0.7-1.1-1.8-1.4c-0.5-0.1-0.8-0.1-1.7,0.1c-2,0.3-4,0.7-4.1,0.7c0-0.1,0.3-2.1,0.5-2.3c0.1,0,0.6-0.1,1-0.2
	c0.9-0.1,1-0.1,1.7,0.1c1,0.2,1.4,0.3,1.7,0c0.3-0.2,0.3-0.6,0-1.4c-0.2-0.6-0.2-1-0.3-4.1c-0.1-1.9-0.1-4.1-0.1-5v-1.5h0.5
	c0.2-0.1,1.5-0.1,2.7-0.2c1.4-0.1,2.6-0.1,2.8-0.2c0.5,0,0.7-0.3,0.3-0.9c-0.1-0.3-0.3-0.5-0.9-0.8c-1.1-0.6-1.6-0.6-3.7-0.1
	s-3.1,0.6-2.8,0.3c0.1-0.1,0.3-0.3,0.5-0.7c0.5-0.9,2.5-2.7,4.6-4.1c0.7-0.5,0.9-0.6,0.9-0.8c0-0.6-0.2-0.6-1-0.5
	c-1.8,0.6-4.2,1.6-6.1,2.8c-0.6,0.5-1.2,0.8-1.5,0.9c-0.1,0.1-0.3,0.3-0.5,0.5c-0.1,0.3-0.1,0.5,0.1,0.7c0.2,0.3,1.7,1.1,2.3,1.2
	h0.5l-0.6,0.1c-2,0.2-5.8,0.5-10.5,0.6c-5.8,0.1-5.9,0.1-6,0.8c0,0.2,0.1,0.3,0.6,0.8c0.6,0.6,1.7,1.1,2.5,1.2
	c0.3,0,1.1-0.1,2.1-0.2c0.9-0.2,1.7-0.3,1.7-0.2c0,0-0.1,1.9-0.2,4.4c-0.2,3.8-0.2,4.4-0.5,5.1c-0.2,0.6-0.2,0.7-0.1,0.9
	c0.3,0.5,0.9,0.9,1.8,1.2c0.9,0.3,1.1,0.5,1.8,0.1c0.7-0.2,2.3-0.6,2.4-0.6c0,0.1-0.5,1.9-0.6,2s-2,0.3-4.4,0.5
	c-3.1,0.1-3.6,0.2-3.8,0.5c-0.6,0.5,0.1,1.2,1.2,1.8c0.8,0.3,1.4,0.3,4-0.1c1.1-0.2,2.1-0.3,2.3-0.3c0.3,0,0.2,0.2-0.2,1.2
	c-0.2,0.6-0.3,0.9-0.3,1.1c0.1,0.3,0.7,0.8,1.6,1.1C1033.4,231.8,1033.8,232.2,1034,232 M1030,222.4c-0.1-0.2-0.1-1.1,0-1.1
	c0,0,0.3,0,0.7,0.1c0.6,0.1,0.8,0.1,1.5-0.1c1-0.2,4-0.8,4.2-0.8c0.1,0,0.2,0.8,0,1c0,0-0.8,0.2-1.8,0.3c-1,0.2-2.1,0.5-2.6,0.5
	C1030.9,222.5,1030.3,222.5,1030,222.4 M1029.9,218.9v-0.7l0.3,0.1c0.6,0.1,1.6,0,3.5-0.3c1-0.2,2.1-0.5,2.4-0.5h0.5v0.6v0.6h-0.7
	c-0.3,0-1.4,0.1-2.1,0.2c-0.8,0.2-1.9,0.5-2.4,0.5c-0.6,0.1-1.1,0.2-1.1,0.2c0,0.1-0.1,0.1-0.2,0.1
	C1029.9,219.7,1029.9,219.5,1029.9,218.9 M1029.9,216.1v-0.6l0.6,0.1c0.3,0,1.1-0.1,2.4-0.3c1.5-0.2,3.4-0.6,3.7-0.6
	c0,0,0,0.2,0,0.6v0.5h-0.8c-1,0-5.3,0.7-5.9,0.9C1029.9,216.7,1029.9,216.4,1029.9,216.1 M1029.9,213.2c0-0.5,0-0.7,0.1-0.7
	s1.6-0.1,3.3-0.3c1.7-0.1,3.2-0.2,3.3-0.2s0.1,0.2,0.1,0.5v0.6h-1.1c-0.6,0.1-2,0.3-3.3,0.6c-1.2,0.1-2.3,0.3-2.3,0.3
	C1029.9,213.8,1029.9,213.5,1029.9,213.2 M1031.2,210c0.1-0.2-0.1-0.8-0.9-1.4c-0.2-0.2-1.1-1.1-2-2.1c-1.5-1.7-2.3-2.4-2.8-2.4
	c-0.7,0-1.2,1.1-1,2c0.3,1.2,1,2,2.8,2.8C1029.5,210.1,1030.9,210.4,1031.2,210"/>
<path d="M1028.3,199.6c0.8-0.3,4.6-1.1,6.3-1.5c0.8-0.1,2.1-0.3,3.2-0.3c0.9-0.1,1.8-0.3,1.9-0.3c0.2-0.2,0.1-0.7-0.1-0.9
	c-0.6-0.5-1.5-0.7-2.6-0.6c-0.7,0-0.9,0-1-0.1s-0.1-0.7-0.1-1.4v-1.2h0.3c0.3-0.1,6.1-0.8,7.7-1c1.1-0.1,1.4-0.2,1.4-0.7
	c0-0.3-0.9-1.1-1.6-1.2c-0.8-0.3-1.1-0.2-2.6,0.1s-4.7,1-4.9,0.9c0-0.1,0.5-2.4,0.7-2.8l0.2-0.3l2.3-0.3c1.9-0.3,2.4-0.3,2.5-0.6
	c0.2-0.2,0.2-0.2,0.1-0.6c-0.2-0.3-1.4-0.8-2.1-0.8c-0.2,0-0.8,0.1-1.2,0.1c-0.5,0.1-0.8,0.2-0.8,0.1c-0.1,0,0.5-1.2,1.1-2.3
	c1.7-2.6,3.2-4,6.2-5.8c1.6-1,1.8-1.2,1.4-1.6c-0.3-0.3-3.1,0.6-4.9,1.6c-1.1,0.7-2.3,1.7-3.3,2.8c-0.3,0.5-0.7,0.8-0.7,0.8
	s-0.1-0.5-0.1-0.9c-0.1-0.3-0.3-1.5-0.3-2.5c-0.3-2.4-0.6-3.2-1.2-3.6c-0.3-0.2-0.8,0-0.9,0.6c-0.1,0.5-0.2,0.5-0.6,0.5
	c-0.6,0-8.7,0.7-9.2,0.8c-0.3,0-0.5,0.1-0.5,0.3s0.1,0.5,0.2,0.7l0.3,0.3l-0.6,1.7c-0.5,1.4-0.7,1.9-1,2.5c-0.3,0.3-0.6,0.8-0.6,0.9
	c0,0.2,0.7,0.9,1.6,1.5c1,0.7,1.1,0.7,3.3,0.2c4.3-1,8.2-1.6,8.2-1.1c0,0.1-0.1,0.3-0.3,0.6c-0.1,0.3-0.5,1-0.7,1.5l-0.5,1l-0.8,0.1
	c-1,0.1-4.9,0.5-6.4,0.6c-1.1,0-1.5,0.1-1.5,0.7c0,0.1,0.1,0.3,0.3,0.6l0.3,0.2l-0.5,1.8l-0.5,1.7l-1.1,0.1c-0.6,0-2,0-3.2,0
	c-1.7-0.1-2-0.1-2.4,0c-0.2,0.1-0.3,0.3-0.3,0.3c-0.1,0.7,0.3,1.1,1.2,1.6c0.7,0.3,0.8,0.3,1.7,0.3c0.6,0,1.5,0,2.1-0.1
	c1-0.1,1.2-0.1,1.2,0c0,0.3-0.6,1.8-0.9,2.4c-0.6,0.7-0.6,1,0,1.6c0.5,0.5,2.1,1.2,2.7,1.4C1027.5,199.8,1028,199.7,1028.3,199.6
	 M1028.1,197.1c0-0.1,0.3-2.9,0.5-3.1c0,0,4.4-0.5,4.5-0.5c0,0.1-0.1,0.5-0.2,0.9c-0.2,0.5-0.3,0.9-0.3,1s0.2,0.5,0.3,0.7l0.5,0.3
	l-0.8,0.1C1029.7,197.3,1028.2,197.4,1028.1,197.1 M1028.9,192c0,0,0.6-2.8,0.6-2.9c0.1,0,4.9-0.7,5-0.6c0,0-0.8,3.1-0.9,3.2
	c0,0-1,0.1-2.3,0.2C1030.1,192,1029,192.1,1028.9,192C1028.9,192.1,1028.9,192.1,1028.9,192 M1027.7,182.8c-0.3,0-0.2-0.7,0.1-2.6
	c0.2-1.4,0.3-1.6,0.5-1.7c0.6-0.2,6.7-1,6.8-0.9c0,0.1,0.3,4.1,0.3,4.2c-0.1,0-4.6,0.8-5.8,0.9
	C1028.1,182.9,1027.9,182.9,1027.7,182.8"/>
<path d="M1030.5,168.7c2.1-0.6,4.9-0.9,8.8-1.4c0.8,0,1.1-0.2,1.1-0.5s-0.7-0.9-1.2-1.2c-0.8-0.3-1-0.5-1.9-0.2
	c-0.8,0.2-5.7,1.1-6.7,1.2c-0.7,0-0.8,0-0.8-0.1c0-0.3,3.2-4.1,3.4-4.1c0.3,0.2,1.1,0.2,1.4,0.1c0.3-0.2,0.3-0.5-0.1-1.2
	c-0.6-0.7-0.7-1.1-0.8-2.3v-0.9h0.6c1.4-0.2,9-0.8,9.8-0.8c2.3,0,2.7-0.5,1.6-1.5c-0.6-0.6-1.5-1-2.1-1c-0.1,0-0.7,0.1-1.2,0.2
	c-2,0.5-6.2,1-8,1h-0.7v-2.7c0.1-3.8,0.5-5.8,1.1-5.9c0.1,0,0.7,0.1,1.2,0.2c0.7,0.2,1,0.2,1.2,0.1c0.5-0.2,0.3-0.6-0.9-1.9
	c-0.7-0.7-1.4-1.5-1.6-1.7c-0.6-0.7-0.9-0.8-1.5-0.6c-0.3,0.2-0.9,1-1.2,1.8c-0.7,1.5-1,5.3-0.8,8.8c0,1,0,1.9,0,1.9
	s-2.5,0.1-5.4,0.1c-5.3,0-5.4,0.1-5.8,0.3c-0.1,0.1-0.3,0.2-0.3,0.3c-0.1,0.7,0.8,1.4,2.1,1.8c1,0.3,1.4,0.5,3.1,0.1
	c0.8-0.1,2.4-0.3,3.4-0.3c1.1-0.1,2.4-0.2,2.6-0.3h0.6v0.6c0,0.7,0.1,1.9,0.2,2.4c0.1,0.2,0,0.5-1.6,1.6c-2.1,1.7-2.6,2-3.6,2.6
	s-1.4,0.9-1.2,1.4s0.5,0.8,1.2,1.2c0.9,0.7,1.8,1,2.4,1C1029.1,169.1,1029.8,169,1030.5,168.7"/>
<path d="M153.1,351.7l0.2-0.3l-0.1-0.6c-0.2-0.5-0.2-0.9-0.3-2.6V346l0.6-0.1c0.2,0,1-0.2,1.6-0.3c1.6-0.2,1.8-0.3,1.8-0.7
	c0-0.2-0.1-0.5-0.5-0.6c-0.7-0.5-1.4-0.6-2.5-0.5c-0.5,0.1-0.9,0.2-1,0.2s-0.1-0.3-0.1-1.1c0-1.1,0-1.1,0.2-1.1
	c0.6-0.2,5.5-1,6.4-1.1c0.6-0.1,1.2-0.2,1.4-0.3c0.6-0.3,0.1-1-1-1.6c-0.3-0.1-0.7-0.2-0.9-0.2s-1,0.2-1.8,0.5c-1.5,0.5-4,1-4.1,0.9
	s-0.2-2.3-0.2-3.6v-1.2l0.7,0.3c0.3,0.2,0.7,0.3,0.7,0.5c0.1,0,0,0.2-0.2,0.5c-0.5,0.6-0.5,0.9,0.1,1.4c0.9,0.8,2.1,1.2,2.5,0.9
	c0.1-0.1,0.2-0.6,0.2-1c0.3-2,1.5-4.3,3.3-6.4c0.3-0.3,0.8-0.9,0.9-1c0.1-0.3,0.1-0.3-0.1-0.6c-0.3-0.3-0.6-0.2-1.7,0.6
	c-1.2,0.9-2.4,2-3.2,3.3c-0.3,0.6-0.8,1.1-0.8,1.1c-0.1,0.1-1.6-0.8-3.4-2c-3.7-2.5-6.1-4-8.1-4.9c-2.3-1.1-2.8-1.1-6.6-0.6
	c-4.1,0.8-4.2,0.8-4.2,1.4c0,0.5,0.5,0.6,2.8,0.8c3.7,0.6,6.4,1.1,8.7,1.9c1.2,0.5,3.8,1.6,5.3,2.4c1.2,0.6,1.1,0.3,0.9,2
	c0,0.7,0,0.8-0.2,0.8c-0.1-0.1-2.8,0.3-3.3,0.6c-0.5,0.1-0.7,0.6-0.5,0.9c0.3,0.5,1,0.8,1.6,0.8c0.2,0,0.8-0.1,1.2-0.3
	c0.6-0.1,0.9-0.2,1-0.2c0,0.1,0,0.5-0.1,1c-0.2,0.8-0.2,0.8,0,1.1c0.1,0.2,0.2,0.3,0.1,0.3c-0.2,0-4.3,0.6-4.5,0.7
	c-0.3,0.1-0.3,0.8,0.1,1.1c0.7,0.5,2.1,0.6,3.5,0.2c0.5-0.1,0.9-0.2,0.9-0.2c0.1,0,0,2.3,0,2.4c-0.1,0-0.7,0.1-1.5,0.2
	c-1.6,0.3-2.3,0.6-2.4,0.9c-0.1,0.5,0.3,0.9,1.1,1.1s1.1,0.2,1.8,0c0.3-0.1,0.7-0.2,0.7-0.2c0.2,0,0.1,2.1-0.2,3.2
	c-0.1,0.6-0.1,0.8,0,1c0.1,0.3,1.4,0.9,2.1,1C152.8,351.9,152.9,351.9,153.1,351.7 M140.3,347.4c0.5-0.2,1-0.5,1.9-0.7l1.4-0.3
	l0.7,0.3c1.5,0.6,2.1,0.1,1.7-1c-0.2-0.6-0.2-0.9-0.2-5c0-3.6,0-4.4-0.2-5c-0.3-1.1-1.1-2-2.6-2.6c-0.9-0.3-3.2-0.5-4.5-0.2
	c-2,0.5-3.4,1.2-3.6,2.1c0,0.3,0.1,0.6,0.3,1.2c0.1,0.3,0.5,1.1,0.6,1.6c0.3,1.1,0.3,1.2,0.7,1.2c0.5,0,0.6-0.2,0.7-1.2
	c0.2-1.4,0.6-2,1.5-2.5c0.6-0.2,0.7-0.2,1.9-0.2c2.9,0,3.5,0.6,3.4,3.5c-0.1,0.9-0.1,1.6-0.1,1.6c-0.1,0-1.9,0.2-3.8,0.5
	c-1,0.1-1.4,0.2-1.5,0.3c-0.1,0.2-0.1,0.3,0.1,0.7c0.1,0.3,0.1,0.5-0.2,1.5c-0.5,1.4-0.7,1.9-1.1,2.4c-0.5,0.7-0.1,1.2,1,1.8
	C139.2,348,139.6,348,140.3,347.4 M140.3,345c0-0.3,0.1-1,0.2-1.6l0.1-1l1.5-0.2c0.8-0.1,1.5-0.2,1.5-0.2c0,0.1-0.2,1.9-0.3,2.4
	l-0.1,0.6l-0.9,0.2c-1.1,0.3-1.4,0.5-1.7,0.5h-0.3V345"/>
<path d="M145.3,321.7c1.2-1.5,5-3.4,7.8-4.1c1.2-0.3,1.5-0.3,1.6-0.7c0.1-0.2,0.1-0.2-0.1-0.5s-0.3-0.2-1.2-0.2
	c-1.5,0.1-2.9,0.5-4.1,0.7l-0.9,0.3l-0.1-0.5c-0.3-1.5-0.5-2.4-0.1-2.4c0.3-0.1,5-0.8,5.4-0.8c0.9,0,1.4-0.5,1-1.1
	c-0.6-0.7-1.7-0.8-4.9-0.5c-1,0.1-1.8,0.2-1.9,0.2c0-0.1-0.1-0.7-0.1-1.4c0-0.9,0-1.1,0.1-1.1s1.1-0.1,2.3-0.2
	c2.9-0.3,6.9-0.7,7.6-0.7c1.7,0,1.8-0.9,0.2-1.7c-1-0.5-1.5-0.5-4,0c-1.5,0.2-5.4,0.8-6.1,0.8c-0.2,0-0.2,0-0.2-1.9
	c0.2-3.3,0.6-6.4,0.8-6.7c0.1,0,0.7,0.1,1.4,0.3c0.7,0.1,1.4,0.2,1.4,0.2c0.2-0.1,0.2-0.6,0.1-0.8c-0.1-0.1-0.6-0.5-1-0.9
	s-1-1-1.4-1.5c-0.3-0.3-0.7-0.7-0.9-0.8c-1-0.5-2,1.2-2.4,4c-0.1,0.6-0.1,2.7-0.2,4.6v3.6h-0.9c-0.5,0.1-2.5,0.1-4.5,0.2
	c-4.4,0-4.6,0-4.9,0.5c-0.1,0.2-0.1,0.2,0.1,0.7c0.1,0.2,0.3,0.5,0.9,0.8c1.1,0.6,1.7,0.6,3.3,0.3c1.4-0.2,5.9-0.7,6-0.7
	c0,0,0,0.7,0.1,1.4v1.4l-0.9,0.1c-2.9,0.5-4.6,0.9-4.7,1.4c-0.1,0.6,1,1.4,2,1.4c0.2,0,1.1-0.1,1.8-0.3c2-0.5,1.9-0.6,1.9,1.1
	c0.1,1,0.1,1.5,0.3,1.6c0.1,0.2,0.1,0.2-0.5,0.5s-2.3,0.9-2.8,1.1c-0.1,0.1-0.3,0.2-0.5,0.3c-0.3,0.6,0.6,1.6,1.8,2.1
	C144.5,322.4,144.8,322.3,145.3,321.7"/>
<path d="M151.3,291.6c0.2-0.1,0.2-0.3,0.3-1.1c0.1-1.1,0.2-1.5,1-3.1s1.6-2.8,2.4-4c0.3-0.5,0.7-0.9,0.7-1c0.1-0.3-0.1-0.7-0.5-0.7
	c-0.2,0-0.3,0-0.5-0.5s-0.6-1.7-0.6-2.1c0-0.3,0-0.3,1.4-0.5c1.2-0.1,1.2-0.2,1.4-0.5c0.2-0.5,0-0.7-0.9-1.1
	c-0.6-0.3-0.9-0.3-1.5-0.3h-0.7l-0.1-1.2c-0.1-0.8-0.2-1.4-0.3-1.5c0-0.1,1.9-0.3,4.5-0.5c1.2-0.1,1.5-0.1,1.7-0.3
	c0.2-0.3-0.2-1-1.2-1.5c-0.8-0.3-1.4-0.3-2.5-0.1c-3.2,0.8-8,1.1-16.3,1.4c-2.6,0.1-4.6,0.1-4.9,0.2c-0.5,0.1-0.6,0.6-0.3,1
	c0.2,0.3,1.7,1.1,2.4,1.2c0.5,0,2.3-0.2,3.6-0.5h0.3l-0.3,1.7l-0.2,1.7h-0.5c-0.2,0.1-0.8,0.1-1.4,0.1c-1,0-1.6,0.2-1.7,0.7
	c-0.1,0.6,1.4,1.6,2.5,1.8c0.2,0,0.5,0,0.5,0c0,0.1-0.1,0.3-0.3,1.1c-0.1,0.2,0,0.3,0.1,0.6c0.6,0.7,2.1,1.4,2.7,1.1
	c0.5-0.1,0.5-0.5,0.3-1.2c-0.1-0.6-0.2-1-0.1-1.5v-0.7l0.8-0.1l0.8-0.1v0.9c-0.2,1.4-0.1,1.5,0,1.7c0.2,0.2,1.5,0.6,2.1,0.6
	c0.8,0,0.9-0.2,0.6-1.4c-0.2-0.6-0.2-0.9-0.2-1.5v-0.8h0.8c0.3-0.1,0.7-0.1,0.8-0.1c0,0.1,0,0.6,0,1.2c0,1.1,0.1,1.1,0.3,1.4
	c0.3,0.3,1.7,0.6,2,0.5c0.6-0.2,0.7-0.3,0.3-1.4c-0.2-0.6-0.3-1.2-0.3-1.5l-0.1-0.6h0.5c0.2-0.1,0.6-0.1,0.8-0.1h0.3v1.1
	c0,1.1,0,1.1,0.3,1.4c0.1,0.2,0.5,0.3,0.8,0.5c0.3,0.1,0.7,0.1,0.8,0.2c0.2,0,0,0.2-0.6,0.7c-0.3,0.3-0.9,0.8-1.1,1
	c-0.3,0.5-0.3,0.5-0.9,0.3c-0.7-0.1-0.9-0.1-4.2,0.6c-1.2,0.2-3.1,0.6-4.2,0.7c-2.3,0.2-2.8,0.3-2.9,0.7c-0.3,0.6,0.1,1,1.4,1.5
	c0.9,0.3,1.6,0.3,2.7,0c2.1-0.7,6.3-1.7,6.6-1.6c0,0-0.3,0.9-1,1.8c-1,1.8-1,1.8-0.9,2.1c0.2,0.5,0.6,0.8,1.4,1.2
	C150.8,291.8,151,291.9,151.3,291.6 M142.6,278c0-0.2,0.1-1,0.1-1.7c0.1-0.8,0.2-1.4,0.2-1.4c0-0.1,0.3-0.1,0.7-0.1l0.6-0.1v1.2
	c-0.1,0.7-0.1,1.4-0.1,1.7v0.6h-0.6c-0.3,0-0.7,0.1-0.8,0.1C142.5,278.4,142.5,278.2,142.6,278 M146.5,274.6c0,0,0.3-0.1,0.8-0.1
	h0.7v0.9c0,0.5,0,1.1,0.1,1.6v0.8l-0.8,0.1h-0.9v-1.6C146.4,275.4,146.4,274.6,146.5,274.6 M150,275.9c-0.1-0.8-0.1-1.5-0.1-1.5
	c0-0.1,0.5-0.1,0.8-0.1l0.8-0.1l0.1,0.8c0.1,0.5,0.1,1.1,0.1,1.6l0.1,0.7l-0.6,0.1C150.1,277.6,150.1,277.7,150,275.9 M140.6,271.8
	c0.3-0.1,0.3-0.6-0.3-1.7c-1.5-2.3-2.1-3.2-2.7-3.5c-0.5-0.2-0.6-0.2-0.9-0.1c-0.9,0.6-1.1,2-0.2,3.2c0.3,0.7,1.6,1.5,2.7,1.9
	C140.1,271.9,140.1,271.9,140.6,271.8 M145.6,271.7c0.3-0.2,0.2-0.9-0.2-2.6c-0.5-1.2-0.7-1.6-0.9-1.9c-0.8-0.7-1.7-0.3-2,0.8
	c-0.1,0.6-0.1,0.7,0.1,1.5C143.1,270.7,144.9,272.1,145.6,271.7 M151.1,271.3c0.3-0.2,0.2-0.5-0.1-2.1c-0.7-2.3-1.1-2.9-1.9-2.8
	c-0.8,0.2-1.2,0.9-1.1,2c0.1,1.2,0.9,2.3,2.1,2.9C150.8,271.6,150.9,271.7,151.1,271.3 M155.4,271.3c0,0,0.3-0.3,0.5-0.8
	c0.2-0.3,0.8-1.1,1.1-1.6c0.9-1.1,0.9-1.4,0.7-2.1c0-0.3-0.2-0.8-0.5-0.9c-0.3-0.3-0.5-0.3-0.8-0.3c-0.8,0.2-1.6,1.1-2,2.7
	c-0.2,1.1-0.1,2.4,0.5,2.8C155.1,271.5,155.2,271.5,155.4,271.3"/>
<path d="M139.6,257.3c1.1-0.2,3.7-0.6,10.1-1.2l6.2-0.6l0.8,0.2c1.4,0.3,2,0.2,2-0.3c0-0.1-0.2-0.6-0.3-1c-0.7-1.2-0.9-2.5-1.5-9.3
	c-0.1-2.7-0.3-5.2-0.5-5.3c-0.2-1.2-0.6-1.7-1.2-1.7c-0.3,0.1-0.8,0.7-0.8,1.1c0,0.2,0,0.2-0.5,0.2c-0.7,0-3.7,0.2-7.9,0.5
	c-2.1,0.1-3.7,0.2-3.7,0.1c0,0-0.3-0.7-0.6-1.4c-0.6-1.6-0.9-1.8-1.6-1.6c-0.8,0.2-1.5,1.4-2,3.1c-0.3,1-0.8,3.7-1,5.1
	c-0.1,2-0.8,7.1-1,7.7c0,0.5-0.2,1-0.5,1.4s-0.3,0.7-0.3,0.8c0,0.3,0.3,0.8,1.1,1.4C137.8,257.4,138.4,257.7,139.6,257.3
	 M139.6,255.1c-0.3-0.1-0.3-0.1-0.3-1.5c0-3.1,0.7-9.3,1.2-11.2l0.2-0.8l0.6,0.3c0.8,0.3,1.8,0.3,4.4,0.1c0.9-0.1,2.9-0.3,4.4-0.3
	c1.5-0.1,3.1-0.2,3.5-0.3h0.8l0.1,2.1c0.1,1.1,0.2,3.8,0.5,6.1c0.2,2.1,0.3,4,0.3,4.1c-0.2,0.1-11.1,1.2-13.3,1.4
	c-0.9,0-1.7,0.1-1.9,0.1C139.9,255.2,139.7,255.2,139.6,255.1 M146.6,251.9c0.6-0.1,1.7-0.3,2.4-0.5c1.4-0.2,1.5-0.2,2.1,0
	c0.9,0.2,1.2,0.2,1.5,0s0.2-0.5-0.1-0.9c-0.3-0.5-0.6-1.1-0.9-3.2c-0.2-1.1-0.3-2-0.5-2.1c-0.2-0.5-0.6-0.8-0.9-0.8
	c-0.2,0-0.7,0.5-0.7,0.7c0,0.1-0.2,0.2-0.6,0.2c-0.2,0-1.1,0.1-1.9,0.2c-0.8,0-1.7,0.1-2,0.1c-0.9,0-1.4,0.5-0.8,1
	c0.2,0.3-0.5,2.5-1.1,3.3c-0.6,0.7-0.2,1.2,0.9,1.8C144.9,252.3,145.3,252.3,146.6,251.9 M146,250c0-0.2,0.1-0.9,0.2-1.5
	c0.1-0.6,0.2-1,0.2-1c0-0.1,2.9-0.5,3.1-0.3c0.1,0,0.3,2.7,0.3,2.7c-0.1,0.1-3.2,0.6-3.5,0.6h-0.5L146,250"/>
<path d="M149.7,229.5c0.3-0.1,0.6-0.3,0.6-0.7c0-0.1-0.1-0.6-0.3-1c-0.2-0.7-0.3-1.1-0.5-1.7c0-0.8,0.1-5,0.2-5.1
	c0,0,5.4-0.7,6.7-0.9c1.2-0.1,1.4-0.7,0.6-1.2c-0.2-0.2-0.8-0.5-1.1-0.6l-0.6-0.2l-1.1,0.2c-1.1,0.2-3.7,0.7-4,0.7
	c0,0,0-0.3,0.6-1.6c1-2.7,2-4.3,4.3-6.6c1.7-1.8,2.1-2.1,4.1-3.3c0.7-0.5,1.2-0.9,1.4-1c0-0.1,0-0.3,0-0.5c-0.1-0.2-0.1-0.2-0.6-0.2
	c-1.1,0.2-4.3,1.7-5.9,2.8c-1.2,0.8-2.4,2-3.5,3.5c-1,1.5-1.6,2.4-2.1,4c-0.2,0.7-0.6,1.2-0.6,1.2s-0.5-0.8-1-1.8
	c-2-3.6-4.7-7.7-5.6-8.4c-0.8-0.5-1.2-0.6-2.8-0.7c-1.6,0-4,0.2-4.4,0.5c-0.3,0.2-0.6,0.6-0.5,0.8c0,0.1,0.8,0.6,1.7,1
	c1.9,0.9,4,2.1,5.2,3.1c1.4,1,3.7,3.6,5.1,5.5c0.7,0.9,1.2,1.7,1.4,1.8c0,0.2-1.1,0.3-4.6,0.6c-3.1,0.2-3.4,0.2-3.6,0.8
	c-0.1,0.2-0.1,0.2,0.2,0.6c0.3,0.5,1.1,0.8,1.9,1c0.6,0.2,0.8,0.2,1.7,0c0.8-0.2,4.1-0.7,4.4-0.7c0.1,0,0.1,0.2,0.1,0.6
	c-0.1,0.3-0.1,1.4-0.2,2.4c-0.1,1-0.2,1.9-0.3,2.4s-0.2,0.9-0.2,1.1c0,0.6,1,1.2,2.4,1.6C149.4,229.7,149.5,229.7,149.7,229.5"/>
<path d="M149.2,199.3c0.5-0.2,0.6-0.6,0.2-1.5c-0.5-0.9-0.6-1.8-0.6-4.1l-0.1-1.9l4.4-0.7c2.4-0.3,4.5-0.7,4.6-0.8
	c0.7-0.3,0.3-0.9-0.7-1.4s-1.5-0.6-2.9-0.2c-1.2,0.3-5.2,1-5.2,1c-0.2-0.2,0.5-3.5,0.8-4.6l0.2-0.6l1.2,1c1.7,1.4,1.8,1.4,3.3,1.4
	c0.9,0,1.1,0,1.4-0.1c0.2-0.3,0.3-0.7,0-0.9c-0.1-0.1-0.6-0.3-1-0.5c-0.5-0.2-1-0.5-1.4-0.7c-0.7-0.3-1.7-1.2-2.1-1.8l-0.3-0.5
	l0.6-0.7c1.2-1.7,4.2-3.7,7-4.9c1.6-0.6,1.7-0.7,1.7-1.1c-0.1-0.5-0.5-0.6-2.1-0.2c-2.6,0.7-4.2,1.2-6.1,2.6
	c-0.8,0.5-2.1,1.7-2.6,2.3l-0.2,0.3l-0.8-0.7c-0.3-0.5-1.6-1.6-2.5-2.5c-3.2-3.1-3.6-3.3-6.2-3.4c-1.4,0-1.9,0-3.1,0.2
	c-2.5,0.5-2.8,0.6-2.8,1.1c0,0.3,0.3,0.6,1.9,0.9c1.7,0.5,3.4,1,5.3,1.9c1.8,0.8,2.6,1.1,5.3,3.2l1.6,1.1l-0.3,0.7
	c-0.7,1.2-1.4,4.1-1.6,5.9c0,0.9,0.5,0.8-3.8,1.1c-3.4,0.2-3.7,0.3-3.7,0.8c0,0.6,0.9,1.4,2,1.8c0.6,0.1,0.8,0.1,1.8-0.1
	c0.9-0.2,3.5-0.7,3.6-0.7c0,0.1-0.2,3.8-0.5,4.4c-0.2,1.2-0.2,1.4,0,1.7c0.3,0.3,1,0.6,2,0.8C148.4,199.4,148.7,199.4,149.2,199.3"
	/>
<path d="M150.1,170c0.1,0,0.3-0.2,0.5-0.3c0.1-0.2,0.1-0.3-0.1-0.9c-0.3-0.9-0.6-2.5-0.6-4.2V163l1.9-0.2c1.1-0.1,2.1-0.2,2.4-0.3
	c0.7,0,0.9-0.2,0.9-0.6c0-0.3-0.5-0.8-1.1-1c-0.6-0.1-0.8-0.1-2.4,0c-0.9,0-1.7,0.1-1.7,0.1c0-0.1,0.3-3.8,0.5-3.8
	c0.1-0.1,3.5-0.6,5.6-0.7c1.7-0.1,2.1-0.2,2.1-0.7c0-0.6-1.4-1.5-2.1-1.5c-0.2,0-0.9,0.1-1.5,0.2c-0.6,0-1.7,0.2-2.4,0.3
	c-1,0.1-1.4,0.1-1.4,0.1c0-0.3,0.6-1.8,0.9-2.5c1.5-2.8,3.7-5,7.8-7.1c0.9-0.5,0.9-0.5,0.9-0.8c-0.1-0.5-0.6-0.6-1.6-0.2
	c-2.9,0.8-4.9,1.8-6.7,3.6c-1.6,1.6-2.6,3.2-3.3,5.1c-0.2,0.6-0.3,1-0.3,1c-0.1,0-0.7-1-1.5-2.1c-1.9-3.2-3.4-5.2-5.2-7.1
	c-1-1-1.4-1.1-3.2-1.1c-1.5,0-4.2,0.2-4.7,0.5c-0.3,0.1-0.5,0.6-0.2,0.9c0.1,0.1,0.7,0.3,1.1,0.6c2.8,1.2,5.8,2.9,7.1,4.1
	c1.5,1.1,3.4,3.2,4.9,5.1l0.5,0.6h-0.3c-0.6,0.1-4.9,0.5-6.7,0.5c-1.6,0.1-2,0.2-2.1,0.6c-0.2,0.6,0.5,1.2,1.8,1.7
	c0.9,0.2,1.1,0.2,2.5,0c0.9-0.2,4.4-0.7,5-0.7c0.3,0,0.3,0,0.3,0.2c-0.1,0.1-0.1,1-0.2,1.9c-0.1,0.9-0.1,1.7-0.2,1.7
	c0,0.1-0.8,0.2-1.8,0.3c-0.9,0.2-2,0.5-2.5,0.6c-1.7,0.3-1.7,1.1-0.2,1.8c0.9,0.5,1.2,0.5,3.1,0c0.8-0.2,1.4-0.3,1.5-0.3
	c0.1,0.1-0.2,3.5-0.5,4.3c-0.2,0.7-0.2,0.8-0.1,1c0.2,0.5,0.7,0.6,1.6,0.9C149.4,170,149.7,170.1,150.1,170"/>
<path id="line_47_" class="st2" d="M590.4,650.6v400"/>
<g>
	<path id="line_46_" class="st2" d="M690.4,650.6v400"/>
</g>
<g>
	<path id="line_45_" class="st2" d="M790.4,650.6v400"/>
</g>
<g>
	<path id="line_44_" class="st2" d="M890.4,650.6v400"/>
</g>
<path id="line_43_" class="st2" d="M990.4,650.6h-400"/>
<g>
	<path id="line_42_" class="st2" d="M990.4,750.6h-400"/>
</g>
<g>
	<path id="line_41_" class="st2" d="M990.4,850.6h-400"/>
</g>
<g>
	<path id="line_40_" class="st2" d="M990.4,950.6h-400"/>
</g>
<path id="mark_71_" class="st0" d="M623.4,763.6h-20v20"/>
<path id="mark_70_" class="st0" d="M603.4,717.6v20h20"/>
<path id="mark_69_" class="st0" d="M823.4,763.6h-20v20"/>
<path id="mark_68_" class="st0" d="M803.4,717.6v20h20"/>
<path id="mark_67_" class="st0" d="M757.4,737.6h20v-20"/>
<path id="mark_66_" class="st0" d="M777.4,783.6v-20h-20"/>
<path id="mark_65_" class="st0" d="M922.4,863.6h-20v20"/>
<path id="mark_64_" class="st0" d="M903.4,817.6v20h20"/>
<path id="mark_63_" class="st0" d="M857.4,837.6h20v-20"/>
<path id="mark_62_" class="st0" d="M877.4,883.6v-20h-20"/>
<path id="mark_61_" class="st0" d="M956.4,737.6h20v-20"/>
<g transform="rotate(-90,0,0)">
	<path id="mark_60_" class="st3" d="M980.4,780.6v-20h-20"/>
</g>
<path id="diagonal_11_" class="st2" d="M590.4,950.6l100-100"/>
<path id="diagonal_10_" class="st2" d="M590.4,950.6l100,100"/>
<path id="line_39_" class="st2" d="M590.4,650.6v400"/>
<g>
	<path id="line_38_" class="st2" d="M490.4,650.6v400"/>
</g>
<g>
	<path id="line_37_" class="st2" d="M390.4,650.6v400"/>
</g>
<g>
	<path id="line_36_" class="st2" d="M290.4,650.6v400"/>
</g>
<path id="line_35_" class="st2" d="M190.4,650.6h400"/>
<g>
	<path id="line_34_" class="st2" d="M190.4,750.6h400"/>
</g>
<g>
	<path id="line_33_" class="st2" d="M190.4,850.6h400"/>
</g>
<g>
	<path id="line_32_" class="st2" d="M190.4,950.6h400"/>
</g>
<path id="mark_59_" class="st0" d="M557.4,763.6h20v20"/>
<path id="mark_58_" class="st0" d="M576.4,717.6v20h-20"/>
<path id="mark_57_" class="st0" d="M357.4,763.6h20v20"/>
<path id="mark_56_" class="st0" d="M377.4,717.6v20h-20"/>
<path id="mark_55_" class="st0" d="M423.4,737.6h-20v-20"/>
<path id="mark_54_" class="st0" d="M403.4,783.6v-20h20"/>
<path id="mark_53_" class="st0" d="M257.4,863.6h20v20"/>
<path id="mark_52_" class="st0" d="M277.4,817.6v20h-20"/>
<path id="mark_51_" class="st0" d="M323.4,837.6h-20v-20"/>
<path id="mark_50_" class="st0" d="M303.4,883.6v-20h20"/>
<path id="mark_49_" class="st0" d="M220.4,737.6h-20v-20"/>
<path id="mark_48_" class="st0" d="M200.4,783.6v-20h20"/>
<path id="diagonal_9_" class="st2" d="M590.4,950.6l-100-100"/>
<path id="diagonal_8_" class="st2" d="M590.4,950.6l-100,100"/>
<path id="mark_1_" class="st0" d="M976.4,781.9v-20h-20"/>
<path id="mark_2_" class="st0" d="M201,416.5v20h20"/>
</svg>
