<?xml version="1.0" encoding="utf-8"?>
<!-- Generator: Adobe Illustrator 25.2.0, SVG Export Plug-In . SVG Version: 6.00 Build 0)  -->
<svg version="1.1" id="Capa_1" xmlns="http://www.w3.org/2000/svg" xmlns:xlink="http://www.w3.org/1999/xlink" x="0px" y="0px"
	 viewBox="0 0 67 67" style="enable-background:new 0 0 67 67;" xml:space="preserve">
<style type="text/css">
	.st0{fill:#FF9999;stroke:#FF9999;stroke-width:2;stroke-linecap:round;stroke-linejoin:bevel;}
	.st1{fill:none;stroke:#CC0000;stroke-width:2;stroke-miterlimit:10.8504;}
	.st2{fill:none;stroke:#CC0000;stroke-width:2;stroke-linejoin:round;stroke-miterlimit:10.8504;}
</style>
<g transform="translate(-44.438 -9.75)">
	<text transform="matrix(1 0 0 1 11.542 51.5312)" style="font-family:'Arial-ItalicMT'; font-size:18px;"> </text>
	<g transform="translate(-24.562 .25)">
		<g transform="translate(47.25 -.75)">
			<circle class="st0" cx="55.2" cy="43.8" r="32.5"/>
		</g>
		<g transform="matrix(1.647 0 0 1.647 -366.26 -537.9)">
			<g transform="rotate(106.72 368.71 352.41)">
				<g>
					<line class="st1" x1="387.4" y1="436.4" x2="402.9" y2="431.8"/>
					<line class="st1" x1="386.4" y1="433.1" x2="401.9" y2="428.5"/>
					<path class="st1" d="M389.8,435.7c0,0-1.7,3,0.5,7.1c2.2,4,6.7,1.2,9.3-1.1s7.3-6.6,7.3-6.6L403,422c0,0-5.7-1-9-1
						s-9.4,1.3-8.9,5.1c0.5,3.8,3.7,6.3,3.7,6.3"/>
					<line class="st1" x1="404.5" y1="437.3" x2="399.8" y2="421.5"/>
				</g>
				<path class="st2" d="M381,434.7l-1.6-2.8l4.1-1.2l0.1,3.5l2.6-1.9l1.4,4.7l-3.1-0.1l1.6,3.1l-3.7,1.1l-0.4-3.2l-2.4,1.5
					l-1.4-4.7L381,434.7z"/>
			</g>
		</g>
	</g>
</g>
</svg>
