<?xml version="1.0" encoding="utf-8"?>
<!-- Generator: Adobe Illustrator 25.2.0, SVG Export Plug-In . SVG Version: 6.00 Build 0)  -->
<svg version="1.1"
	 id="svg58" inkscape:version="0.92.3 (2405546, 2018-03-11)" sodipodi:docname="board_light.svg" xmlns:cc="http://creativecommons.org/ns#" xmlns:dc="http://purl.org/dc/elements/1.1/" xmlns:inkscape="http://www.inkscape.org/namespaces/inkscape" xmlns:rdf="http://www.w3.org/1999/02/22-rdf-syntax-ns#" xmlns:sodipodi="http://sodipodi.sourceforge.net/DTD/sodipodi-0.dtd" xmlns:svg="http://www.w3.org/2000/svg"
	 xmlns="http://www.w3.org/2000/svg" xmlns:xlink="http://www.w3.org/1999/xlink" x="0px" y="0px" viewBox="0 0 624 693.3"
	 style="enable-background:new 0 0 624 693.3;" xml:space="preserve">
<style type="text/css">
	.st0{fill:none;stroke:#000000;stroke-width:2;}
</style>
<sodipodi:namedview  bordercolor="#666666" borderopacity="1" gridtolerance="10" guidetolerance="10" id="namedview60" inkscape:current-layer="svg58" inkscape:cx="105.00139" inkscape:cy="439.8885" inkscape:pageopacity="0" inkscape:pageshadow="2" inkscape:window-height="700" inkscape:window-maximized="1" inkscape:window-width="1366" inkscape:window-x="0" inkscape:window-y="0" inkscape:zoom="0.67428571" objecttolerance="10" pagecolor="#ffffff" showgrid="false">
	</sodipodi:namedview>
<rect id="rect4" x="41.3" y="42.2" class="st0" width="541.3" height="609"/>
<line id="line6" class="st0" x1="41.3" y1="109.8" x2="582.7" y2="109.8"/>
<line id="line8" class="st0" x1="41.3" y1="177.5" x2="582.7" y2="177.5"/>
<line id="line10" class="st0" x1="41.3" y1="245.2" x2="582.7" y2="245.2"/>
<line id="line12" class="st0" x1="41.3" y1="312.8" x2="582.7" y2="312.8"/>
<line id="line14" class="st0" x1="41.3" y1="380.5" x2="582.7" y2="380.5"/>
<line id="line16" class="st0" x1="41.3" y1="448.2" x2="582.7" y2="448.2"/>
<line id="line18" class="st0" x1="41.3" y1="515.8" x2="582.7" y2="515.8"/>
<line id="line20" class="st0" x1="41.3" y1="583.5" x2="582.7" y2="583.5"/>
<line id="line22" class="st0" x1="109" y1="42.2" x2="109" y2="312.8"/>
<line id="line24" class="st0" x1="176.7" y1="42.2" x2="176.7" y2="312.8"/>
<line id="line26" class="st0" x1="244.3" y1="42.2" x2="244.3" y2="312.8"/>
<line id="line28" class="st0" x1="312" y1="42.2" x2="312" y2="312.8"/>
<line id="line30" class="st0" x1="379.7" y1="42.2" x2="379.7" y2="312.8"/>
<line id="line32" class="st0" x1="447.3" y1="42.2" x2="447.3" y2="312.8"/>
<line id="line34" class="st0" x1="515" y1="42.2" x2="515" y2="312.8"/>
<line id="line36" class="st0" x1="244.3" y1="42.2" x2="379.7" y2="177.5"/>
<line id="line38" class="st0" x1="379.7" y1="42.2" x2="244.3" y2="177.5"/>
<line id="line40" class="st0" x1="109" y1="380.5" x2="109" y2="651.2"/>
<line id="line42" class="st0" x1="176.7" y1="380.5" x2="176.7" y2="651.2"/>
<line id="line44" class="st0" x1="244.3" y1="380.5" x2="244.3" y2="651.2"/>
<line id="line46" class="st0" x1="312" y1="380.5" x2="312" y2="651.2"/>
<line id="line48" class="st0" x1="379.7" y1="380.5" x2="379.7" y2="651.2"/>
<line id="line50" class="st0" x1="447.3" y1="380.5" x2="447.3" y2="651.2"/>
<line id="line52" class="st0" x1="515" y1="380.5" x2="515" y2="651.2"/>
<line id="line54" class="st0" x1="244.3" y1="515.8" x2="379.7" y2="651.2"/>
<line id="line56" class="st0" x1="379.7" y1="515.8" x2="244.3" y2="651.2"/>
</svg>
