<?xml version="1.0" encoding="utf-8"?>
<!-- Generator: Adobe Illustrator 25.2.0, SVG Export Plug-In . SVG Version: 6.00 Build 0)  -->
<svg version="1.1" id="Capa_1" xmlns="http://www.w3.org/2000/svg" xmlns:xlink="http://www.w3.org/1999/xlink" x="0px" y="0px"
	 viewBox="0 0 67 67" style="enable-background:new 0 0 67 67;" xml:space="preserve">
<style type="text/css">
	.st0{fill:#FF9999;stroke:#000000;stroke-width:2;stroke-linecap:round;stroke-linejoin:bevel;}
	.st1{fill:none;stroke:#CC0000;stroke-width:2;stroke-linecap:round;stroke-linejoin:bevel;stroke-miterlimit:3.5826;}
	.st2{fill:#FFCC99;stroke:#CC0000;stroke-miterlimit:11.1063;}
	.st3{fill:#FFCC99;stroke:#CC0000;stroke-miterlimit:7.4264;}
	.st4{fill:#FFCC99;stroke:#CC0000;stroke-linecap:round;stroke-linejoin:round;stroke-miterlimit:11.1063;}
</style>
<g transform="translate(-52.996 -7.8769)">
	<text transform="matrix(1 0 0 1 11.542 51.5312)" style="font-family:'Arial-ItalicMT'; font-size:18px;"> </text>
	<g transform="translate(-7.9753 -3.182)">
		<g>
			<circle class="st0" cx="94.5" cy="44.6" r="32.5"/>
			<circle class="st1" cx="94.5" cy="44.6" r="29.1"/>
		</g>
		<g transform="matrix(-.57488 1.564 -1.564 -.57488 1341.1 -416.26)">
			<path class="st2" d="M509.9,611.9c4,6.2,12.5,5,20.5,1.2l-5.7-15.7c-2.3,1.7-3.7,2.5-6.1,5.4l-0.7-5.7c0.1-1.4-1.7-3.5-3.9-1.4
				l-3.6,7.9h-2.9c0.1,2,0.4,3.8,0.8,5.2"/>
			<circle class="st3" cx="513.5" cy="602.6" r="0.7"/>
			<path class="st4" d="M512,607.4l-7.2,2.1c1.9,2.1,5.5,3,8.5,2.3"/>
		</g>
	</g>
</g>
</svg>
