<?xml version="1.0" encoding="utf-8"?>
<!-- Generator: Adobe Illustrator 25.2.0, SVG Export Plug-In . SVG Version: 6.00 Build 0)  -->
<svg version="1.1" id="Capa_1" xmlns="http://www.w3.org/2000/svg" xmlns:xlink="http://www.w3.org/1999/xlink" x="0px" y="0px"
	 viewBox="0 0 67 67" style="enable-background:new 0 0 67 67;" xml:space="preserve">
<style type="text/css">
	.st0{fill:#FF9999;stroke:#000000;stroke-width:2;stroke-linecap:round;stroke-linejoin:bevel;}
	.st1{fill:none;stroke:#CC0000;stroke-width:2;stroke-linecap:round;stroke-linejoin:bevel;stroke-miterlimit:3.5826;}
	.st2{fill:#FFCC99;stroke:#CC0000;stroke-width:1.2127;}
	.st3{fill:#FFCC99;stroke:#CC0000;stroke-width:1.2127;stroke-linecap:round;stroke-linejoin:round;}
	.st4{fill:none;stroke:#CC0000;stroke-width:1.2127;stroke-linecap:round;stroke-linejoin:round;}
</style>
<g transform="translate(-100.46 -8.2304)">
	<text transform="matrix(1 0 0 1 11.542 51.5312)" style="font-family:'Arial-ItalicMT'; font-size:18px;"> </text>
	<g transform="translate(9.2535 -1.4142)">
		<circle class="st0" cx="124.7" cy="43.1" r="32.5"/>
		<circle class="st1" cx="124.7" cy="43.1" r="29.1"/>
		<g transform="matrix(0 1.6096 -1.6897 0 1021.1 -482.73)">
			<path class="st2" d="M328.9,525.2c0.1-1.5-0.3-5.2-0.6-8.3l-3.3-0.1c-2.8,7.3-5.8,14.2-4.9,18.2c0.8,4,5.2,5.5,8,2.5l2,2.8l0,3.7
				l2.3,0.2l-0.1-4.4l-2.9-4.5"/>
			<ellipse class="st3" cx="328.4" cy="530.2" rx="8.6" ry="8.2"/>
			<ellipse class="st4" cx="328.4" cy="530.2" rx="5.2" ry="5"/>
		</g>
	</g>
</g>
</svg>
