<?xml version="1.0" encoding="utf-8"?>
<!-- Generator: Adobe Illustrator 25.2.0, SVG Export Plug-In . SVG Version: 6.00 Build 0)  -->
<svg version="1.1" id="Capa_1" xmlns="http://www.w3.org/2000/svg" xmlns:xlink="http://www.w3.org/1999/xlink" x="0px" y="0px"
	 viewBox="0 0 67 67" style="enable-background:new 0 0 67 67;" xml:space="preserve">
<style type="text/css">
	.st0{fill:#FF9999;stroke:#000000;stroke-width:2;stroke-linecap:round;stroke-linejoin:bevel;}
	.st1{fill:none;stroke:#CC0000;stroke-width:2;stroke-linecap:round;stroke-linejoin:bevel;stroke-miterlimit:3.5826;}
	.st2{fill:#FFCC99;}
	.st3{fill:#FFCC99;stroke:#CC0000;stroke-linejoin:round;}
	.st4{fill:none;stroke:#CC0000;stroke-linecap:round;stroke-linejoin:round;}
</style>
<g transform="translate(-71.063 -10.25)">
	<g transform="translate(-20.187 -.75)">
		<g>
			<circle class="st0" cx="124.8" cy="44.5" r="32.5"/>
			<circle class="st1" cx="124.7" cy="44.5" r="29.1"/>
		</g>
	</g>
	<rect x="95.3" y="41.2" class="st2" width="10.1" height="11.1"/>
	<path class="st3" d="M105.6,50.5c1.7,2.1,2.4,5.7,1.7,9l-22.3-0.2c-4.6,0,1.4-12.2,1.4-12.2"/>
	<path class="st3" d="M99.6,42.9c0,0-1,5-4.1,6.3c-3.1,1.3-12.7-2.7-12.7-2.7s7-16.1,9-17.1s7.1,0.4,7.1,0.4
		c12.1-6.9,14.8,6.1,16.5,15.3l3,0.5l1.9-8l3.3,0.1c-1.8,11.4-5.6,23.7-13.8,11.9c0,0-2.4,0.7-4.7,0.5S99.6,42.9,99.6,42.9
		L99.6,42.9z"/>
	<path class="st3" d="M106.8,49.7l19.8-2.7l-20.1-2.8L106.8,49.7z"/>
	<ellipse class="st4" cx="109.8" cy="37.4" rx="0.9" ry="0.9"/>
</g>
</svg>
