<?xml version="1.0" encoding="utf-8"?>
<!-- Generator: Adobe Illustrator 25.2.0, SVG Export Plug-In . SVG Version: 6.00 Build 0)  -->
<svg version="1.1" id="Capa_1" xmlns="http://www.w3.org/2000/svg" xmlns:xlink="http://www.w3.org/1999/xlink" x="0px" y="0px"
	 viewBox="0 0 67 67" style="enable-background:new 0 0 67 67;" xml:space="preserve">
<style type="text/css">
	.st0{fill:#FEDAA4;stroke:#000000;stroke-width:2;stroke-linecap:round;stroke-linejoin:bevel;}
	.st1{fill:none;stroke:#CC0000;stroke-width:2;stroke-linecap:round;stroke-linejoin:bevel;stroke-miterlimit:3.5826;}
	.st2{fill:none;stroke:#CC0000;stroke-linejoin:round;}
	.st3{fill:none;stroke:#CC0000;stroke-linecap:round;stroke-linejoin:round;}
</style>
<g transform="translate(-71.063 -10.25)">
	<g transform="translate(-20.187 -.75)">
		<g>
			<circle class="st0" cx="124.8" cy="44.5" r="32.5"/>
			<circle class="st1" cx="124.7" cy="44.5" r="29.1"/>
		</g>
		<g transform="matrix(0 1.652 -1.549 0 1121.8 -541.77)">
			<g>
				<path class="st2" d="M359,643.1c1.3-1.1,3.4-1.5,5.4-1.1l-0.1,14.4c0,2.9-7.4-0.9-7.4-0.9"/>
				<path class="st2" d="M354.4,646.9c0,0,3,0.7,3.8,2.7s-1.6,8.2-1.6,8.2s-9.7-4.5-10.4-5.8s0.3-4.6,0.3-4.6
					c-4.2-7.8,3.7-9.6,9.2-10.7l0.3-2l-4.8-1.2l0.1-2.2c6.9,1.2,14.3,3.6,7.2,8.9c0,0,0.4,1.6,0.3,3S354.4,646.9,354.4,646.9
					L354.4,646.9z"/>
				<path class="st2" d="M358.5,642.3l-1.6-12.8l-1.7,13L358.5,642.3z"/>
			</g>
			<ellipse class="st3" cx="351.1" cy="640.3" rx="0.9" ry="0.9"/>
		</g>
	</g>
</g>
</svg>
