<?xml version="1.0" encoding="utf-8"?>
<!-- Generator: Adobe Illustrator 25.2.0, SVG Export Plug-In . SVG Version: 6.00 Build 0)  -->
<svg version="1.1" id="Capa_1" xmlns="http://www.w3.org/2000/svg" xmlns:xlink="http://www.w3.org/1999/xlink" x="0px" y="0px"
	 viewBox="0 0 67 67" style="enable-background:new 0 0 67 67;" xml:space="preserve">
<style type="text/css">
	.st0{fill:#FF9999;stroke:#000000;stroke-width:2;stroke-linecap:round;stroke-linejoin:bevel;}
	.st1{fill:none;stroke:#000000;stroke-width:2;stroke-linecap:round;stroke-linejoin:bevel;stroke-miterlimit:3.5826;}
	.st2{fill:#FFCC99;}
	.st3{fill:#FFCC99;stroke:#000000;stroke-linejoin:round;}
	.st4{fill:#FFCC99;stroke:#000000;stroke-linecap:round;stroke-linejoin:round;}
</style>
<g transform="translate(-209.06 -10.25)">
	<g transform="translate(-19.937 .5)">
		<g>
			<circle class="st0" cx="262.5" cy="43.2" r="32.5"/>
			<circle class="st1" cx="262.5" cy="43.2" r="29.1"/>
		</g>
	</g>
</g>
<rect x="20.6" y="29.5" class="st2" width="13.6" height="12.1"/>
<path class="st3" d="M34.4,40.2c1.7,2.1,2.4,5.7,1.7,9L13.8,49c-4.6,0,1.4-12.2,1.4-12.2"/>
<path class="st3" d="M28.5,32.6c0,0-1,5-4.1,6.3s-12.7-2.7-12.7-2.7s7-16.1,9-17.1c2-1,7.1,0.4,7.1,0.4c12.1-6.9,14.8,6.1,16.5,15.3
	l3,0.5l1.9-8l3.3,0.1c-1.8,11.4-5.6,23.7-13.8,11.9c0,0-2.4,0.7-4.7,0.5C31.6,39.8,28.5,32.6,28.5,32.6L28.5,32.6z"/>
<path class="st3" d="M35.6,39.4l19.8-2.7l-20.1-2.8L35.6,39.4z"/>
<ellipse class="st4" cx="38.7" cy="27.1" rx="0.9" ry="0.9"/>
</svg>
