<?xml version="1.0" encoding="utf-8"?>
<!-- Generator: Adobe Illustrator 25.2.0, SVG Export Plug-In . SVG Version: 6.00 Build 0)  -->
<svg version="1.1" id="Capa_1" xmlns="http://www.w3.org/2000/svg" xmlns:xlink="http://www.w3.org/1999/xlink" x="0px" y="0px"
	 viewBox="0 0 67 67" style="enable-background:new 0 0 67 67;" xml:space="preserve">
<style type="text/css">
	.st0{fill:#FF9999;stroke:#000000;stroke-width:2;stroke-linecap:round;stroke-linejoin:bevel;}
	.st1{fill:none;stroke:#CC0000;stroke-width:2;stroke-linecap:round;stroke-linejoin:bevel;stroke-miterlimit:3.5826;}
	.st2{fill:#FFCC99;stroke:#CC0000;stroke-width:2;stroke-miterlimit:10.8504;}
	.st3{fill:#FFCC99;stroke:#CC0000;stroke-width:2;stroke-linejoin:round;stroke-miterlimit:10.8504;}
</style>
<g transform="translate(-44.438 -9.75)">
	<text transform="matrix(1 0 0 1 11.542 51.5312)" style="font-family:'Arial-ItalicMT'; font-size:18px;"> </text>
	<g transform="translate(-24.562 .25)">
		<g transform="translate(47.25 -.75)">
			<circle class="st0" cx="55.2" cy="43.8" r="32.5"/>
			<circle class="st1" cx="55.2" cy="43.7" r="29.1"/>
		</g>
		<g transform="matrix(1.647 0 0 1.647 -502.76 -537.15)">
			<g transform="rotate(106.72 368.71 352.41)">
				<g>
					<path class="st2" d="M365.5,356.5c0,0-1.7,3,0.5,7.1c2.2,4,6.7,1.2,9.3-1.1s7.3-6.6,7.3-6.6l-3.9-13.1c0,0-5.7-1-9-1
						s-9.4,1.3-8.9,5.1c0.5,3.8,3.7,6.3,3.7,6.3"/>
					<path class="st2" d="M375.3,342.3l4.6,15.7"/>
					<path class="st2" d="M377.4,349.7l-14.3,4.1"/>
					<path class="st2" d="M378.4,352.6l-14.4,4.2"/>
				</g>
				<path class="st3" d="M358.6,355.3l-1.1-2.2l3.3-0.9l0.4,2.7l1.5-1.8l1.2,4.5l-2.5-0.5l1.3,2.7l-3,0.6l-0.3-2.7l-2,1.3l-1.1-3.9
					L358.6,355.3z"/>
			</g>
		</g>
	</g>
</g>
</svg>
