<?xml version="1.0" encoding="utf-8"?>
<!-- Generator: Adobe Illustrator 25.2.0, SVG Export Plug-In . SVG Version: 6.00 Build 0)  -->
<svg version="1.1" id="Capa_1" xmlns="http://www.w3.org/2000/svg" xmlns:xlink="http://www.w3.org/1999/xlink" x="0px" y="0px"
	 viewBox="0 0 67 67" style="enable-background:new 0 0 67 67;" xml:space="preserve">
<style type="text/css">
	.st0{fill:#FF9999;stroke:#000000;stroke-width:2;stroke-linecap:round;stroke-linejoin:bevel;}
	.st1{fill:none;stroke:#CC0000;stroke-width:2;stroke-linecap:round;stroke-linejoin:bevel;stroke-miterlimit:3.5826;}
	.st2{fill:#FEDAA4;stroke:#CC0000;stroke-linecap:round;stroke-linejoin:round;stroke-miterlimit:9.6522;}
	.st3{fill:#FEDAA4;stroke:#CC0000;stroke-linejoin:round;stroke-miterlimit:9.6522;}
	.st4{fill:#FEDAA4;stroke:#CC0000;stroke-linecap:round;stroke-miterlimit:9.6522;}
</style>
<g transform="translate(-79.688 -10.75)">
	<g transform="translate(-6.8957 4)">
		<g transform="translate(0 -3.5)">
			<circle class="st0" cx="120.1" cy="43.8" r="32.5"/>
			<circle class="st1" cx="120.1" cy="43.7" r="29.1"/>
		</g>
		<g transform="matrix(1.5534 0 0 1.5534 -540.7 -592.05)">
			<path class="st2" d="M419.5,403.6c-0.9,1.1-1.3,2.5-1.3,4c0,1.9,0.8,3.5,2.1,4.8c-2.5,1.5-4.3,4-4.8,7h20c-0.5-3-2.3-5.5-4.8-7
				c1.3-1.2,2-2.9,2-4.8c0-1.4-0.5-2.8-1.3-3.9L419.5,403.6z"/>
			<path class="st3" d="M431.4,403.7l-12.3-0.1l-2.8-6.7l6.5,1.5l2.8-3.6l2.4,4l7.1-1.3L431.4,403.7L431.4,403.7z"/>
			<path class="st4" d="M428.9,406.5l-2,2l0,0"/>
			<path class="st4" d="M421.8,406.5l2,2l0,0"/>
		</g>
	</g>
</g>
</svg>
