<?xml version="1.0" encoding="utf-8"?>
<!-- Generator: Adobe Illustrator 25.2.0, SVG Export Plug-In . SVG Version: 6.00 Build 0)  -->
<svg version="1.1" id="Capa_1" xmlns="http://www.w3.org/2000/svg" xmlns:xlink="http://www.w3.org/1999/xlink" x="0px" y="0px"
	 viewBox="0 0 67 67" style="enable-background:new 0 0 67 67;" xml:space="preserve">
<style type="text/css">
	.st0{fill:#FF9999;stroke:#000000;stroke-width:2;stroke-linecap:round;stroke-linejoin:bevel;}
	.st1{fill:#CD0000;}
	.st2{fill:#CD0000;stroke:#CD0000;stroke-linejoin:round;}
	.st3{fill:#FF9999;stroke:#CD0000;stroke-linejoin:round;}
	.st4{fill:#CD0000;stroke:#FF9999;stroke-linecap:round;stroke-linejoin:round;}
</style>
<g transform="translate(-209.06 -10.25)">
	<g transform="translate(-19.937 .5)">
		<g>
			<circle class="st0" cx="262.5" cy="43.2" r="32.5"/>
		</g>
	</g>
</g>
<rect x="20.6" y="29.6" class="st1" width="13.6" height="12.1"/>
<path class="st2" d="M34.4,40.2c1.7,2.1,2.4,5.7,1.7,9l-22.3-0.2c-4.6,0,1.4-12.2,1.4-12.2"/>
<path class="st2" d="M28.5,32.7c0,0-1,5-4.1,6.3c-3.1,1.3-12.7-2.7-12.7-2.7s7-16.1,9-17.1s7.1,0.4,7.1,0.4
	c12.1-6.9,14.8,6.1,16.5,15.3l3,0.5l1.9-8l3.3,0.1c-1.8,11.4-5.6,23.7-13.8,11.9c0,0-2.4,0.7-4.7,0.5C31.6,39.8,28.5,32.7,28.5,32.7
	L28.5,32.7z"/>
<path class="st3" d="M35.6,39.5l19.8-2.7L35.3,34L35.6,39.5z"/>
<ellipse class="st4" cx="38.7" cy="27.2" rx="0.9" ry="0.9"/>
</svg>
