<?xml version="1.0" encoding="utf-8"?>
<!-- Generator: Adobe Illustrator 25.2.0, SVG Export Plug-In . SVG Version: 6.00 Build 0)  -->
<svg version="1.1" id="Capa_1" xmlns="http://www.w3.org/2000/svg" xmlns:xlink="http://www.w3.org/1999/xlink" x="0px" y="0px"
	 viewBox="0 0 67 67" style="enable-background:new 0 0 67 67;" xml:space="preserve">
<style type="text/css">
	.st0{fill:#FFFFFF;stroke:#000000;stroke-width:2;stroke-linejoin:bevel;}
	.st1{stroke:#1D1D1B;stroke-miterlimit:10.8504;}
	.st2{fill:none;stroke:#FFFFFF;stroke-miterlimit:10.8504;}
	.st3{stroke:#000000;stroke-linejoin:round;stroke-miterlimit:10.8504;}
</style>
<g transform="translate(-182.44 -9.75)">
	<text transform="matrix(1 0 0 1 11.542 51.5312)" style="font-family:'Arial-ItalicMT'; font-size:18px;"> </text>
	<g transform="translate(-23.062 1)">
		<g transform="translate(107.75,-1.5)">
			<circle class="st0" cx="131.2" cy="43.8" r="32.5"/>
		</g>
	</g>
</g>
<g transform="matrix(1.647 0 0 1.647 -366.26 -537.9)">
	<g transform="matrix(1.647 0 0 1.647 -366.26 -537.9)">
		<g transform="rotate(106.72 368.71 352.41)">
			<g>
				<path class="st1" d="M543.4,300c0,0-1,1.8,0.3,4.3c1.3,2.4,4.1,0.7,5.6-0.7c1.6-1.4,4.4-4,4.4-4l-2.4-8c0,0-3.5-0.6-5.5-0.6
					c-2,0-5.7,0.8-5.4,3.1s2.2,3.8,2.2,3.8"/>
				<polyline class="st2" points="550.7,295.6 541.3,298.4 541.9,300.4 551.3,297.6 552.5,301.5 549.3,290.9 				"/>
			</g>
			<path class="st3" d="M538,299.4l-1-1.7l2.5-0.7l0.1,2.1l1.6-1.1l0.9,2.8l-1.9,0l0.9,1.9l-2.2,0.7l-0.2-2l-1.4,0.9l-0.9-2.8
				L538,299.4z"/>
		</g>
	</g>
</g>
</svg>
