<?xml version="1.0" encoding="utf-8"?>
<!-- Generator: Adobe Illustrator 25.2.0, SVG Export Plug-In . SVG Version: 6.00 Build 0)  -->
<svg version="1.1" id="Capa_1" xmlns="http://www.w3.org/2000/svg" xmlns:xlink="http://www.w3.org/1999/xlink" x="0px" y="0px"
	 viewBox="0 0 67 67" style="enable-background:new 0 0 67 67;" xml:space="preserve">
<style type="text/css">
	.st0{font-family:'Arial-ItalicMT';}
	.st1{font-size:18px;}
	.st2{fill:#FF9999;stroke:#000000;stroke-width:2;stroke-linecap:round;stroke-linejoin:bevel;}
	.st3{fill:none;stroke:#CC0000;stroke-width:2;stroke-linecap:round;stroke-linejoin:bevel;stroke-miterlimit:3.5826;}
	.st4{fill:#CC0000;stroke:#CC0000;}
</style>
<g transform="translate(24.562 -9.75)">
	<text transform="matrix(1 0 0 1 11.542 51.5312)" class="st0 st1"> </text>
	<g transform="translate(-46.312 -.5)">
		<g>
			<circle class="st2" cx="55.2" cy="43.8" r="32.5"/>
			<circle class="st3" cx="55.2" cy="43.7" r="29.1"/>
		</g>
		<path class="st4" d="M64.2,35.2h5.9v15.9c-0.1,0.9-0.6,1.4-1.6,1.3c-0.9-0.1-1.9-0.2-3-0.4v0.6c2.2,0.7,3.4,1.8,3.8,3.1
			c2-1,2.9-2.5,2.8-4.4V35.8l1.2-0.9l-2.3-2l-1.4,1.6h-5.5v-6.2l1.4-1.2L62,25.3c0.1,1.7,0.2,4.7,0.2,9.1h-5.5l-2.3-1.2
			c0.1,2.4,0.2,5.9,0.2,10.4c0,4.5-0.1,8.4-0.2,11.6l2.2-1.2V35.2h5.6v19.5c0,2.1-0.1,4.6-0.2,7.5l2.3-1.1c-0.1-1.9-0.2-3.7-0.2-5.5
			L64.2,35.2z M41.2,33.3h7.8v7.2h-7.8V33.3z M41.2,47.3h8.4v8.9h-8.4V47.3z M39.1,60.3l2.2-0.9V57h8.4v2.3l2.2-0.9
			c-0.1-1.2-0.2-4.7-0.2-10.5l0.9-0.8l-1.9-2l-1.4,1.4h-8.1v-5.3h7.8v1.9l2.2-1.1c-0.1-1.5-0.2-4.2-0.2-8.1l1.1-0.8l-2-2l-1.4,1.4
			h-4.8l2.5-4.1l1.4-1.1l-3.3-1.9c0,1.8-0.6,4.1-1.7,7h-1.6l-2.2-1.1c0.1,2.1,0.2,6.7,0.2,13.8C39.2,52.2,39.2,57.3,39.1,60.3
			L39.1,60.3z"/>
	</g>
</g>
</svg>
