<?xml version="1.0" encoding="utf-8"?>
<!-- Generator: Adobe Illustrator 25.2.0, SVG Export Plug-In . SVG Version: 6.00 Build 0)  -->
<svg version="1.1" id="Capa_1" xmlns="http://www.w3.org/2000/svg" xmlns:xlink="http://www.w3.org/1999/xlink" x="0px" y="0px"
	 viewBox="0 0 67 67" style="enable-background:new 0 0 67 67;" xml:space="preserve">
<style type="text/css">
	.st0{fill:#FF9999;stroke:#000000;stroke-width:2;stroke-linecap:round;stroke-linejoin:bevel;}
	.st1{fill:none;stroke:#CC0000;stroke-width:2;stroke-linecap:round;stroke-linejoin:bevel;stroke-miterlimit:3.5826;}
	.st2{fill:#CC0000;stroke:#CC0000;}
</style>
<g transform="translate(-10.688 -10.75)">
	<g transform="translate(-11.062 .5)">
		<circle class="st0" cx="55.2" cy="43.8" r="32.5"/>
		<circle class="st1" cx="55.2" cy="43.7" r="29.1"/>
		<path class="st2" d="M46.4,55.3V38.6l1.1-1.1l-2.3-1.1c1-2.1,2-4,2.9-5.7c0.9-1.7,1.7-2.8,2.6-3.2L47,25.3c-1,4.4-2.4,8.2-4,11.6
			c-1.6,3.3-3.6,6.7-6,10.2l0.5,0.5c2.1-2.2,4.3-5.1,6.6-8.8v16.7c0,1.8-0.1,4-0.2,6.7l2.7-1.1C46.5,59,46.4,57.1,46.4,55.3
			L46.4,55.3z M58.9,33.1v5.6H48l1.2,1.2c0.9-0.3,2-0.5,3.1-0.5h6.6v18h-9.4l1.2,1.2c0.9-0.3,2-0.5,3.1-0.5h17.7l-2.7-2.8l-2,2h-5.6
			v-18h12.2l-2.8-3.1l-2.5,2.3h-6.9V28.6l1.1-0.9l-3.6-1.7C58.9,28.6,58.9,31,58.9,33.1L58.9,33.1z"/>
	</g>
</g>
</svg>
