<?xml version="1.0" encoding="utf-8"?>
<!-- Generator: Adobe Illustrator 25.2.0, SVG Export Plug-In . SVG Version: 6.00 Build 0)  -->
<svg version="1.1" id="Capa_1" xmlns="http://www.w3.org/2000/svg" xmlns:xlink="http://www.w3.org/1999/xlink" x="0px" y="0px"
	 viewBox="0 0 67 67" style="enable-background:new 0 0 67 67;" xml:space="preserve">
<style type="text/css">
	.st0{fill:#FF9999;stroke:#000000;stroke-width:2;stroke-linecap:round;stroke-linejoin:bevel;}
	.st1{fill:none;stroke:#CC0000;stroke-width:2;stroke-linecap:round;stroke-linejoin:bevel;stroke-miterlimit:3.5826;}
	.st2{fill:#CC0000;stroke:#CC0000;}
</style>
<g transform="translate(59.313 -11.518)">
	<text transform="matrix(1 0 0 1 11.542 51.5312)" style="font-family:'Arial-ItalicMT'; font-size:18px;"> </text>
	<g transform="translate(-81.063 1.2678)">
		<g>
			<circle class="st0" cx="55.2" cy="43.8" r="32.5"/>
			<circle class="st1" cx="55.2" cy="43.7" r="29.1"/>
		</g>
		<path class="st2" d="M51.2,37.6h6.6v4.7h-6.6V37.6z M59.8,37.6h7v4.7h-7L59.8,37.6z M51.2,43h6.6v4.8h-6.6V43z M59.8,43h7v4.8h-7
			L59.8,43z M57.5,62.3l2.5-1.1c-0.1-2.3-0.2-4-0.2-5.2v-1.7h12.3l-2.8-3l-2,2.2h-7.5v-4.8h7v1.4L69,49c-0.1-1.5-0.2-2.8-0.2-4.1
			v-6.7l1.2-1.1l-2.5-1.9l-1.1,1.6h-6.7v-4.4h11.1l-2.8-2.8l-2,2h-6.2v-3.4l1.4-1.2l-3.6-1.6c0.1,1.1,0.2,2.3,0.2,3.6v2.7H47.5
			l1.2,1.2c0.9-0.3,2-0.5,3.1-0.5h5.9v4.4h-6.4L49,35.7c0.1,2.2,0.2,4.6,0.2,7.3c0,2.7-0.1,5.3-0.2,7.9l2.2-1.1v-1.1h6.6v4.8h-12
			l1.2,1.2c0.9-0.3,2-0.5,3.1-0.5h7.7v2.5C57.8,57.7,57.7,59.6,57.5,62.3L57.5,62.3z M44.5,38.2l1.2-0.8l-1.9-1.1
			c0.8-1.8,2-4.2,3.6-7.3l1.7-1.1l-3.4-2.2c-0.9,3.2-2.2,6.6-3.8,10.1c-1.6,3.5-3.4,6.7-5.6,9.8l0.5,0.5c1.9-2,3.8-4.4,5.6-7.2v16.6
			c0,2.3-0.1,4.5-0.2,6.7l2.3-1.2c-0.1-1.9-0.2-4.1-0.2-6.6L44.5,38.2z"/>
	</g>
</g>
</svg>
